
<svg width="40px" height="37px" viewBox="0 0 40 37" version="1.1" xmlns="http://www.w3.org/2000/svg" xmlns:xlink="http://www.w3.org/1999/xlink">
    <!-- Generator: Sketch 49.2 (51160) - http://www.bohemiancoding.com/sketch -->
    <desc>Created with Sketch.</desc>
    <defs></defs>
    <g id="Contact-Us" stroke="none" stroke-width="1" fill="none" fill-rule="evenodd">
        <g transform="translate(-249.000000, -470.000000)" fill="#FD5404" id="Alert-Message">
            <g transform="translate(249.000000, 441.000000)">
                <g id="Icon---Alert" transform="translate(0.000000, 29.000000)">
                    <g id="Icon-/-Alert">
                        <path d="M19.7787797,2.71186441 C18.7164068,2.71186441 17.6784407,3.49627119 16.8560678,4.92067797 L2.79505085,29.2752542 C1.97267797,30.699661 1.81267797,31.9905085 2.34352542,32.9105085 C2.87505085,33.8305085 4.07301695,34.3369492 5.71844068,34.3369492 L33.8397966,34.3369492 C35.4845424,34.3369492 36.6831864,33.8305085 37.2140339,32.9105085 C37.7448814,31.9905085 37.5848814,30.699661 36.7625085,29.2752542 L22.7021695,4.92067797 C21.8791186,3.49627119 20.8411525,2.71186441 19.7787797,2.71186441 M33.8397966,36.3708475 L5.71844068,36.3708475 C3.31572881,36.3708475 1.492,35.5030508 0.582169492,33.9274576 C-0.327661017,32.3518644 -0.166983051,30.3383051 1.03437288,28.2583051 L15.0947119,3.90372881 C16.2960678,1.82372881 17.9591186,0.677966102 19.7787797,0.677966102 C21.5984407,0.677966102 23.2621695,1.82372881 24.4628475,3.90372881 L38.5238644,28.2583051 C39.7245424,30.3383051 39.8852203,32.3518644 38.9753898,33.9274576 C38.0655593,35.5030508 36.2418305,36.3708475 33.8397966,36.3708475" id="Fill-1"></path>
                        <path d="M19.7789153,27.159661 C19.0297627,27.159661 18.4229831,27.7664407 18.4229831,28.5155932 C18.4229831,29.2647458 19.0297627,29.8715254 19.7789153,29.8715254 C20.5280678,29.8715254 21.1348475,29.2647458 21.1348475,28.5155932 C21.1348475,27.7664407 20.5280678,27.159661 19.7789153,27.159661" id="Fill-4"></path>
                        <polygon id="Fill-6" points="20.871661 24.7958644 21.5869153 12.2534915 19.7787797 12.2534915 17.9706441 12.2534915 18.6858983 24.7958644"></polygon>
                    </g>
                </g>
            </g>
        </g>
    </g>
</svg>