
<svg width="200px" height="40px" viewBox="0 0 200 40" version="1.1" xmlns="http://www.w3.org/2000/svg" xmlns:xlink="http://www.w3.org/1999/xlink">
    <!-- Generator: Sketch 48.2 (47327) - http://www.bohemiancoding.com/sketch -->
    <desc>Created with Sketch.</desc>
    <defs>
        <polygon id="path-1" points="0 9.2899537 0 0.0427147508 18.60732 0.0427147508 18.60732 18.5371927 0 18.5371927"></polygon>
        <polygon id="path-3" points="39.2051712 38.9596079 0.128902007 38.9596079 0.128902007 0.170976351 39.2051712 0.170976351"></polygon>
        <polygon id="path-5" points="0 39.386286 199.801417 39.386286 199.801417 0.234696433 0 0.234696433"></polygon>
    </defs>
    <g id="Symbols" stroke="none" stroke-width="1" fill="none" fill-rule="evenodd">
        <g id="Global-Nav" transform="translate(-208.000000, -23.000000)">
            <g id="Logo" transform="translate(208.000000, 23.000000)">
                <g id="Group-3" transform="translate(0.000000, 0.191982)">
                    <mask id="mask-2" fill="white">
                        <use xlink:href="#path-1"></use>
                    </mask>
                    <g id="Clip-2"></g>
                    <path d="M0,18.5371927 L18.60732,0.0426443419 C8.5811098,0.589017638 0.549940968,8.57198211 0,18.5371927" id="Fill-1" fill="#185EE5" mask="url(#mask-2)"></path>
                </g>
                <g id="Group-6" transform="translate(0.236128, 0.426678)">
                    <mask id="mask-4" fill="white">
                        <use xlink:href="#path-3"></use>
                    </mask>
                    <g id="Clip-5"></g>
                    <path d="M39.2051712,19.3933183 C39.2051712,19.3085929 39.1999764,19.225041 39.1987957,19.1407849 L23.306706,19.1407849 L19.7057615,15.5614296 L38.8261865,15.5614296 C38.4743566,13.7958084 37.8816765,12.1170248 37.0878158,10.5565282 L20.0965525,10.5565282 L23.6977332,6.97717291 L34.74732,6.97717291 C33.0802597,4.95291617 31.0131995,3.26849987 28.6672727,2.03775178 C28.6250059,2.01522092 28.5815584,1.99409824 28.5385832,1.97203678 C26.94732,1.15177275 25.2318536,0.536398698 23.4240614,0.170976351 L0.128902007,23.3247183 C0.318984652,24.2524733 0.576599764,25.1553504 0.893010626,26.0307681 C1.20587957,26.8960939 1.57990555,27.7320826 2.00706021,28.5361526 C5.11638725,34.3906551 11.115915,38.4891589 18.1192208,38.9597252 L4.8198111,25.7406833 L7.54094451,23.0362763 L23.2469658,38.6471096 C25.115915,38.2870853 26.8892326,37.6637315 28.5293743,36.8192938 L11.1015112,19.4970541 L13.8226446,16.7921777 L31.8247698,34.6854338 C33.1376387,33.636106 34.3142621,32.4260112 35.319693,31.080966 L28.3423613,24.1459211 L38.6186305,24.1459211 C38.9999764,22.6239147 39.2051712,21.0326729 39.2051712,19.3933183" id="Fill-4" fill="#185EE5" mask="url(#mask-4)"></path>
                </g>
                <path d="M49.7942857,13.3156899 C49.7942857,11.8434392 50.0554427,10.5091899 50.5787013,9.3141157 C51.1014876,8.11880677 51.8160094,7.0967038 52.7222668,6.2478068 C53.6282881,5.3993792 54.6960567,4.74504554 55.9248642,4.28597932 C57.1534357,3.82714779 58.4648878,3.59737999 59.859693,3.59737999 C61.2882645,3.59737999 62.6393861,3.82714779 63.9118772,4.28597932 C65.1838961,4.74504554 66.2471783,5.36440943 67.1010153,6.14383628 L63.2844864,10.7173657 C62.9352538,10.2669832 62.5000708,9.92479582 61.9772845,9.69080348 C61.454026,9.45681113 60.8700826,9.33993231 60.2254545,9.33993231 C59.7026682,9.33993231 59.2145927,9.43099453 58.761464,9.61288426 C58.3080992,9.794774 57.9118772,10.0590422 57.5718536,10.4054541 C57.2320661,10.7523354 56.9661865,11.1719727 56.774451,11.665774 C56.5822432,12.1593406 56.4868477,12.7097037 56.4868477,13.3156899 C56.4868477,13.9223802 56.5869658,14.4633554 56.7876741,14.9397892 C56.9876741,15.4164577 57.2580401,15.8278805 57.5982999,16.173823 C57.9378512,16.5209391 58.3343093,16.7849726 58.7876741,16.9666276 C59.2405667,17.1485173 59.7199055,17.2393449 60.2254545,17.2393449 C60.9399764,17.2393449 61.5543802,17.0924249 62.0686659,16.7978809 C62.5822432,16.5033368 62.9876741,16.1569249 63.2844864,15.7581757 L67.1010153,20.3058884 C66.2646517,21.1376526 65.2358442,21.7997312 64.0164817,22.2935325 C62.7959386,22.7873338 61.4105785,23.0342345 59.859693,23.0342345 C58.4648878,23.0342345 57.1534357,22.8004768 55.9248642,22.3324921 C54.6960567,21.8649769 53.6282881,21.2024288 52.7222668,20.3448481 C51.8160094,19.4870326 51.1014876,18.4651643 50.5787013,17.2787739 C50.0554427,16.0921487 49.7942857,14.7710425 49.7942857,13.3156899" id="Fill-7" fill="#000000"></path>
                <path d="M77.079693,13.2117663 C77.079693,13.8184566 77.1715466,14.3725749 77.3545455,14.8750599 C77.537072,15.3777797 77.7897285,15.8103252 78.1125148,16.17387 C78.4348288,16.5378842 78.8225502,16.8195199 79.275915,17.0183078 C79.7288076,17.2180344 80.2173554,17.317311 80.7401417,17.317311 C81.262928,17.317311 81.7465171,17.2180344 82.1911452,17.0183078 C82.6353011,16.8195199 83.0230224,16.5378842 83.3545455,16.17387 C83.685124,15.8103252 83.942503,15.3777797 84.1257379,14.8750599 C84.3087367,14.3725749 84.4001181,13.8184566 84.4001181,13.2117663 C84.4001181,12.6231477 84.3087367,12.0814683 84.1257379,11.587667 C83.942503,11.0941004 83.685124,10.6782183 83.3545455,10.3404901 C83.0230224,10.0025273 82.6353011,9.73872849 82.1911452,9.54792029 C81.7465171,9.35758148 81.262928,9.26229473 80.7401417,9.26229473 C80.2173554,9.26229473 79.7288076,9.35758148 79.275915,9.54792029 C78.8225502,9.73872849 78.4348288,10.0025273 78.1125148,10.3404901 C77.7897285,10.6782183 77.537072,11.0941004 77.3545455,11.587667 C77.1715466,12.0814683 77.079693,12.6231477 77.079693,13.2117663 M70.4655254,13.2117663 C70.4655254,11.7395156 70.7269185,10.4099603 71.249941,9.22310043 C71.7727273,8.03670996 72.4914994,7.0272806 73.4064935,6.19575114 C74.3219599,5.36445637 75.4067296,4.72350041 76.6615112,4.27288326 C77.9165289,3.8227355 79.275915,3.59742693 80.7401417,3.59742693 C82.2038961,3.59742693 83.5635183,3.8227355 84.8182999,4.27288326 C86.0733176,4.72350041 87.1623377,5.36445637 88.0865407,6.19575114 C89.0097993,7.0272806 89.733294,8.03670996 90.2560803,9.22310043 C90.7788666,10.4099603 91.0404959,11.7395156 91.0404959,13.2117663 C91.0404959,14.6844864 90.7788666,16.0271847 90.2560803,17.2393918 C89.733294,18.452303 89.0097993,19.4870795 88.0865407,20.344895 C87.1623377,21.2024758 86.0733176,21.8650238 84.8182999,22.3325391 C83.5635183,22.8005238 82.2038961,23.0340467 80.7401417,23.0340467 C79.275915,23.0340467 77.9165289,22.8005238 76.6615112,22.3325391 C75.4067296,21.8650238 74.3219599,21.2024758 73.4064935,20.344895 C72.4914994,19.4870795 71.7727273,18.452303 71.249941,17.2393918 C70.7269185,16.0271847 70.4655254,14.6844864 70.4655254,13.2117663" id="Fill-9" fill="#000000"></path>
                <path d="M101.758442,11.8866233 L102.97804,11.8866233 C103.185596,11.8866233 103.414876,11.8694905 103.665407,11.8347554 C103.916175,11.800255 104.149705,11.7265603 104.365762,11.613906 C104.581582,11.5012518 104.7634,11.3454133 104.910508,11.1459214 C105.057615,10.9471335 105.131287,10.6828653 105.131287,10.3533515 C105.131287,10.0245418 105.070366,9.76473285 104.949233,9.57392465 C104.828335,9.38358585 104.672963,9.24065572 104.482409,9.14513427 C104.292326,9.05031691 104.08477,8.98929584 103.859976,8.96347923 C103.635183,8.93719323 103.427627,8.92428493 103.237544,8.92428493 L101.758442,8.92428493 L101.758442,11.8866233 Z M95.7716647,4.11699789 L103.745455,4.11699789 C104.651712,4.11699789 105.553483,4.20806011 106.451712,4.38994984 C107.34876,4.57183958 108.150649,4.8926696 108.856434,5.35150113 C109.56222,5.81056735 110.133176,6.4257067 110.569067,7.19621509 C111.00425,7.96719287 111.222432,8.93320339 111.222432,10.0935426 C111.222432,11.2198507 110.944274,12.2114432 110.387957,13.0690239 C109.831877,13.9266047 109.032113,14.5891527 107.989847,15.0564333 L112.686659,22.5146166 L105.539079,22.5146166 L101.993625,15.9405348 L101.810862,15.9405348 L101.810862,22.5146166 L95.7716647,22.5146166 L95.7716647,4.11699789 Z" id="Fill-11" fill="#000000"></path>
                <polygon id="Fill-13" fill="#000000" points="127.034427 22.5145227 120.812231 22.5145227 120.812231 9.34007313 116.263235 9.34007313 116.263235 4.11713871 131.583424 4.11713871 131.583424 9.34007313 127.034427 9.34007313"></polygon>
                <polygon id="Fill-15" fill="#000000" points="137.17294 4.11709177 149.904699 4.11709177 149.904699 9.26210697 143.029138 9.26210697 143.029138 10.8472467 149.486517 10.8472467 149.486517 15.6545337 143.029138 15.6545337 143.029138 17.3692259 150.349327 17.3692259 150.349327 22.5144758 137.17294 22.5144758"></polygon>
                <polygon id="Fill-17" fill="#000000" points="154.475183 4.11709177 161.508005 4.11709177 164.566564 15.4984606 164.671169 15.4984606 167.59915 4.11709177 174.631972 4.11709177 167.938937 22.5144758 161.037166 22.5144758"></polygon>
                <path d="M185.339362,10.5353821 L183.822952,15.0828601 L186.829563,15.0828601 L185.339362,10.5353821 Z M182.123542,4.11713871 L188.738182,4.11713871 L195.95353,22.5145227 L189.182338,22.5145227 L188.215396,19.8119933 L182.332751,19.8119933 L181.417757,22.5145227 L174.829799,22.5145227 L182.123542,4.11713871 Z" id="Fill-19" fill="#000000"></path>
                <polygon id="Fill-21" fill="#000000" points="195.229563 4.68512754 195.229563 6.87155951 194.560142 6.87155951 194.560142 4.68512754 193.777379 4.68512754 193.777379 4.11716218 196.012326 4.11716218 196.012326 4.68512754"></polygon>
                <polygon id="Fill-23" fill="#000000" points="199.143754 6.87155951 199.159339 4.92240564 199.147769 4.92240564 198.427344 6.87155951 197.957686 6.87155951 197.257096 4.92240564 197.245289 4.92240564 197.26111 6.87155951 196.630885 6.87155951 196.630885 4.11716218 197.583188 4.11716218 198.21412 5.88348753 198.229705 5.88348753 198.833247 4.11716218 199.80137 4.11716218 199.80137 6.87155951"></polygon>
                <path d="M56.0271783,32.2336306 C56.0271783,31.038791 55.1478394,30.1786286 53.9851476,30.1786286 C52.821039,30.1786286 51.9431169,31.038791 51.9431169,32.2336306 C51.9431169,33.4284701 52.821039,34.2900407 53.9851476,34.2900407 C55.1478394,34.2900407 56.0271783,33.4284701 56.0271783,32.2336306 Z M57.4224557,29.0218099 L57.4224557,35.4454513 L56.0271783,35.4454513 L56.0271783,34.520982 C55.5353247,35.2018364 54.7728689,35.6123204 53.7653129,35.6123204 C52.0063991,35.6123204 50.5464227,34.134437 50.5464227,32.2336306 C50.5464227,30.3187424 52.0063991,28.8549407 53.7653129,28.8549407 C54.7728689,28.8549407 55.5353247,29.2654248 56.0271783,29.9336055 L56.0271783,29.0218099 L57.4224557,29.0218099 Z" id="Fill-25" fill="#000000"></path>
                <path d="M64.7140496,32.1692064 C64.7140496,31.0135612 63.8361275,30.1522253 62.659268,30.1522253 C61.4826446,30.1522253 60.6044864,31.0135612 60.6044864,32.1692064 C60.6044864,33.3262598 61.4826446,34.1861875 62.659268,34.1861875 C63.8361275,34.1861875 64.7140496,33.3262598 64.7140496,32.1692064 Z M66.0838253,29.0216925 L66.0838253,35.1500858 C66.0838253,37.2189349 64.4561983,38.1825984 62.7622196,38.1825984 C61.3402597,38.1825984 60.2422668,37.6559396 59.6998819,36.6277345 L60.9020071,35.9344413 C61.185124,36.4862126 61.6644628,36.923452 62.788902,36.923452 C63.9910272,36.923452 64.7140496,36.2677102 64.7140496,35.1500858 L64.7140496,34.3669038 C64.2236128,35.0604318 63.461157,35.4847629 62.4649351,35.4847629 C60.642503,35.4847629 59.2080283,34.0068795 59.2080283,32.1692064 C59.2080283,30.3327068 60.642503,28.8550581 62.4649351,28.8550581 C63.461157,28.8550581 64.2236128,29.2793892 64.7140496,29.9729172 L64.7140496,29.0216925 L66.0838253,29.0216925 Z" id="Fill-27" fill="#000000"></path>
                <path d="M71.6167414,28.9068556 L71.6167414,30.4098515 C70.6993861,30.34531 69.6254782,30.7684677 69.6254782,32.2083303 L69.6254782,35.4454982 L68.2302007,35.4454982 L68.2302007,29.0216221 L69.6254782,29.0216221 L69.6254782,30.1002869 C70.0143802,29.2276856 70.8021015,28.9068556 71.6167414,28.9068556" id="Fill-29" fill="#000000"></path>
                <mask id="mask-6" fill="white">
                    <use xlink:href="#path-5"></use>
                </mask>
                <g id="Clip-32"></g>
                <path d="M73.1683589,35.4454982 L74.5636364,35.4454982 L74.5636364,29.0216221 L73.1683589,29.0216221 L73.1683589,35.4454982 Z M72.9737898,27.1712754 C72.9737898,26.683811 73.3754427,26.2845923 73.8658796,26.2845923 C74.3577332,26.2845923 74.7579693,26.683811 74.7579693,27.1712754 C74.7579693,27.6474745 74.3577332,28.0579586 73.8658796,28.0579586 C73.3754427,28.0579586 72.9737898,27.6474745 72.9737898,27.1712754 Z" id="Fill-31" fill="#000000" mask="url(#mask-6)"></path>
                <path d="M81.3901771,33.6343928 C81.3901771,34.9188863 80.2655018,35.6121796 78.8690437,35.6121796 C77.5767178,35.6121796 76.6466116,35.0336529 76.2322078,34.1091836 L77.4343329,33.4158904 C77.6414168,33.9944171 78.1587721,34.3403596 78.8690437,34.3403596 C79.4891145,34.3403596 79.9682172,34.1345309 79.9682172,33.6217192 C79.9682172,32.4773393 76.4914758,33.1204076 76.4914758,30.8203825 C76.4914758,29.6128694 77.5387013,28.8550346 78.8562928,28.8550346 C79.9160331,28.8550346 80.7953719,29.3424991 81.2477922,30.1913961 L80.0711688,30.845495 C79.8385832,30.3453569 79.3861629,30.1144157 78.8562928,30.1144157 C78.3516883,30.1144157 77.9134357,30.332918 77.9134357,30.7950353 C77.9134357,31.9633542 81.3901771,31.2573873 81.3901771,33.6343928" id="Fill-33" fill="#000000" mask="url(#mask-6)"></path>
                <path d="M82.6049823,32.2336306 C82.6049823,30.3187424 84.0649587,28.8549407 86.0167887,28.8549407 C87.2838489,28.8549407 88.3830224,29.5106826 88.9003778,30.5121322 L87.6982527,31.2054255 C87.4134829,30.6017863 86.7806612,30.2166494 86.0042739,30.2166494 C84.8668477,30.2166494 84.0016765,31.0779853 84.0016765,32.2336306 C84.0016765,33.3892758 84.8668477,34.2506117 86.0042739,34.2506117 C86.7806612,34.2506117 87.4134829,33.8528013 87.7235183,33.2618356 L88.9256434,33.9424553 C88.3830224,34.9565786 87.2838489,35.6123204 86.0167887,35.6123204 C84.0649587,35.6123204 82.6049823,34.134437 82.6049823,32.2336306" id="Fill-34" fill="#000000" mask="url(#mask-6)"></path>
                <path d="M90.4519481,35.4454982 L91.8472255,35.4454982 L91.8472255,29.0216221 L90.4519481,29.0216221 L90.4519481,35.4454982 Z M90.257379,27.1712754 C90.257379,26.683811 90.6590319,26.2845923 91.1494687,26.2845923 C91.6413223,26.2845923 92.0415584,26.683811 92.0415584,27.1712754 C92.0415584,27.6474745 91.6413223,28.0579586 91.1494687,28.0579586 C90.6590319,28.0579586 90.257379,27.6474745 90.257379,27.1712754 Z" id="Fill-35" fill="#000000" mask="url(#mask-6)"></path>
                <path d="M98.8667769,31.6943451 C98.6722078,30.5891596 97.857804,30.1143687 97.0178985,30.1143687 C95.970673,30.1143687 95.2604014,30.7306815 95.0658323,31.6943451 L98.8667769,31.6943451 Z M97.1475325,34.3403127 C97.922503,34.3403127 98.5045573,33.9943701 98.8145927,33.5446918 L99.9645336,34.2128725 C99.3713813,35.0854739 98.4016057,35.6121327 97.1347816,35.6121327 C95.0011334,35.6121327 93.6186068,34.1610046 93.6186068,32.2336775 C93.6186068,30.3328711 95.0011334,28.8549877 97.0304132,28.8549877 C98.9569776,28.8549877 100.275986,30.3957697 100.275986,32.2463511 C100.275986,32.4395063 100.249303,32.6455697 100.223802,32.8246431 L95.0785832,32.8246431 C95.2984179,33.8263275 96.1130579,34.3403127 97.1475325,34.3403127 Z" id="Fill-36" fill="#000000" mask="url(#mask-6)"></path>
                <path d="M107.901724,31.5010491 L107.901724,35.4455921 L106.50503,35.4455921 L106.50503,31.6425711 C106.50503,30.6662339 105.937143,30.152014 105.057804,30.152014 C104.140213,30.152014 103.416009,30.6913464 103.416009,32.0025954 L103.416009,35.4455921 L102.020732,35.4455921 L102.020732,29.021716 L103.416009,29.021716 L103.416009,29.8438576 C103.842928,29.1759116 104.540685,28.8550815 105.420024,28.8550815 C106.867249,28.8550815 107.901724,29.8314187 107.901724,31.5010491" id="Fill-37" fill="#000000" mask="url(#mask-6)"></path>
                <path d="M109.557639,32.2336306 C109.557639,30.3187424 111.017615,28.8549407 112.969445,28.8549407 C114.236505,28.8549407 115.335679,29.5106826 115.853034,30.5121322 L114.650909,31.2054255 C114.366139,30.6017863 113.733318,30.2166494 112.95693,30.2166494 C111.819504,30.2166494 110.954333,31.0779853 110.954333,32.2336306 C110.954333,33.3892758 111.819504,34.2506117 112.95693,34.2506117 C113.733318,34.2506117 114.366139,33.8528013 114.676175,33.2618356 L115.8783,33.9424553 C115.335679,34.9565786 114.236505,35.6123204 112.969445,35.6123204 C111.017615,35.6123204 109.557639,34.134437 109.557639,32.2336306" id="Fill-38" fill="#000000" mask="url(#mask-6)"></path>
                <path d="M122.186281,31.6943451 C121.991712,30.5891596 121.177308,30.1143687 120.337403,30.1143687 C119.290177,30.1143687 118.579906,30.7306815 118.385336,31.6943451 L122.186281,31.6943451 Z M120.467037,34.3403127 C121.242007,34.3403127 121.824061,33.9943701 122.134097,33.5446918 L123.284038,34.2128725 C122.689469,35.0854739 121.72111,35.6121327 120.454286,35.6121327 C118.320638,35.6121327 116.938111,34.1610046 116.938111,32.2336775 C116.938111,30.3328711 118.320638,28.8549877 120.349917,28.8549877 C122.276482,28.8549877 123.59549,30.3957697 123.59549,32.2463511 C123.59549,32.4395063 123.568808,32.6455697 123.543542,32.8246431 L118.398087,32.8246431 C118.617922,33.8263275 119.432562,34.3403127 120.467037,34.3403127 Z" id="Fill-39" fill="#000000" mask="url(#mask-6)"></path>
            </g>
        </g>
    </g>
</svg>