
<svg width="200px" height="40px" viewBox="0 0 200 40" version="1.1" xmlns="http://www.w3.org/2000/svg" xmlns:xlink="http://www.w3.org/1999/xlink">
    <!-- Generator: Sketch 49 (51002) - http://www.bohemiancoding.com/sketch -->
    <desc>Created with Sketch.</desc>
    <defs>
        <polygon id="path-1" points="0 9.34659976 0 0.0429752066 18.60732 0.0429752066 18.60732 18.6502243 0 18.6502243"></polygon>
        <polygon id="path-3" points="39.2051712 39.1971665 0.128902007 39.1971665 0.128902007 0.17201889 39.2051712 0.17201889"></polygon>
        <polygon id="path-5" points="0 39.6264463 199.801417 39.6264463 199.801417 0.236127509 0 0.236127509"></polygon>
    </defs>
    <g id="Symbols" stroke="none" stroke-width="1" fill="none" fill-rule="evenodd">
        <g id="Footer" transform="translate(-208.000000, -99.000000)">
            <g id="Logo">
                <g transform="translate(208.000000, 99.000000)">
                    <g id="Group-3" transform="translate(0.000000, 0.193152)">
                        <mask id="mask-2" fill="white">
                            <use xlink:href="#path-1"></use>
                        </mask>
                        <g id="Clip-2"></g>
                        <path d="M0,18.6502243 L18.60732,0.0429043684 C8.5811098,0.592609209 0.549940968,8.6242503 0,18.6502243" id="Fill-1" fill="#FFFFFF" mask="url(#mask-2)"></path>
                    </g>
                    <g id="Group-6" transform="translate(0.236128, 0.429280)">
                        <mask id="mask-4" fill="white">
                            <use xlink:href="#path-3"></use>
                        </mask>
                        <g id="Clip-5"></g>
                        <path d="M39.2051712,19.5115702 C39.2051712,19.4263282 39.1999764,19.3422668 39.1987957,19.257497 L23.306706,19.257497 L19.7057615,15.6563164 L38.8261865,15.6563164 C38.4743566,13.8799292 37.8816765,12.1909091 37.0878158,10.6208973 L20.0965525,10.6208973 L23.6977332,7.01971665 L34.74732,7.01971665 C33.0802597,4.98311688 31.0131995,3.28842975 28.6672727,2.0501771 C28.6250059,2.02750885 28.5815584,2.00625738 28.5385832,1.98406139 C26.94732,1.15879575 25.2318536,0.539669421 23.4240614,0.17201889 L0.128902007,23.4669421 C0.318984652,24.4003542 0.576599764,25.3087367 0.893010626,26.1894923 C1.20587957,27.0600945 1.57990555,27.9011806 2.00706021,28.7101535 C5.11638725,34.6003542 11.115915,38.7238489 18.1192208,39.1972845 L4.8198111,25.8976387 L7.54094451,23.1767414 L23.2469658,38.8827627 C25.115915,38.5205431 26.8892326,37.8933884 28.5293743,37.0438017 L11.1015112,19.6159386 L13.8226446,16.8945691 L31.8247698,34.8969303 C33.1376387,33.8412043 34.3142621,32.6237308 35.319693,31.2704841 L28.3423613,24.2931523 L38.6186305,24.2931523 C38.9999764,22.7618654 39.2051712,21.1609209 39.2051712,19.5115702" id="Fill-4" fill="#FFFFFF" mask="url(#mask-4)"></path>
                    </g>
                    <path d="M49.7942857,13.3968831 C49.7942857,11.9156553 50.0554427,10.5732704 50.5787013,9.37090909 C51.1014876,8.16831169 51.8160094,7.13997639 52.7222668,6.28590319 C53.6282881,5.43230224 54.6960567,4.77397875 55.9248642,4.31211334 C57.1534357,3.85048406 58.4648878,3.61931523 59.859693,3.61931523 C61.2882645,3.61931523 62.6393861,3.85048406 63.9118772,4.31211334 C65.1838961,4.77397875 66.2471783,5.39711924 67.1010153,6.1812987 L63.2844864,10.7827155 C62.9352538,10.3295868 62.5000708,9.98531287 61.9772845,9.74989374 C61.454026,9.51447462 60.8700826,9.39688312 60.2254545,9.39688312 C59.7026682,9.39688312 59.2145927,9.48850059 58.761464,9.67149941 C58.3080992,9.85449823 57.9118772,10.1203778 57.5718536,10.468902 C57.2320661,10.8178985 56.9661865,11.2400945 56.774451,11.7369067 C56.5822432,12.2334829 56.4868477,12.7872019 56.4868477,13.3968831 C56.4868477,14.0072727 56.5869658,14.5515466 56.7876741,15.0308855 C56.9876741,15.5104604 57.2580401,15.924392 57.5982999,16.2724439 C57.9378512,16.6216765 58.3343093,16.88732 58.7876741,17.0700826 C59.2405667,17.2530815 59.7199055,17.3444628 60.2254545,17.3444628 C60.9399764,17.3444628 61.5543802,17.196647 62.0686659,16.900307 C62.5822432,16.6039669 62.9876741,16.2554427 63.2844864,15.8542621 L67.1010153,20.4297048 C66.2646517,21.2665407 65.2358442,21.9326564 64.0164817,22.4294687 C62.7959386,22.926281 61.4105785,23.1746871 59.859693,23.1746871 C58.4648878,23.1746871 57.1534357,22.9395041 55.9248642,22.4686659 C54.6960567,21.9982999 53.6282881,21.3317119 52.7222668,20.468902 C51.8160094,19.605856 51.1014876,18.5777568 50.5787013,17.3841322 C50.0554427,16.1902715 49.7942857,14.8611098 49.7942857,13.3968831" id="Fill-7" fill="#FFFFFF"></path>
                    <path d="M77.079693,13.2923259 C77.079693,13.9027155 77.1715466,14.4602125 77.3545455,14.9657615 C77.537072,15.4715466 77.7897285,15.9067296 78.1125148,16.2724911 C78.4348288,16.6387249 78.8225502,16.9220779 79.275915,17.1220779 C79.7288076,17.3230224 80.2173554,17.4229044 80.7401417,17.4229044 C81.262928,17.4229044 81.7465171,17.3230224 82.1911452,17.1220779 C82.6353011,16.9220779 83.0230224,16.6387249 83.3545455,16.2724911 C83.685124,15.9067296 83.942503,15.4715466 84.1257379,14.9657615 C84.3087367,14.4602125 84.4001181,13.9027155 84.4001181,13.2923259 C84.4001181,12.7001181 84.3087367,12.1551358 84.1257379,11.6583235 C83.942503,11.1617473 83.685124,10.7433294 83.3545455,10.4035419 C83.0230224,10.0635183 82.6353011,9.79811098 82.1911452,9.60613932 C81.7465171,9.41463991 81.262928,9.31877214 80.7401417,9.31877214 C80.2173554,9.31877214 79.7288076,9.41463991 79.275915,9.60613932 C78.8225502,9.79811098 78.4348288,10.0635183 78.1125148,10.4035419 C77.7897285,10.7433294 77.537072,11.1617473 77.3545455,11.6583235 C77.1715466,12.1551358 77.079693,12.7001181 77.079693,13.2923259 M70.4655254,13.2923259 C70.4655254,11.811098 70.7269185,10.4734357 71.249941,9.27933884 C71.7727273,8.08571429 72.4914994,7.07012987 73.4064935,6.23353011 C74.3219599,5.39716647 75.4067296,4.75230224 76.6615112,4.29893743 C77.9165289,3.84604486 79.275915,3.61936246 80.7401417,3.61936246 C82.2038961,3.61936246 83.5635183,3.84604486 84.8182999,4.29893743 C86.0733176,4.75230224 87.1623377,5.39716647 88.0865407,6.23353011 C89.0097993,7.07012987 89.733294,8.08571429 90.2560803,9.27933884 C90.7788666,10.4734357 91.0404959,11.811098 91.0404959,13.2923259 C91.0404959,14.774026 90.7788666,16.1249115 90.2560803,17.34451 C89.733294,18.564817 89.0097993,19.6059032 88.0865407,20.4689492 C87.1623377,21.3317591 86.0733176,21.9983471 84.8182999,22.4687131 C83.5635183,22.9395514 82.2038961,23.1744982 80.7401417,23.1744982 C79.275915,23.1744982 77.9165289,22.9395514 76.6615112,22.4687131 C75.4067296,21.9983471 74.3219599,21.3317591 73.4064935,20.4689492 C72.4914994,19.6059032 71.7727273,18.564817 71.249941,17.34451 C70.7269185,16.1249115 70.4655254,14.774026 70.4655254,13.2923259" id="Fill-9" fill="#FFFFFF"></path>
                    <path d="M101.758442,11.9591027 L102.97804,11.9591027 C103.185596,11.9591027 103.414876,11.9418654 103.665407,11.9069185 C103.916175,11.8722078 104.149705,11.7980638 104.365762,11.6847226 C104.581582,11.5713813 104.7634,11.4145927 104.910508,11.2138843 C105.057615,11.0138843 105.131287,10.7480047 105.131287,10.4164817 C105.131287,10.0856671 105.070366,9.82427391 104.949233,9.63230224 C104.828335,9.44080283 104.672963,9.29700118 104.482409,9.20089728 C104.292326,9.10550177 104.08477,9.04410862 103.859976,9.01813459 C103.635183,8.99168831 103.427627,8.9787013 103.237544,8.9787013 L101.758442,8.9787013 L101.758442,11.9591027 Z M95.7716647,4.14210153 L103.745455,4.14210153 C104.651712,4.14210153 105.553483,4.23371901 106.451712,4.41671783 C107.34876,4.59971665 108.150649,4.92250295 108.856434,5.38413223 C109.56222,5.84599764 110.133176,6.46488784 110.569067,7.24009445 C111.00425,8.01577332 111.222432,8.98767414 111.222432,10.1550885 C111.222432,11.2882645 110.944274,12.2859032 110.387957,13.1487131 C109.831877,14.011523 109.032113,14.678111 107.989847,15.1482409 L112.686659,22.6519008 L105.539079,22.6519008 L101.993625,16.0377332 L101.810862,16.0377332 L101.810862,22.6519008 L95.7716647,22.6519008 L95.7716647,4.14210153 Z" id="Fill-11" fill="#FFFFFF"></path>
                    <polygon id="Fill-13" fill="#FFFFFF" points="127.034427 22.6518064 120.812231 22.6518064 120.812231 9.39702479 116.263235 9.39702479 116.263235 4.14224321 131.583424 4.14224321 131.583424 9.39702479 127.034427 9.39702479"></polygon>
                    <polygon id="Fill-15" fill="#FFFFFF" points="137.17294 4.14219599 149.904699 4.14219599 149.904699 9.31858323 143.029138 9.31858323 143.029138 10.9133884 149.486517 10.9133884 149.486517 15.7499882 143.029138 15.7499882 143.029138 17.4751358 150.349327 17.4751358 150.349327 22.6517591 137.17294 22.6517591"></polygon>
                    <polygon id="Fill-17" fill="#FFFFFF" points="154.475183 4.14219599 161.508005 4.14219599 164.566564 15.5929634 164.671169 15.5929634 167.59915 4.14219599 174.631972 4.14219599 167.938937 22.6517591 161.037166 22.6517591"></polygon>
                    <path d="M185.339362,10.5996222 L183.822952,15.1748288 L186.829563,15.1748288 L185.339362,10.5996222 Z M182.123542,4.14224321 L188.738182,4.14224321 L195.95353,22.6518064 L189.182338,22.6518064 L188.215396,19.9327981 L182.332751,19.9327981 L181.417757,22.6518064 L174.829799,22.6518064 L182.123542,4.14224321 Z" id="Fill-19" fill="#FFFFFF"></path>
                    <polygon id="Fill-21" fill="#FFFFFF" points="195.229563 4.7136954 195.229563 6.91345927 194.560142 6.91345927 194.560142 4.7136954 193.777379 4.7136954 193.777379 4.14226682 196.012326 4.14226682 196.012326 4.7136954"></polygon>
                    <polygon id="Fill-23" fill="#FFFFFF" points="199.143754 6.91345927 199.159339 4.95242031 199.147769 4.95242031 198.427344 6.91345927 197.957686 6.91345927 197.257096 4.95242031 197.245289 4.95242031 197.26111 6.91345927 196.630885 6.91345927 196.630885 4.14226682 197.583188 4.14226682 198.21412 5.91936246 198.229705 5.91936246 198.833247 4.14226682 199.80137 4.14226682 199.80137 6.91345927"></polygon>
                    <path d="M56.0271783,32.4301771 C56.0271783,31.2280519 55.1478394,30.3626446 53.9851476,30.3626446 C52.821039,30.3626446 51.9431169,31.2280519 51.9431169,32.4301771 C51.9431169,33.6323022 52.821039,34.4991263 53.9851476,34.4991263 C55.1478394,34.4991263 56.0271783,33.6323022 56.0271783,32.4301771 Z M57.4224557,29.1987721 L57.4224557,35.6615821 L56.0271783,35.6615821 L56.0271783,34.7314758 C55.5353247,35.4164817 54.7728689,35.8294687 53.7653129,35.8294687 C52.0063991,35.8294687 50.5464227,34.3425738 50.5464227,32.4301771 C50.5464227,30.5036128 52.0063991,29.0308855 53.7653129,29.0308855 C54.7728689,29.0308855 55.5353247,29.4438725 56.0271783,30.1161275 L56.0271783,29.1987721 L57.4224557,29.1987721 Z" id="Fill-25" fill="#FFFFFF"></path>
                    <path d="M64.7140496,32.3653601 C64.7140496,31.2026682 63.8361275,30.3360803 62.659268,30.3360803 C61.4826446,30.3360803 60.6044864,31.2026682 60.6044864,32.3653601 C60.6044864,33.5294687 61.4826446,34.3946399 62.659268,34.3946399 C63.8361275,34.3946399 64.7140496,33.5294687 64.7140496,32.3653601 Z M66.0838253,29.1986541 L66.0838253,35.3644156 C66.0838253,37.4458796 64.4561983,38.4154191 62.7622196,38.4154191 C61.3402597,38.4154191 60.2422668,37.885549 59.6998819,36.8510744 L60.9020071,36.1535537 C61.185124,36.7086895 61.6644628,37.148595 62.788902,37.148595 C63.9910272,37.148595 64.7140496,36.4888548 64.7140496,35.3644156 L64.7140496,34.5764581 C64.2236128,35.2742149 63.461157,35.7011334 62.4649351,35.7011334 C60.642503,35.7011334 59.2080283,34.2142385 59.2080283,32.3653601 C59.2080283,30.5176623 60.642503,29.0310035 62.4649351,29.0310035 C63.461157,29.0310035 64.2236128,29.4579221 64.7140496,30.1556789 L64.7140496,29.1986541 L66.0838253,29.1986541 Z" id="Fill-27" fill="#FFFFFF"></path>
                    <path d="M71.6167414,29.0831169 L71.6167414,30.5952774 C70.6993861,30.5303424 69.6254782,30.9560803 69.6254782,32.4047226 L69.6254782,35.6616293 L68.2302007,35.6616293 L68.2302007,29.1985832 L69.6254782,29.1985832 L69.6254782,30.2838253 C70.0143802,29.4059032 70.8021015,29.0831169 71.6167414,29.0831169" id="Fill-29" fill="#FFFFFF"></path>
                    <mask id="mask-6" fill="white">
                        <use xlink:href="#path-5"></use>
                    </mask>
                    <g id="Clip-32"></g>
                    <path d="M73.1683589,35.6616293 L74.5636364,35.6616293 L74.5636364,29.1985832 L73.1683589,29.1985832 L73.1683589,35.6616293 Z M72.9737898,27.336954 C72.9737898,26.8465171 73.3754427,26.4448642 73.8658796,26.4448642 C74.3577332,26.4448642 74.7579693,26.8465171 74.7579693,27.336954 C74.7579693,27.8160567 74.3577332,28.2290437 73.8658796,28.2290437 C73.3754427,28.2290437 72.9737898,27.8160567 72.9737898,27.336954 Z" id="Fill-31" fill="#FFFFFF" mask="url(#mask-6)"></path>
                    <path d="M81.3901771,33.8394805 C81.3901771,35.1318064 80.2655018,35.829327 78.8690437,35.829327 C77.5767178,35.829327 76.6466116,35.2472727 76.2322078,34.3171665 L77.4343329,33.6196458 C77.6414168,34.2017001 78.1587721,34.5497521 78.8690437,34.5497521 C79.4891145,34.5497521 79.9682172,34.3426682 79.9682172,33.8267296 C79.9682172,32.6753719 76.4914758,33.3223613 76.4914758,31.0083117 C76.4914758,29.7934357 77.5387013,29.0309799 78.8562928,29.0309799 C79.9160331,29.0309799 80.7953719,29.5214168 81.2477922,30.37549 L80.0711688,31.0335773 C79.8385832,30.5303896 79.3861629,30.2980401 78.8562928,30.2980401 C78.3516883,30.2980401 77.9134357,30.5178749 77.9134357,30.9828099 C77.9134357,32.1582527 81.3901771,31.4479811 81.3901771,33.8394805" id="Fill-33" fill="#FFFFFF" mask="url(#mask-6)"></path>
                    <path d="M82.6049823,32.4301771 C82.6049823,30.5036128 84.0649587,29.0308855 86.0167887,29.0308855 C87.2838489,29.0308855 88.3830224,29.6906257 88.9003778,30.6981818 L87.6982527,31.3957025 C87.4134829,30.7883825 86.7806612,30.4008973 86.0042739,30.4008973 C84.8668477,30.4008973 84.0016765,31.2674852 84.0016765,32.4301771 C84.0016765,33.5928689 84.8668477,34.4594569 86.0042739,34.4594569 C86.7806612,34.4594569 87.4134829,34.0592208 87.7235183,33.4646517 L88.9256434,34.1494215 C88.3830224,35.1697285 87.2838489,35.8294687 86.0167887,35.8294687 C84.0649587,35.8294687 82.6049823,34.3425738 82.6049823,32.4301771" id="Fill-34" fill="#FFFFFF" mask="url(#mask-6)"></path>
                    <path d="M90.4519481,35.6616293 L91.8472255,35.6616293 L91.8472255,29.1985832 L90.4519481,29.1985832 L90.4519481,35.6616293 Z M90.257379,27.336954 C90.257379,26.8465171 90.6590319,26.4448642 91.1494687,26.4448642 C91.6413223,26.4448642 92.0415584,26.8465171 92.0415584,27.336954 C92.0415584,27.8160567 91.6413223,28.2290437 91.1494687,28.2290437 C90.6590319,28.2290437 90.257379,27.8160567 90.257379,27.336954 Z" id="Fill-35" fill="#FFFFFF" mask="url(#mask-6)"></path>
                    <path d="M98.8667769,31.8876033 C98.6722078,30.7756789 97.857804,30.2979929 97.0178985,30.2979929 C95.970673,30.2979929 95.2604014,30.9180638 95.0658323,31.8876033 L98.8667769,31.8876033 Z M97.1475325,34.5497048 C97.922503,34.5497048 98.5045573,34.2016529 98.8145927,33.7492326 L99.9645336,34.4214876 C99.3713813,35.2994097 98.4016057,35.8292798 97.1347816,35.8292798 C95.0011334,35.8292798 93.6186068,34.3693034 93.6186068,32.4302243 C93.6186068,30.5178276 95.0011334,29.0309327 97.0304132,29.0309327 C98.9569776,29.0309327 100.275986,30.5811098 100.275986,32.4429752 C100.275986,32.6373081 100.249303,32.8446281 100.223802,33.0247934 L95.0785832,33.0247934 C95.2984179,34.0325856 96.1130579,34.5497048 97.1475325,34.5497048 Z" id="Fill-36" fill="#FFFFFF" mask="url(#mask-6)"></path>
                    <path d="M107.901724,31.6931287 L107.901724,35.6617237 L106.50503,35.6617237 L106.50503,31.8355136 C106.50503,30.8532231 105.937143,30.3358678 105.057804,30.3358678 C104.140213,30.3358678 103.416009,30.8784888 103.416009,32.1977332 L103.416009,35.6617237 L102.020732,35.6617237 L102.020732,29.1986777 L103.416009,29.1986777 L103.416009,30.0258323 C103.842928,29.3538135 104.540685,29.0310272 105.420024,29.0310272 C106.867249,29.0310272 107.901724,30.0133176 107.901724,31.6931287" id="Fill-37" fill="#FFFFFF" mask="url(#mask-6)"></path>
                    <path d="M109.557639,32.4301771 C109.557639,30.5036128 111.017615,29.0308855 112.969445,29.0308855 C114.236505,29.0308855 115.335679,29.6906257 115.853034,30.6981818 L114.650909,31.3957025 C114.366139,30.7883825 113.733318,30.4008973 112.95693,30.4008973 C111.819504,30.4008973 110.954333,31.2674852 110.954333,32.4301771 C110.954333,33.5928689 111.819504,34.4594569 112.95693,34.4594569 C113.733318,34.4594569 114.366139,34.0592208 114.676175,33.4646517 L115.8783,34.1494215 C115.335679,35.1697285 114.236505,35.8294687 112.969445,35.8294687 C111.017615,35.8294687 109.557639,34.3425738 109.557639,32.4301771" id="Fill-38" fill="#FFFFFF" mask="url(#mask-6)"></path>
                    <path d="M122.186281,31.8876033 C121.991712,30.7756789 121.177308,30.2979929 120.337403,30.2979929 C119.290177,30.2979929 118.579906,30.9180638 118.385336,31.8876033 L122.186281,31.8876033 Z M120.467037,34.5497048 C121.242007,34.5497048 121.824061,34.2016529 122.134097,33.7492326 L123.284038,34.4214876 C122.689469,35.2994097 121.72111,35.8292798 120.454286,35.8292798 C118.320638,35.8292798 116.938111,34.3693034 116.938111,32.4302243 C116.938111,30.5178276 118.320638,29.0309327 120.349917,29.0309327 C122.276482,29.0309327 123.59549,30.5811098 123.59549,32.4429752 C123.59549,32.6373081 123.568808,32.8446281 123.543542,33.0247934 L118.398087,33.0247934 C118.617922,34.0325856 119.432562,34.5497048 120.467037,34.5497048 Z" id="Fill-39" fill="#FFFFFF" mask="url(#mask-6)"></path>
                </g>
            </g>
        </g>
    </g>
</svg>