<?xml version="1.0" encoding="utf-8"?>
<!-- Generator: Adobe Illustrator 15.1.0, SVG Export Plug-In . SVG Version: 6.00 Build 0)  -->
<!DOCTYPE svg PUBLIC "-//W3C//DTD SVG 1.1//EN" "http://www.w3.org/Graphics/SVG/1.1/DTD/svg11.dtd" [
	<!ENTITY ns_extend "http://ns.adobe.com/Extensibility/1.0/">
	<!ENTITY ns_ai "http://ns.adobe.com/AdobeIllustrator/10.0/">
	<!ENTITY ns_graphs "http://ns.adobe.com/Graphs/1.0/">
	<!ENTITY ns_vars "http://ns.adobe.com/Variables/1.0/">
	<!ENTITY ns_imrep "http://ns.adobe.com/ImageReplacement/1.0/">
	<!ENTITY ns_sfw "http://ns.adobe.com/SaveForWeb/1.0/">
	<!ENTITY ns_custom "http://ns.adobe.com/GenericCustomNamespace/1.0/">
	<!ENTITY ns_adobe_xpath "http://ns.adobe.com/XPath/1.0/">
]>
<svg version="1.1" id="Layer_1" xmlns:x="&ns_extend;" xmlns:i="&ns_ai;" xmlns:graph="&ns_graphs;"
	 xmlns="http://www.w3.org/2000/svg" xmlns:xlink="http://www.w3.org/1999/xlink" x="0px" y="0px" width="100px" height="34.423px"
	 viewBox="0 0 100 34.423" enable-background="new 0 0 100 34.423" xml:space="preserve">
<metadata>
	<sfw  xmlns="&ns_sfw;">
		<slices></slices>
		<sliceSourceBounds  height="34.423" width="100" y="-89.87" x="61.612" bottomLeftOrigin="true"></sliceSourceBounds>
	</sfw>
</metadata>
<path fill="#EF3E42" d="M74.791,29.759c0-1.241,0.936-2.179,2.139-2.179c1.189,0,2.127,0.938,2.127,2.179
	c0,1.266-0.938,2.194-2.127,2.194C75.727,31.954,74.791,31.025,74.791,29.759 M76.93,32.392c1.432,0,2.655-1.111,2.655-2.633
	c0-1.506-1.224-2.618-2.655-2.618c-1.445,0-2.667,1.112-2.667,2.618C74.263,31.281,75.484,32.392,76.93,32.392z M76.376,29.969
	h0.527l0.798,1.312h0.516l-0.864-1.333c0.447-0.055,0.787-0.292,0.787-0.832c0-0.598-0.354-0.862-1.071-0.862h-1.152v3.027h0.46
	V29.969z M76.376,29.58v-0.938h0.625c0.318,0,0.659,0.071,0.659,0.446c0,0.465-0.348,0.492-0.737,0.492H76.376z"/>
<path fill="#EF3E42" d="M34.39,12.964c-2.36,0-5.383,0-5.383,0v7.823c0,0,3.006,0,5.383,0c1.336,0,3.02-1.288,3.015-3.801
	C37.401,14.377,35.446,12.964,34.39,12.964"/>
<path fill="#EF3E42" d="M49.781,14.87c-2.476,0-4.087,1.545-4.087,3.461c0,1.912,1.611,3.461,4.087,3.461
	c2.477,0,4.086-1.549,4.086-3.461C53.867,16.416,52.258,14.87,49.781,14.87"/>
<path fill="#EF3E42" d="M49.664,0L0,16.873l49.664,17.551L100,16.987L49.664,0 M34.679,23.811c-2.381,0-10.288,0-10.288,0v-0.744
	c0.789-0.009,1.428-0.219,1.428-0.483h0.039v-11.34c0.003-0.012,0.015-0.018,0.015-0.023c0-0.013-0.012-0.02-0.015-0.031v-0.019
	h-0.01c-0.077-0.244-0.683-0.439-1.444-0.439c-0.007,0-0.01,0-0.013,0v-0.667c0,0,7.926,0,10.288,0c2.609,0,5.643,3.243,5.643,6.98
	C40.322,21.086,36.894,23.811,34.679,23.811z M49.77,24.348c-4.382,0-7.26-2.397-7.26-6.182c0-3.401,2.851-6.177,7.26-6.177
	c4.384,0,7.258,2.766,7.258,6.177C57.028,21.951,54.154,24.348,49.77,24.348z M78.271,13.57c-0.306,0.063-0.51,0.212-0.63,0.377
	c-0.008,0.009-3.922,8.766-3.922,8.766c-0.013,0.356-0.006,0.531,0.816,0.531v0.767l-5.416,0.041V23.27
	c0.525,0,0.67-0.149,0.67-0.57c0-0.168-1.888-4.992-1.888-4.992l-2.209,4.814c-0.053,0.058-0.064,0.12-0.064,0.19
	c0,0.442,0.23,0.558,0.847,0.558c0,0,0,0,0.003,0v0.781l-5.842-0.022v-0.788c0.477-0.012,0.881-0.093,0.881-0.559
	c0-0.094,0-0.178-0.032-0.259l-3.257-8.422c0-0.004,0.011-0.011,0.007-0.015c-0.144-0.264-0.089-0.456-0.935-0.456v-0.804h5.346
	v0.804c-0.415,0-0.685,0.035-0.685,0.456h-0.027l1.823,5.377l2.243-6.282h1.901l1.811-0.01l2.424,6.55l2.14-5.611
	c0-0.245-0.089-0.445-0.764-0.457c-0.02-0.002-0.15-0.002-0.178-0.002v-0.829l5.487-0.022v0.854
	C78.822,13.553,78.372,13.551,78.271,13.57z"/>
<g>
	<path fill="#FFFFFF" d="M25.858,22.61h-0.039c0,0.265-0.639,0.475-1.428,0.483v0.744c0,0,7.907,0,10.288,0
		c2.215,0,5.643-2.725,5.643-6.767c0-3.737-3.034-6.98-5.643-6.98c-2.361,0-10.288,0-10.288,0v0.667c0.003,0,0.006,0,0.013,0
		c0.761,0,1.367,0.195,1.444,0.439h0.01v0.019c0.003,0.011,0.015,0.018,0.015,0.031c0,0.005-0.012,0.011-0.015,0.023V22.61z
		 M29.007,12.991c0,0,3.023,0,5.383,0c1.056,0,3.011,1.413,3.015,4.022c0.004,2.513-1.679,3.801-3.015,3.801
		c-2.377,0-5.383,0-5.383,0V12.991z"/>
	<path fill="#FFFFFF" d="M57.028,18.193c0-3.411-2.875-6.177-7.258-6.177c-4.409,0-7.26,2.776-7.26,6.177
		c0,3.509,2.477,5.821,6.33,6.14h1.861C54.554,24.014,57.028,21.702,57.028,18.193z M45.694,18.358c0-1.916,1.611-3.461,4.087-3.461
		c2.478,0,4.086,1.545,4.086,3.461c0,1.912-1.608,3.461-4.086,3.461C47.306,21.819,45.694,20.27,45.694,18.358z"/>
	<path fill="#FFFFFF" d="M73.72,22.739c0,0,3.914-8.757,3.922-8.766c0.12-0.165,0.324-0.313,0.63-0.377
		c0.101-0.019,0.551-0.017,0.551-0.017v-0.854l-5.487,0.022v0.829c0.027,0,0.158,0,0.178,0.002c0.675,0.012,0.764,0.212,0.764,0.457
		l-2.14,5.611l-2.424-6.55l-1.811,0.01h-1.901l-2.243,6.282l-1.823-5.377h0.027c0-0.421,0.27-0.456,0.685-0.456v-0.804h-5.346v0.804
		c0.846,0,0.791,0.192,0.935,0.456c0.004,0.004-0.007,0.011-0.007,0.015l3.257,8.422c0.032,0.081,0.032,0.165,0.032,0.259
		c0,0.466-0.403,0.547-0.881,0.559v0.788l5.842,0.022v-0.781c-0.003,0-0.003,0-0.003,0c-0.616,0-0.847-0.115-0.847-0.558
		c0-0.07,0.012-0.133,0.064-0.19l2.209-4.814c0,0,1.888,4.824,1.888,4.992c0,0.421-0.145,0.57-0.67,0.57v0.781l5.416-0.041V23.27
		C73.714,23.27,73.707,23.095,73.72,22.739z"/>
</g>
</svg>
