<svg xmlns="http://www.w3.org/2000/svg" xmlns:xlink="http://www.w3.org/1999/xlink" width="20" height="15" viewBox="0 0 20 15">
  <defs>
    <rect id="flag-middle1-a" width="20" height="15"/>
  </defs>
  <g fill="none" fill-rule="evenodd">
    <mask id="flag-middle1-b" fill="#fff">
      <use xlink:href="#flag-middle1-a"/>
    </mask>
    <use fill="#FFF" xlink:href="#flag-middle1-a"/>
    <polygon fill="#FFF" fill-rule="nonzero" points="19.983 13.97 .025 13.97 .025 0 19.983 0" mask="url(#flag-middle1-b)"/>
    <path fill="#00C" fill-rule="nonzero" d="M19.9827054,3.14415675 L0.0249637155,3.14415675 L0.0249637155,1.3098061 L19.9827054,1.3098061 L19.9827054,3.14415675 Z M19.9827054,12.706508 L0.0249637155,12.706508 L0.0249637155,10.8721573 L19.9827054,10.8721573 L19.9827054,12.706508 Z M6.80360522,5.20560813 L9.80833091,10.4319536 L12.8777242,5.22716401 L6.80360522,5.20560813 Z" mask="url(#flag-middle1-b)"/>
    <polygon fill="#FFF" fill-rule="nonzero" points="9.241 8.672 9.812 9.641 10.396 8.676 9.241 8.672" mask="url(#flag-middle1-b)"/>
    <polygon fill="#00C" fill-rule="nonzero" points="6.792 8.747 9.797 3.521 12.867 8.726" mask="url(#flag-middle1-b)"/>
    <path fill="#FFF" fill-rule="nonzero" d="M9.24078374,5.22825544 L9.8124238,4.25944151 L10.3963425,5.2242717 L9.24078374,5.22822816 L9.24078374,5.22825544 Z M8.0462061,7.39748621 L7.45573875,8.37928824 L8.57173295,8.37582293 L8.0462061,7.39748621 L8.0462061,7.39748621 Z M7.46583454,5.58297242 L8.59069666,5.59088534 L8.04950769,6.58027286 L7.46586183,5.58297242 L7.46583454,5.58297242 Z M11.5925573,7.40867344 L12.1609231,8.37939739 L11.0228273,8.36485399 L11.5925573,7.40867344 Z M12.1505544,5.58297242 L11.0256923,5.59088534 L11.5669086,6.58027286 L12.1505544,5.58297242 L12.1505544,5.58297242 Z M9.03259216,5.58188099 L8.2578357,6.98751524 L9.04367025,8.35991524 L10.4824569,8.39312221 L11.356807,6.98748795 L10.5488708,5.5708029 L9.03253759,5.5818537 L9.03259216,5.58188099 Z" mask="url(#flag-middle1-b)"/>
  </g>
</svg>
