<svg xmlns="http://www.w3.org/2000/svg" xmlns:xlink="http://www.w3.org/1999/xlink" width="20" height="15" viewBox="0 0 20 15">
  <defs>
    <rect id="flag-middle4-a" width="20" height="15"/>
  </defs>
  <g fill="none" fill-rule="evenodd">
    <mask id="flag-middle4-b" fill="#fff">
      <use xlink:href="#flag-middle4-a"/>
    </mask>
    <use fill="#D8D8D8" xlink:href="#flag-middle4-a"/>
    <g mask="url(#flag-middle4-b)">
      <g transform="translate(-1)">
        <polygon fill="#199D00" fill-rule="nonzero" points="0 0 22 0 22 15 0 15"/>
        <path fill="#FFF" fill-rule="nonzero" d="M5.54411458,4.25185547 C5.51870573,4.60227539 5.48825521,5.21897461 5.77938281,5.28222656 C6.13152604,5.31685547 5.93733594,4.67267578 6.0648099,4.55586914 C6.08890104,4.4981543 6.13333073,4.49786133 6.1369974,4.57066406 L6.1369974,5.11705078 C6.13378906,5.29476562 6.248,5.34708984 6.33671615,5.38379883 C6.42907031,5.37650391 6.49071615,5.37966797 6.52689583,5.47154297 L6.57020833,6.41668945 C6.57020833,6.41668945 6.78436458,6.47938477 6.7945625,5.88506836 C6.80478906,5.53614258 6.72638542,5.24405273 6.77236198,5.17614258 C6.77396615,5.10943359 6.85726823,5.10544922 6.91501823,5.13796875 C7.00708594,5.20435547 7.04807813,5.28635742 7.19113542,5.25357422 C7.40878646,5.19222656 7.53964063,5.08394531 7.54284896,4.91302734 C7.53013021,4.75057617 7.5123125,4.588125 7.44350521,4.42567383 C7.45310156,4.39611328 7.40148177,4.31958984 7.41104948,4.2900293 C7.45017969,4.35269531 7.50970573,4.34748047 7.52322656,4.2900293 C7.4861875,4.16519531 7.42869531,4.04557617 7.33551042,3.9937793 C7.25851042,3.9244043 7.14578906,3.93858398 7.10451042,4.08331055 C7.08540365,4.25006836 7.16329167,4.44820312 7.28202865,4.6097168 C7.30723698,4.67282227 7.34267188,4.77767578 7.32708854,4.87209961 C7.26392448,4.90898437 7.20073177,4.89360352 7.14779427,4.83644531 C7.14779427,4.83644531 6.97454427,4.70355469 6.97454427,4.67402344 C7.02052083,4.37296875 6.98474219,4.33883789 6.95927604,4.2552832 C6.94145833,4.13994141 6.88794792,4.10296875 6.84460677,4.02418945 C6.80126563,3.97719727 6.7426276,3.97719727 6.71461198,4.02418945 C6.63801302,4.15998047 6.67373438,4.45142578 6.72904948,4.58200195 C6.76903906,4.70206055 6.83011198,4.77741211 6.80123698,4.77741211 C6.77748958,4.84526367 6.72836198,4.82958984 6.69261198,4.7512793 C6.6415651,4.58941406 6.63133854,4.34789062 6.63133854,4.23916992 C6.61604167,4.10431641 6.59919792,3.81670898 6.51242969,3.74364258 C6.45949219,3.66993164 6.38103125,3.70587891 6.35361719,3.77317383 C6.34791667,3.90700195 6.3473151,4.04080078 6.36206771,4.16414062 C6.4215651,4.38043945 6.44027083,4.57066406 6.46914583,4.79217773 C6.47716667,5.08889648 6.30139583,4.9209082 6.30941667,4.77380859 C6.34995052,4.58273437 6.3394375,4.28197266 6.30340104,4.20574219 C6.27486979,4.12951172 6.24115365,4.11070312 6.17171615,4.12324219 C6.11657292,4.11981445 5.9746901,4.27825195 5.93484375,4.54107422 C5.93484375,4.54107422 5.90086979,4.67636719 5.88640365,4.79648437 C5.86692448,4.9322168 5.77955469,5.02801758 5.7182526,4.77738281 C5.6653151,4.59524414 5.63277344,4.14679687 5.54408594,4.25182617 L5.54411458,4.25185547 Z"/>
        <path fill="#FFF" fill-rule="nonzero" d="M6.501,5.68974609 C6.19025,5.84510742 5.88972656,5.99003906 5.58404688,6.14018555 C5.59521875,5.92760742 6.02000781,5.54387695 6.30967448,5.53848633 C6.49822135,5.54387695 6.45084115,5.61319336 6.501,5.68977539 L6.501,5.68974609 Z"/>
        <path fill="#FFF" fill-rule="nonzero" d="M6.3408125,5.98359375 C5.85755729,7.25762695 7.47246615,7.43513672 7.6529349,6.03577148 C7.66992188,5.97834961 7.73801302,5.92092773 7.74992969,6.01488281 C7.71248958,7.28191406 6.50079948,7.36898437 6.29489323,6.97037109 C6.243875,6.87641602 6.22852083,6.66755859 6.22342188,6.54222656 C6.19277083,6.29337891 6.06518229,6.3890918 6.04475781,6.63621094 C6.02430469,6.77370117 6.02943229,6.81205078 6.02943229,6.94429687 C6.09408594,7.94504883 7.65468229,7.51517578 7.90822656,6.68844727 C8.04266146,6.23068359 7.88608333,5.89306641 7.95924479,5.89479492 C8.11413281,6.06536133 8.33020833,5.91741211 8.377875,5.85823242 C8.39832813,5.82864258 8.44940365,5.80954102 8.485125,5.84780273 C8.60592448,5.93663086 8.81870573,5.89476562 8.8629349,5.73814453 C8.88848698,5.58498047 8.90891146,5.42660156 8.91401042,5.26303711 C8.81526823,5.29438477 8.74213542,5.31521484 8.73531771,5.35702148 L8.71489323,5.49275391 C8.70641406,5.53628906 8.62125,5.53798828 8.61789844,5.48229492 C8.58045833,5.30824219 8.42559896,5.285625 8.33198438,5.55541992 C8.26899219,5.60762695 8.15501042,5.61808594 8.1430651,5.53977539 C8.15836198,5.35875 8.08689063,5.334375 7.94397656,5.4196582 C7.898,5.06112305 7.85208073,4.71829102 7.80610417,4.35972656 C7.8656875,4.35796875 7.92017188,4.40320312 7.97465625,4.33359375 C7.91501563,4.14392578 7.78911719,3.75577148 7.71930729,3.72791016 C7.68527604,3.68616211 7.65628646,3.71226562 7.61211458,3.72269531 C7.53723438,3.74707031 7.46745313,3.81322266 7.48953906,3.94201172 C7.57805469,4.49197266 7.63591927,4.91144531 7.7244349,5.46143555 C7.73801302,5.52583008 7.68527604,5.61105469 7.61721354,5.60235352 C7.50148438,5.52231445 7.47263802,5.36047852 7.27518229,5.36739258 C7.13221094,5.36915039 6.96878646,5.5275293 6.94841927,5.68075195 C6.92458594,5.80250977 6.91604948,5.93475586 6.94836198,6.04098633 C7.04882292,6.16453125 7.16965104,6.15240234 7.27515365,6.12454102 C7.36195052,6.08800781 7.43339323,5.99923828 7.46404427,6.02009766 C7.4844974,6.04623047 7.46911458,6.33855469 7.05558333,6.56311523 C6.80544792,6.67795898 6.60630208,6.70412109 6.49913802,6.49523437 C6.43276563,6.3646875 6.50423698,5.86866211 6.3408125,5.98356445 L6.3408125,5.98359375 Z"/>
        <path fill="#FFF" fill-rule="nonzero" d="M8.39065104,4.68837891 C8.48764583,4.65181641 8.94721094,4.11404297 8.94721094,4.11404297 C8.92334896,4.0931543 8.9020651,4.07748047 8.87823177,4.0565918 C8.85267969,4.03397461 8.85525781,4.01135742 8.87823177,3.98871094 C8.99224219,3.92085937 8.95566146,3.77203125 8.89610677,3.70417969 C8.79739323,3.65888672 8.71145573,3.67371094 8.64846354,3.70675781 C8.56848438,3.78509766 8.54980729,3.91037109 8.61279948,3.98871094 C8.67410156,4.01830078 8.73531771,4.0818457 8.6944401,4.11665039 C8.5064375,4.32202148 7.99161458,4.6762207 8.05119792,4.68837891 C8.06391667,4.70578125 8.38048177,4.70490234 8.39065104,4.68837891 L8.39065104,4.68837891 Z M5.61561458,6.59179687 C5.44328125,6.87257812 5.42827083,7.29208008 5.523375,7.41714844 C5.57390625,7.47624023 5.65692188,7.50210937 5.71833854,7.48362305 C5.82661979,7.43557617 5.874,7.2112207 5.84830469,7.12913086 C5.81215365,7.07129883 5.78370833,7.06212891 5.74761458,7.11134766 C5.67141667,7.26955078 5.63979167,7.16100586 5.63311719,7.07258789 C5.62142969,6.90492187 5.63686979,6.75049805 5.65465885,6.62821289 C5.6736224,6.50288086 5.6543724,6.54120117 5.61561458,6.59179687 Z M12.98,6.14208984 C12.8133672,5.77526367 12.5826823,5.41277344 12.5092917,5.27352539 C12.435901,5.13421875 11.8818047,4.31179687 11.80025,4.21930664 C11.6202396,4.00054687 12.0925521,4.31041992 11.7404948,3.87606445 C11.6062604,3.75829102 11.5984688,3.75111328 11.4870651,3.65501953 C11.430862,3.61423828 11.2936484,3.53973633 11.2693568,3.66322266 C11.257125,3.77211914 11.2637135,3.83115234 11.2815885,3.92182617 C11.2953385,3.98226562 11.3814193,4.08348633 11.4237578,4.14213867 C11.9859323,4.91499023 12.4844271,5.69545898 12.9651328,6.67675781 C13.0410443,6.63984375 13.0244297,6.2034668 12.9800286,6.14208984 L12.98,6.14208984 Z"/>
        <path fill="#FFF" fill-rule="nonzero" d="M12.2486719,7.36933594 C12.215901,7.40695312 12.3295677,7.56785156 12.4772656,7.56767578 C12.7243073,7.53837891 12.9417578,7.39646484 13.1431094,7.02290039 C13.1969635,6.93577148 13.2916094,6.74944336 13.2943594,6.60492187 C13.3132083,5.75750977 13.2529089,5.0980957 13.1287578,4.48558594 C13.1207943,4.4259375 13.1256354,4.35580078 13.1355182,4.33792969 C13.1515313,4.31838867 13.2057578,4.33801758 13.2345469,4.28976562 C13.2767708,4.24567383 13.1224271,3.88048828 13.0344271,3.73983398 C13.0032031,3.67702148 12.9923177,3.63506836 12.9405833,3.7472168 C12.8861849,3.83833008 12.8496615,3.99735352 12.8539297,4.14594727 C12.9717786,4.98041016 13.007987,5.71037109 13.084987,6.54483398 C13.0912891,6.62551758 13.0796589,6.74279297 13.0272083,6.78955078 C12.8332188,6.99673828 12.5531771,7.25176758 12.2486719,7.36933594 L12.2486719,7.36933594 Z M15.585625,7.36494141 C15.4083359,7.46973633 15.4081354,7.59029297 15.5514792,7.5946582 C15.7984922,7.56533203 16.0903932,7.54435547 16.2916875,7.23345703 C16.3455703,7.14632813 16.4095651,6.91075195 16.4123437,6.76623047 C16.4311641,5.91881836 16.4015156,5.28629883 16.2773646,4.67384766 C16.2694297,4.61416992 16.2436198,4.47685547 16.253474,4.45895508 C16.269487,4.41700195 16.3500104,4.46352539 16.3787995,4.41524414 C16.4209948,4.37118164 16.1703151,4.04179687 16.0823151,3.90114258 C16.0510911,3.83835937 16.0402057,3.79640625 15.9885,3.90852539 C15.9340729,3.99966797 15.9150807,4.16317383 15.9368516,4.30728516 C16.067849,5.21337891 16.1653594,5.8940918 16.1854687,6.69717773 C16.1741823,6.7734082 16.171375,6.81451172 16.1364271,6.91054688 C16.059112,7.01191406 15.9734609,7.13862305 15.893138,7.19988281 C15.8128437,7.26111328 15.6414844,7.31958984 15.585625,7.3649707 L15.585625,7.36494141 Z"/>
        <path fill="#FFF" fill-rule="nonzero" d="M15.7185417,6.55253906 C15.7165078,6.34063477 15.7214635,6.15764648 15.7146458,5.99961914 C15.7078281,5.8415625 15.6805286,5.71286133 15.6270469,5.60068359 C15.5764297,5.48039062 15.6078542,5.38374023 15.5840781,5.2555957 C15.5603307,5.12750977 15.5661745,4.93567383 15.5302813,4.78368164 C15.5204557,4.72432617 15.4902917,4.53421875 15.4996302,4.51599609 C15.5142396,4.47357422 15.5699844,4.51731445 15.5971979,4.4681543 C15.6379609,4.42268555 15.4557734,3.94057617 15.363362,3.80291016 C15.3301328,3.74118164 15.269776,3.76233398 15.1953828,3.86267578 C15.1263464,3.92874023 15.1519557,4.07935547 15.1783099,4.22261719 C15.3555703,5.16864258 15.4877708,6.02490234 15.4589245,6.92545898 C15.4500729,7.00204102 15.720375,6.69708984 15.7185417,6.55253906 L15.7185417,6.55253906 Z M14.4088542,5.37919922 C14.2973646,5.37711914 14.0638438,5.15730469 13.9956953,5.02851562 C13.9699427,4.9546582 13.9864714,4.88258789 14.0091589,4.84037109 C14.0504375,4.81291992 14.113974,4.78207031 14.1614401,4.81166016 C14.1614401,4.81166016 14.2106823,4.88208984 14.2011432,4.89105469 C14.2620156,4.92087891 14.2878542,4.90371094 14.2940417,4.87839844 C14.2981953,4.83404297 14.2760521,4.80761719 14.2757943,4.7587793 C14.3016042,4.62635742 14.4496172,4.60576172 14.505362,4.69022461 C14.5461536,4.74169922 14.5611068,4.85112305 14.5672943,4.92498047 C14.5666354,4.96271484 14.5068802,4.91844727 14.4729635,4.9275293 C14.4389896,4.93661133 14.4308255,4.97668945 14.4281901,5.01292969 C14.4220313,5.10896484 14.4109167,5.26306641 14.4088542,5.37916992 L14.4088542,5.37919922 Z M12.351224,6.7875 C12.3819323,6.49957031 12.3398802,5.98678711 12.3370729,5.81689453 C12.3257865,5.41552734 12.2617057,4.64027344 12.2311979,4.51075195 C12.1968229,4.26662109 12.3293672,4.5375293 12.3110052,4.39561523 C12.2680365,4.15183594 12.1358073,3.98657227 11.980375,3.76327148 C11.9302448,3.69061523 11.9319635,3.67582031 11.8545911,3.78108398 C11.7689401,3.9797168 11.8428464,4.11638672 11.8649896,4.27110352 C11.9770807,4.77518555 12.0424792,5.23898438 12.0729297,5.69748047 C12.1033802,6.15597656 12.1127474,6.65173828 12.0849323,7.13463867 C12.1689219,7.13800781 12.303987,6.9956543 12.351224,6.7874707 L12.351224,6.7875 Z"/>
        <path fill="#FFF" fill-rule="nonzero" d="M16.098099,6.32636719 C15.9015026,5.98901367 15.6048464,5.62362305 15.5255833,5.48777344 C15.446349,5.35189453 14.7760365,4.46736328 14.6906146,4.37859375 C14.4454062,4.11512695 14.8030781,4.33570313 14.6436641,4.13220703 C14.5088281,3.98080078 14.4694974,3.93328125 14.354112,3.84222656 C14.2962474,3.80399414 14.2611849,3.73095703 14.2421641,3.85541016 C14.2346016,3.96474609 14.2266953,4.09125 14.2338854,4.18338867 C14.2334844,4.23462891 14.2856484,4.33086914 14.3304219,4.38758789 C14.9249661,5.1346582 15.5734505,5.89746094 16.0954922,6.85643555 C16.1697708,6.81615234 16.1450781,6.38572266 16.098099,6.32636719 L16.098099,6.32636719 Z"/>
        <path fill="#1BA400" fill-rule="nonzero" d="M7.20657414,5.72723582 C7.1816957,5.7713332 7.12629836,5.82846629 7.14488165,5.88758529 C7.18365979,5.94074657 7.2146823,5.95154177 7.27934611,5.95444425 C7.33544851,5.95444425 7.41381058,5.96783641 7.43068159,5.93438147 C7.46089832,5.90077377 7.48381268,5.83208167 7.45868243,5.76731046 C7.40026341,5.61964026 7.23709305,5.67463468 7.20657414,5.72723582 L7.20657414,5.72723582 Z"/>
        <path fill="#FFF" fill-rule="nonzero" d="M13.8121615,10.6212891 C14.0750729,10.6311914 14.2471484,10.6335645 14.4809844,10.6620117 C14.4809844,10.6620117 14.682651,10.6416504 14.754638,10.6305176 C15.0590286,10.6008105 15.0724922,11.075127 15.0724922,11.075127 C15.0691693,11.3533008 14.9641823,11.3678613 14.8301484,11.3972461 C14.7535781,11.407207 14.7133307,11.3503418 14.6730833,11.2897852 C14.6225807,11.3114062 14.5539167,11.3145117 14.4707292,11.3027051 C14.3611589,11.2956738 14.2515885,11.2961426 14.1420469,11.2891406 C14.0256589,11.2786523 13.9637552,11.3015332 13.8473385,11.2910449 C13.823362,11.3295703 13.7921953,11.3829199 13.7210104,11.365752 C13.6617708,11.359043 13.5916172,11.1890039 13.6122708,11.0597168 C13.6550391,10.9670215 13.6432943,10.9968457 13.6388255,10.9560937 C12.5638906,10.9280859 11.4786432,10.8790723 10.4241901,10.8931055 C9.5991901,10.8965918 8.78438802,10.9316016 7.96961458,10.9666406 C7.53485677,10.9596094 7.20279427,10.8895898 6.97342708,10.5464648 C6.99396615,10.5464648 8.08259375,10.6094824 8.40099219,10.5884766 C8.98980729,10.5814453 9.52726042,10.5324609 10.1263594,10.5149414 C11.3074271,10.5359473 12.4782682,10.5359766 13.65925,10.6199707 C13.5462708,10.5409277 13.5422318,10.3542187 13.716112,10.3085742 C13.7308932,10.2981738 13.738513,10.401416 13.7645234,10.3994824 C13.9036563,10.3888184 13.8426406,10.5815332 13.8120469,10.6212598 L13.8121615,10.6212891 Z M9.07041667,3.96328125 C8.8914375,4.48649414 9.17296875,5.05880859 9.36816146,5.00308594 C9.50898438,5.06270508 9.59864583,4.7887207 9.6563099,4.48854492 C9.69575521,4.40428711 9.72554688,4.39532227 9.74579948,4.43862305 C9.74061458,4.83779297 9.77384375,4.92621094 9.8741901,5.04738281 C10.0980286,5.22401367 10.2831953,5.06994141 10.2977188,5.05505859 L10.472,4.87681641 C10.5107865,4.83506836 10.5624349,4.83263672 10.6172344,4.8694043 C10.670487,4.91891602 10.6630104,5.0044043 10.7769922,5.06370117 C10.8729557,5.10295898 11.0780599,5.0727832 11.125612,4.98823242 C11.1895495,4.87614258 11.2049036,4.83764648 11.2345234,4.79513672 C11.2801563,4.73299805 11.357987,4.760625 11.357987,4.78025391 C11.3507109,4.81491211 11.3050495,4.84959961 11.3362161,4.91200195 C11.3904714,4.95363281 11.4030182,4.92685547 11.4351302,4.91759766 C11.5486823,4.86208008 11.6339323,4.60945312 11.6339323,4.60945312 C11.638974,4.51546875 11.5874688,4.52323242 11.5540677,4.54259766 C11.5104974,4.56984375 11.5076615,4.57854492 11.4640625,4.60579102 C11.4085469,4.61422852 11.3008385,4.651875 11.2475859,4.56755859 C11.1932161,4.46616211 11.1924714,4.3246875 11.1509063,4.22244141 C11.1509063,4.215 11.078776,4.06136719 11.1459219,4.05152344 C11.1797813,4.05796875 11.2520833,4.07753906 11.2635703,4.0152832 C11.2991198,3.95458008 11.187487,3.78272461 11.1110885,3.69591797 C11.0447734,3.62144531 10.9528776,3.61248047 10.8641615,3.68850586 C10.8020573,3.74695312 10.8109948,3.81225586 10.7987917,3.87416016 C10.7829792,3.94523437 10.7863594,4.03268555 10.8569141,4.12669922 C10.9189036,4.25170898 11.032026,4.41272461 10.9948724,4.63913086 C10.9948724,4.63913086 10.9288151,4.74615234 10.8136875,4.73214844 C10.7656771,4.72145508 10.687875,4.700625 10.6463099,4.38662109 C10.6148281,4.14896484 10.6537292,3.81641602 10.5551016,3.66052734 C10.5194661,3.56639648 10.4934557,3.47548828 10.4066302,3.63650391 C10.3833125,3.69972656 10.2831953,3.79567383 10.3558125,3.99301758 C10.415224,4.11811523 10.439401,4.32172852 10.4124453,4.54831055 C10.3712813,4.61267578 10.3621432,4.63447266 10.3081745,4.69886719 C10.2323776,4.7822168 10.1501068,4.76094727 10.0871146,4.72980469 C10.0282474,4.68922852 9.98215625,4.66825195 9.95528646,4.5393457 C9.96015625,4.33388672 9.97132813,3.9975293 9.93460417,3.92619141 C9.88046354,3.81568359 9.79120313,3.85564453 9.75304688,3.88904297 C9.56979948,4.06040039 9.47927865,4.34953125 9.4239349,4.57977539 C9.37311719,4.74755859 9.31903385,4.69948242 9.28099219,4.63177734 C9.18846615,4.54306641 9.18216406,3.84925781 9.07041667,3.96333984 L9.07041667,3.96328125 Z"/>
        <path fill="#FFF" fill-rule="nonzero" d="M9.60924479,5.10058594 C9.69051302,5.04169922 9.65252865,5.00056641 9.77407292,5.12484375 C9.92623958,5.39091797 10.0240651,5.73553711 10.0387318,6.04083984 C10.0323151,6.11607422 10.0841641,6.16368164 10.1078828,6.14733398 C10.1219766,5.97070312 10.5419531,5.72460937 10.9270391,5.68863281 C10.9859349,5.67553711 10.9572891,5.56010742 10.9668854,5.50125 C10.9437969,5.28260742 11.087026,5.08353516 11.287776,5.06765625 C11.561,5.10896484 11.6519505,5.25814453 11.6565625,5.48586914 C11.6270573,5.92303711 11.1817578,5.9971582 10.9315651,6.03202148 C10.8931797,6.046875 10.8771953,6.06498047 10.9315651,6.08639648 L11.9798594,6.09125977 L12.0333411,6.1228418 C12.0397578,6.14841797 12.0180729,6.12708984 11.9766797,6.19678711 C11.9353151,6.26648437 11.8742708,6.42720703 11.8711198,6.53452148 C11.5587943,6.63723633 11.2357552,6.68223633 10.9074167,6.7228418 C10.793349,6.7818457 10.7368021,6.86044922 10.7602344,6.94892578 C10.7986198,7.04707031 11.051276,7.14509766 11.051276,7.14975586 C11.0992578,7.18051758 11.1560339,7.25235352 11.0376979,7.39951172 C10.5263698,7.37651367 10.130112,7.15394531 9.99292708,6.83982422 C9.95159115,6.80704102 9.90707552,6.83964844 9.87854427,6.88209961 C9.67891146,7.14530273 9.48248698,7.38231445 9.14211719,7.50814453 C8.93913281,7.56 8.73136458,7.47629883 8.63322396,7.34036133 C8.56753906,7.26298828 8.57003125,7.17755859 8.54591146,7.15904297 C8.43619792,7.20867187 7.49217448,7.61891602 7.61182813,7.4278125 C7.84156771,7.17629883 8.23934375,6.99158203 8.5906276,6.74334961 C8.61597917,6.66017578 8.66207031,6.37883789 8.80080208,6.28719727 C8.80882292,6.28787109 8.77883073,6.45243164 8.78183854,6.52180664 C8.78341406,6.57875977 8.77774219,6.60108398 8.78994531,6.58643555 C8.81363542,6.5709668 9.23988542,6.22842773 9.27282813,6.12339844 C9.31436458,6.06316406 9.28528906,5.91061523 9.28528906,5.90598633 C9.20536719,5.6952832 9.09321875,5.67738281 9.05165365,5.57270508 C9.01424219,5.43363281 9.03117188,5.27490234 9.10888802,5.23066406 C9.17792448,5.1665918 9.25965104,5.17450195 9.33504688,5.24452148 C9.42115625,5.32338867 9.49761198,5.47751953 9.51972656,5.59233398 C9.50494531,5.63774414 9.4070625,5.5621582 9.37311719,5.5847168 C9.43321615,5.64834961 9.46126042,5.72176758 9.48297396,5.8115918 C9.53848958,6.05208984 9.5215599,6.14557617 9.46567188,6.30108398 C9.2764375,6.70801758 9.03458073,6.82945312 8.82297396,6.98021484 C8.81733073,6.98226562 8.81357813,7.08348633 8.89315625,7.13821289 C8.92059896,7.16768555 9.03097135,7.18280273 9.16076563,7.14026367 C9.4115599,7.00040039 9.67189323,6.74273437 9.80114323,6.45568359 C9.83866927,6.23856445 9.78664844,6.00832031 9.73141927,5.80751953 C9.64826042,5.61128906 9.55032031,5.33109375 9.55032031,5.32646484 C9.54708333,5.2040918 9.55682292,5.16164062 9.60930208,5.10058594 L9.60924479,5.10058594 Z M6.8646875,3.96884766 C6.98534375,4.02770508 7.2121901,4.00265625 7.20259375,3.80367187 C7.20259375,3.78609375 7.19821094,3.7265625 7.19649219,3.71041992 C7.17185677,3.65176758 7.10468229,3.66626953 7.08944271,3.72682617 C7.08465885,3.74666016 7.09797917,3.77897461 7.08041927,3.78893555 C7.07033594,3.79933594 7.03177865,3.79321289 7.03338281,3.73825195 C7.03338281,3.72073242 7.02077865,3.70192383 7.01315885,3.69079102 C7.00553906,3.68569336 7.00069792,3.68428711 6.98689063,3.68428711 C6.97004688,3.68496094 6.97033333,3.68944336 6.96110938,3.70391602 C6.9571849,3.71862305 6.95179948,3.73300781 6.95179948,3.74970703 C6.94967969,3.76927734 6.94246094,3.77625 6.92839583,3.77915039 C6.91266927,3.77915039 6.91622135,3.7809082 6.90347396,3.77261719 C6.89591146,3.76412109 6.88645833,3.76089844 6.88645833,3.74645508 C6.88645833,3.73148437 6.88313542,3.70725586 6.87872396,3.69738281 C6.87204948,3.68835937 6.86130729,3.68419922 6.84921875,3.68100586 C6.78333333,3.68124023 6.77875,3.75811523 6.7825599,3.78729492 C6.77760417,3.79280273 6.77482552,3.93070312 6.8646875,3.96884766 L6.8646875,3.96884766 Z"/>
        <path fill="#FFF" fill-rule="nonzero" d="M10.4015885,5.49990234 C10.5222448,5.55875977 10.8094479,5.52489258 10.7394948,5.33472656 C10.7394948,5.31714844 10.735112,5.25758789 10.7333932,5.24147461 C10.7087578,5.18282227 10.6415833,5.19732422 10.6263438,5.25788086 C10.6215599,5.27771484 10.6348802,5.3100293 10.6173203,5.31999023 C10.607237,5.33039062 10.5686797,5.32426758 10.5702839,5.26930664 C10.5702839,5.25178711 10.5576797,5.23297852 10.5500599,5.2218457 C10.5424401,5.21674805 10.537599,5.2153418 10.5237917,5.2153418 C10.5069479,5.21601562 10.5072344,5.22049805 10.4980104,5.2349707 C10.4940859,5.24967773 10.4887005,5.2640625 10.4887005,5.28076172 C10.4865807,5.30033203 10.479362,5.30730469 10.4652969,5.31020508 C10.4495703,5.31020508 10.4531224,5.31196289 10.440375,5.30367187 C10.4328125,5.29517578 10.4233594,5.29195312 10.4233594,5.27750977 C10.4233594,5.26253906 10.4200365,5.23831055 10.415625,5.2284375 C10.4089505,5.21941406 10.3982083,5.21525391 10.3861198,5.21206055 C10.3202344,5.21229492 10.315651,5.28916992 10.3194609,5.31834961 C10.3145052,5.32385742 10.3117266,5.46175781 10.4015885,5.49990234 L10.4015885,5.49990234 Z M12.4640885,4.86621094 C12.5847448,4.92506836 12.8115911,4.90001953 12.8019948,4.70103516 C12.8019948,4.68345703 12.797612,4.62392578 12.7958932,4.6077832 C12.7712578,4.54913086 12.7040833,4.56363281 12.6888438,4.62418945 C12.6840599,4.64402344 12.6973802,4.67633789 12.6798203,4.68629883 C12.669737,4.69669922 12.6311797,4.69057617 12.6327839,4.63561523 C12.6327839,4.6180957 12.6201797,4.59928711 12.6125599,4.5881543 C12.6049401,4.58305664 12.600099,4.58165039 12.5862917,4.58165039 C12.5694479,4.58232422 12.5697344,4.58680664 12.5605104,4.6012793 C12.5565859,4.61598633 12.5511719,4.63037109 12.5511719,4.64707031 C12.5490807,4.66664062 12.541862,4.67361328 12.5277969,4.67651367 C12.5120703,4.67651367 12.5156224,4.67827148 12.502875,4.66998047 C12.4953125,4.66148437 12.4858307,4.65826172 12.4858307,4.64381836 C12.4858307,4.62884766 12.4825365,4.60461914 12.478125,4.59474609 C12.4714505,4.58572266 12.4607083,4.5815625 12.4486198,4.57836914 C12.3827344,4.57860352 12.378151,4.65547852 12.3819609,4.6846582 C12.3770052,4.69016602 12.3742266,4.82806641 12.4640885,4.86621094 L12.4640885,4.86621094 Z M13.5322917,6.45791016 C13.3220313,6.7002832 13.4147292,7.10112305 13.462224,7.18749023 C13.5315469,7.3293457 13.5873776,7.4203125 13.7222708,7.49047852 C13.8451615,7.58296875 13.9408958,7.52516602 13.9936615,7.46039062 C14.1173255,7.3293457 14.1187865,6.99474609 14.1768229,6.92844727 C14.2175573,6.80666016 14.3200521,6.82746094 14.3698099,6.88142578 C14.4180208,6.95232422 14.4748255,6.99802734 14.5456953,7.03664062 C14.6609948,7.14070312 14.798724,7.1596875 14.9344193,7.06488281 C15.0271172,7.01167969 15.087388,6.94294922 15.1416719,6.80651367 C15.202,6.64157227 15.1683698,5.87932617 15.1563099,5.42756836 C15.1516693,5.39211914 15.0364557,4.80632812 15.0364557,4.79979492 C15.0364557,4.79323242 15.0212161,4.50082031 15.0085547,4.43115234 C15.0063203,4.40288086 14.999474,4.39476562 15.0284349,4.39833984 C15.0591719,4.42479492 15.0633828,4.42646484 15.0825755,4.43516602 C15.1135703,4.4409668 15.1413281,4.38697266 15.1226224,4.33731445 L14.8347891,3.79435547 C14.8116719,3.77109375 14.7818516,3.74554687 14.7452135,3.80091797 C14.7102083,3.83229492 14.6729401,3.88910156 14.6740859,3.96213867 C14.6825938,4.09081055 14.704737,4.22170898 14.7132161,4.35041016 L14.8283724,5.01111328 C14.864638,5.48208984 14.8737188,5.86754883 14.9099557,6.33852539 C14.9048854,6.53794922 14.8442708,6.71182617 14.7874089,6.7369043 C14.7874089,6.7369043 14.7008984,6.78817383 14.6428906,6.73154297 C14.6006953,6.71422852 14.4318281,6.44370117 14.4318281,6.44370117 C14.3454896,6.36275391 14.2885703,6.38589844 14.227125,6.44370117 C14.0577135,6.61101562 13.9810573,6.92399414 13.8659297,7.13988281 C13.8362526,7.18807617 13.752349,7.22929687 13.6593932,7.13636719 C13.4232943,6.80654297 13.5616823,6.33723633 13.5322917,6.45791016 L13.5322917,6.45791016 Z M12.5182292,3.71103516 C12.6263099,3.75732422 12.7025651,3.98124023 12.6777005,4.09057617 C12.6561875,4.22583984 12.5988672,4.37191406 12.5576458,4.35290039 C12.5128438,4.3359082 12.5881823,4.21842773 12.5451276,4.09520508 C12.5212083,4.01499023 12.3737109,3.86841797 12.389237,3.82520508 C12.3587865,3.73467773 12.4519427,3.69506836 12.5182292,3.71103516 Z"/>
        <path fill="#FFF" fill-rule="nonzero" d="M13.8803385,6.590625 C13.9030833,6.32170898 13.8646979,6.15773437 13.8578802,5.99967773 C13.8510625,5.84162109 13.6830833,4.63564453 13.6490234,4.51605469 C13.6079167,4.28994141 13.8123047,4.48573242 13.7899609,4.35421875 C13.719263,4.18839844 13.5432917,3.94699219 13.4880339,3.80296875 C13.4548047,3.74126953 13.4687552,3.68636719 13.3943333,3.78673828 C13.3253255,4.01748047 13.3013776,4.20609375 13.3277318,4.34938477 C13.5049635,5.29538086 13.68675,6.08200195 13.6579036,6.98255859 C13.7419505,6.98314453 13.8388307,6.78585937 13.8803385,6.5906543 L13.8803385,6.590625 Z M15.7271354,4.0921875 C15.8256771,4.14228516 15.8833984,4.42291992 15.872513,4.50310547 C15.8529193,4.64956055 15.800612,4.80770508 15.7630859,4.78710937 C15.722237,4.76871094 15.77125,4.56993164 15.7516276,4.50811523 C15.7298568,4.4212793 15.5953932,4.26260742 15.6095443,4.21582031 C15.5817578,4.11782227 15.6666927,4.07493164 15.7271354,4.0921875 Z M8.40325521,6.08203125 C8.4975,6.11882812 8.55278646,6.32504883 8.54235938,6.38399414 C8.52356771,6.49157227 8.47352344,6.60779297 8.43763021,6.59267578 C8.39855729,6.57914062 8.44547917,6.43306641 8.42671615,6.38765625 C8.4187526,6.2775 8.28792708,6.22045898 8.29064844,6.17288086 C8.26624219,6.08540039 8.34539063,6.06931641 8.40325521,6.08206055 L8.40325521,6.08203125 Z"/>
        <path fill="#1B9D00" fill-rule="nonzero" d="M10.6808854,6.39169922 C10.8025443,6.39960937 10.8633594,6.49722656 10.7493776,6.53818359 C10.6369714,6.5775293 10.5289479,6.60829102 10.5284323,6.77443359 C10.570026,7.0059375 10.4714271,6.92648437 10.4125885,6.89504883 C10.3432943,6.84416016 10.1488177,6.72161133 10.1210885,6.45706055 C10.1169349,6.39392578 10.1650599,6.34078125 10.2425469,6.34116211 C10.3592786,6.37359375 10.5314974,6.3759668 10.6808568,6.39169922 L10.6808854,6.39169922 Z"/>
        <path fill="#FFF" fill-rule="nonzero" d="M5.88382552,3.64423828 C6.02290104,3.68712891 6.0311224,3.89619141 6.02086719,3.95730469 C6.00233333,4.06886719 5.9530625,4.18933594 5.9176849,4.17363281 C5.8791849,4.15962891 5.91616667,4.00819336 5.8976901,3.96108398 C5.8770651,3.89493164 5.7595599,3.77405273 5.77288021,3.73842773 C5.74672656,3.66375 5.82682031,3.63105469 5.88382552,3.64423828 L5.88382552,3.64423828 Z M8.63041667,4.62978516 C8.52371094,4.68881836 8.48231771,4.86474609 8.54877604,4.96722656 C8.61082292,5.05746094 8.70882031,5.02400391 8.72188281,5.02400391 C8.8264401,5.03739258 8.88845833,4.82355469 8.88845833,4.82355469 C8.88845833,4.82355469 8.8917526,4.7634375 8.76760156,4.87705078 C8.71535156,4.88707031 8.70882031,4.86700195 8.69575781,4.83691406 C8.6848724,4.78125 8.68704948,4.72558594 8.71208594,4.66989258 C8.73059115,4.61645508 8.69028646,4.59304687 8.63041667,4.62978516 L8.63041667,4.62978516 Z M9.43078125,3.56337891 C9.37715625,3.60014648 9.27042188,3.71323242 9.26715625,3.84354492 C9.26391927,3.91705078 9.25054167,3.91681641 9.29757813,3.96360352 C9.33158073,4.01375977 9.36586979,4.00924805 9.43450521,3.97248047 C9.47392188,3.94277344 9.48724219,3.92305664 9.50053385,3.87325195 C9.51686198,3.78975586 9.41419531,3.91286133 9.40113281,3.81993164 C9.37827344,3.73362305 9.44421615,3.69829102 9.50626302,3.61479492 C9.50832552,3.55757812 9.5071224,3.51706055 9.43078125,3.56337891 L9.43078125,3.56337891 Z M10.075599,3.68056641 C10.0524818,3.73277344 10.0247813,4.00555664 10.0293932,4.00555664 C10.0109453,4.08682617 10.1125521,4.12160156 10.1587578,4.01712891 C10.2280521,3.82561523 10.2280521,3.744375 10.2326641,3.66310547 C10.2110938,3.53935547 10.1295104,3.54322266 10.075599,3.68056641 Z M14.1410156,5.79638672 C14.1548802,5.78220703 14.713875,5.37588867 14.713875,5.37588867 C14.7708516,5.35541016 14.7585052,5.58536133 14.7323516,5.5837793 C14.7431224,5.62942383 14.1810625,6.02000977 14.140987,6.00427734 C14.1132865,6.02475586 14.0855573,5.84680664 14.140987,5.79638672 L14.1410156,5.79638672 Z M14.650625,5.79287109 C14.7491667,5.84296875 14.7884115,6.1377832 14.777526,6.21796875 C14.7810208,6.37388672 14.6825651,6.49892578 14.6449818,6.47835937 C14.6041328,6.45996094 14.6485625,6.28479492 14.6289401,6.22297852 C14.6071693,6.13614258 14.5234948,5.97272461 14.5376172,5.9259375 C14.5098594,5.82793945 14.5901823,5.77561523 14.650625,5.79287109 L14.650625,5.79287109 Z M11.3257031,7.06259766 C11.3645755,7.00447266 11.4846875,6.92083008 11.4874089,6.92083008 C11.5428099,6.8924707 11.5969505,6.94306641 11.5936849,6.93972656 C11.6028802,6.99644531 11.5585938,7.04920898 11.572487,7.12482422 C11.5845755,7.15529297 11.5934557,7.18913086 11.6480547,7.17624023 C11.7368281,7.10481445 11.8190703,7.10021484 11.9078151,7.09567383 C11.9758203,7.09986328 11.978513,7.21763672 11.9355156,7.21851562 C11.7716328,7.25493164 11.6981849,7.29981445 11.5811667,7.34548828 C11.5257083,7.37856445 11.4781563,7.33661133 11.4781563,7.33189453 C11.4781563,7.32717773 11.4457292,7.29972656 11.4683594,7.22460937 C11.4723698,7.164375 11.4486797,7.13135742 11.3996094,7.13818359 C11.3626563,7.15863281 11.3301146,7.17216797 11.311638,7.1287207 C11.304362,7.09664062 11.3019844,7.08102539 11.3257031,7.06259766 L11.3257031,7.06259766 Z M15.238724,7.22138672 C15.2626719,7.25255859 15.2781693,7.28141602 15.2368047,7.33262695 C15.1975885,7.36936523 15.169974,7.38960937 15.1307865,7.42634766 C15.1122813,7.45863281 15.1004219,7.50761719 15.1570547,7.52323242 C15.261612,7.55329102 15.5033255,7.39291992 15.5033255,7.38958008 C15.5425417,7.35952148 15.5294792,7.30271484 15.5261849,7.30271484 C15.5033255,7.27599609 15.4518203,7.291875 15.4171875,7.28753906 C15.4006875,7.28753906 15.3465755,7.27916016 15.3723281,7.23017578 C15.3938125,7.19970703 15.4015182,7.18104492 15.416099,7.14348633 C15.4324271,7.10674805 15.4183906,7.08225586 15.3595807,7.0621875 C15.2997109,7.05105469 15.275763,7.05662109 15.2093333,7.0621875 C15.1734115,7.06998047 15.161151,7.08641602 15.1546198,7.13094727 C15.1571979,7.19850586 15.1973594,7.19466797 15.238724,7.22138672 L15.238724,7.22138672 Z"/>
        <path fill="#259F00" fill-rule="nonzero" d="M11.3471016,5.55887695 C11.331776,5.58597656 11.2799557,5.5846582 11.2313724,5.55594727 C11.1827891,5.52723633 11.1558047,5.48191406 11.1711302,5.45478516 C11.1864557,5.42765625 11.238276,5.42900391 11.2868594,5.45777344 C11.3354427,5.48654297 11.3624271,5.53177734 11.3471016,5.55887695 Z M8.7955599,3.98874023 C8.76651302,3.99600586 8.72855729,3.96952148 8.71076823,3.92958984 C8.69297917,3.8896582 8.70214583,3.85139648 8.73116406,3.84413086 C8.76018229,3.83686523 8.79816667,3.86332031 8.81595573,3.90325195 C8.83374479,3.94318359 8.82460677,3.98147461 8.7955599,3.98874023 Z"/>
        <path fill="#209000" fill-rule="nonzero" d="M13.8428125,10.9854492 C14.1106797,11.0086691 14.362362,10.9908468 14.6302292,11.0141176 C14.6787552,11.0874435 14.6440938,11.2674484 14.6117526,11.2545654 C14.5246693,11.2506445 14.4744818,11.2468255 14.3873698,11.2429046 C14.3843906,11.0912626 14.166625,11.1161119 14.1728984,11.247742 C14.0553073,11.2728969 13.9492604,11.2404604 13.8316693,11.2327204 C13.7968932,11.1558301 13.801362,11.0172238 13.8428411,10.9854492 L13.8428125,10.9854492 Z"/>
      </g>
    </g>
  </g>
</svg>
