<svg xmlns="http://www.w3.org/2000/svg" width="20" height="15" viewBox="0 0 20 15">
  <g fill="none">
    <polygon fill="#FFF" points="5.043 0 15.043 0 15.043 14.174 5.043 14.174"/>
    <path fill="#BF0A30" d="M0,0 L5.0000138,0 L5.0000138,14.173913 L0,14.173913 L0,0 Z M15.0000138,0 L20,0 L20,14.173913 L15.0000414,14.173913 L15.0000138,0 Z M6.10704575,6.98225781 L7.91384998,8.57255978 C8.05048651,8.98127785 7.86637223,9.10175611 7.74905804,9.31613655 L9.71055138,9.06643207 L9.6594852,11.0461291 L10.0657512,11.034419 L9.97714443,9.07116593 L11.94057,9.30459256 C11.8190601,9.04721977 11.7109102,8.91057439 11.8233386,8.49906029 L13.6289835,6.99236226 L13.3130081,6.87764215 C13.0546408,6.67771247 13.424636,5.91470194 13.4804499,5.43317646 C13.4804499,5.43317646 12.4261404,5.79679823 12.3570492,5.60653006 L12.0885515,5.08926529 L11.1294183,6.14594158 C11.024636,6.17113349 10.9800014,6.12933152 10.9554068,6.0405231 L11.3985232,3.83232711 L10.6968463,4.22811702 C10.6381064,4.25330893 10.5793665,4.23157745 10.5406666,4.16292255 L9.86576496,2.80477378 L9.16988476,4.21524423 C9.11743841,4.26579416 9.06490925,4.27163536 9.02132358,4.23728023 L8.35321234,3.8613947 L8.75428887,6.05234392 C8.72237941,6.13926987 8.64597336,6.1637697 8.55609689,6.1166802 L7.63922435,5.07199083 C7.51928783,5.26472283 7.437996,5.57959409 7.27947002,5.65015914 C7.12091643,5.71623947 6.58993858,5.51664198 6.23404872,5.43874083 C6.35561383,5.87876885 6.73576703,6.60980503 6.49517632,6.84940506 L6.10704575,6.98225781 Z"/>
  </g>
</svg>
