<svg xmlns="http://www.w3.org/2000/svg" xmlns:xlink="http://www.w3.org/1999/xlink" width="20" height="14" viewBox="0 0 20 14">
  <defs>
    <rect id="flag-usa-a" width="20" height="14"/>
    <polygon id="flag-usa-c" points="0 0 20 0 20 14.667 0 14.667"/>
  </defs>
  <g fill="none" fill-rule="evenodd">
    <mask id="flag-usa-b" fill="#fff">
      <use xlink:href="#flag-usa-a"/>
    </mask>
    <g mask="url(#flag-usa-b)">
      <mask id="flag-usa-d" fill="#fff">
        <use xlink:href="#flag-usa-c"/>
      </mask>
      <g fill-rule="nonzero" mask="url(#flag-usa-d)">
        <path fill="#BD3D44" d="M0,0 L26.6614594,0 L26.6614594,1.02365172 L0,1.02365172 L0,0 Z M0,2.04730344 L26.6614594,2.04730344 L26.6614594,3.07095517 L0,3.07095517 L0,2.04730344 Z M0,4.09460689 L26.6614594,4.09460689 L26.6614594,5.11825861 L0,5.11825861 L0,4.09460689 Z M0,6.14191033 L26.6614594,6.14191033 L26.6614594,7.16556205 L0,7.16556205 L0,6.14191033 Z M0,8.18921378 L26.6614594,8.18921378 L26.6614594,9.2128655 L0,9.2128655 L0,8.18921378 Z M0,10.2365172 L26.6614594,10.2365172 L26.6614594,11.2601689 L0,11.2601689 L0,10.2365172 Z M0,12.2838207 L26.6614594,12.2838207 L26.6614594,13.3074724 L0,13.3074724 L0,12.2838207 Z"/>
        <path fill="#FFF" d="M0,0.0100064977 L26.6614594,0.0100064977 L26.6614594,1.03365822 L0,1.03365822 L0,0.0100064977 Z M0,2.05730994 L26.6614594,2.05730994 L26.6614594,3.08096166 L0,3.08096166 L0,2.05730994 Z M0,4.10461339 L26.6614594,4.10461339 L26.6614594,5.12826511 L0,5.12826511 L0,4.10461339 Z M0,6.15191683 L26.6614594,6.15191683 L26.6614594,7.17556855 L0,7.17556855 L0,6.15191683 Z M0,8.19922027 L26.6614594,8.19922027 L26.6614594,9.22287199 L0,9.22287199 L0,8.19922027 Z M0,10.2465237 L26.6614594,10.2465237 L26.6614594,11.2701754 L0,11.2701754 L0,10.2465237 Z" transform="translate(0 1.014)"/>
        <polygon fill="#192F5D" points="0 0 10.664 0 10.664 7.165 0 7.165"/>
        <g fill="#FFF" transform="translate(.466 .286)">
          <path d="M.42280233.0207927225L.519821857.303989604.833847208.303989604.579787598.479038337.676834532.762235218.422774923.587212476.168770127.762235218.265789654.479038337.0117574512.303989604.325755396.303989604.42280233.0207927225zM2.20020555.0207927225L2.29725248.303989604 2.61127783.303989604 2.35721823.479038337 2.45426516.762235218 2.20020555.587212476 1.94620075.762235218 2.04322028.479038337 1.78918808.303989604 2.10318602.303989604 2.20020555.0207927225zM3.97769099.0207927225L4.07471052.303989604 4.38873587.303989604 4.13467626.479038337 4.23172319.762235218 3.97769099.587212476 3.72365879.762235218 3.82067831.479038337 3.56664611.303989604 3.88067146.303989604 3.97769099.0207927225zM5.7550668.0207927225L5.85208633.303989604 6.16608428.303989604 5.91205207.479038337 6.0090716.762235218 5.7550668.587212476 5.50100719.762235218 5.59805413.479038337 5.34399452.303989604 5.65801987.303989604 5.7550668.0207927225zM7.53252484.0207927225L7.62954436.303989604 7.94356972.303989604 7.68951011.479038337 7.78655704.762235218 7.53249743.587212476 7.27849263.762235218 7.37551216.479038337 7.12147996.303989604 7.4354779.303989604 7.53252484.0207927225zM9.30998287.0207927225L9.4070024.303989604 9.72102775.303989604 9.46696814.479038337 9.56401507.762235218 9.30998287.587212476 9.05592326.762235218 9.1529976.479038337 8.89893799.303989604 9.21296334.303989604 9.30998287.0207927225zM1.31154505.737361923L1.40856458 1.0205588 1.72258993 1.0205588 1.46853032 1.19558155 1.56560466 1.47880442 1.31154505 1.30378168 1.05751285 1.47880442 1.15453237 1.19558155.900500171 1.0205588 1.21452552 1.0205588 1.31154505.737361923zM3.08892086.737361923L3.18594039 1.0205588 3.49993834 1.0205588 3.24590613 1.19558155 3.34292566 1.47880442 3.08892086 1.30378168 2.83486125 1.47880442 2.93190819 1.19558155 2.67784858 1.0205588 2.99187393 1.0205588 3.08892086.737361923zM4.8663789.737361923L4.96339842 1.0205588 5.27742378 1.0205588 5.02336417 1.19558155 5.1204111 1.47880442 4.86635149 1.30378168 4.61234669 1.47880442 4.70936622 1.19558155 4.45533402 1.0205588 4.76933196 1.0205588 4.8663789.737361923zM6.64383693.737361923L6.74085646 1.0205588 7.05488181 1.0205588 6.8008222 1.19558155 6.89786913 1.47880442 6.64383693 1.30378168 6.38977732 1.47880442 6.48687907 1.19558155 6.23281946 1.0205588 6.54684481 1.0205588 6.64383693.737361923zM8.42121274.737361923L8.51823227 1.0205588 8.83223022 1.0205588 8.57819801 1.19558155 8.67521754 1.47880442 8.42121274 1.30378168 8.16715313 1.47880442 8.26420007 1.19558155 8.01014046 1.0205588 8.32416581 1.0205588 8.42121274.737361923z"/>
          <g transform="translate(0 1.43)">
            <path d="M.42280233.0244054581L.519821857.307602339.833847208.307602339.579787598.482651072.676834532.765847953.422774923.590825211.168770127.765847953.265789654.482651072.0117574512.307602339.325755396.307602339.42280233.0244054581zM2.20020555.0244054581L2.29725248.307602339 2.61127783.307602339 2.35721823.482651072 2.45426516.765847953 2.20020555.590825211 1.94620075.765847953 2.04322028.482651072 1.78918808.307602339 2.10318602.307602339 2.20020555.0244054581zM3.97769099.0244054581L4.07471052.307602339 4.38873587.307602339 4.13467626.482651072 4.23172319.765847953 3.97769099.590825211 3.72365879.765847953 3.82067831.482651072 3.56664611.307602339 3.88067146.307602339 3.97769099.0244054581zM5.7550668.0244054581L5.85208633.307602339 6.16608428.307602339 5.91205207.482651072 6.0090716.765847953 5.7550668.590825211 5.50100719.765847953 5.59805413.482651072 5.34399452.307602339 5.65801987.307602339 5.7550668.0244054581zM7.53252484.0244054581L7.62954436.307602339 7.94356972.307602339 7.68951011.482651072 7.78655704.765847953 7.53249743.590825211 7.27849263.765847953 7.37551216.482651072 7.12147996.307602339 7.4354779.307602339 7.53252484.0244054581zM9.30998287.0244054581L9.4070024.307602339 9.72102775.307602339 9.46696814.482651072 9.56401507.765847953 9.30998287.590825211 9.05592326.765847953 9.1529976.482651072 8.89893799.307602339 9.21296334.307602339 9.30998287.0244054581zM1.31154505.740948668L1.40856458 1.02417154 1.72258993 1.02417154 1.46853032 1.19919428 1.56560466 1.48241715 1.31154505 1.30739441 1.05751285 1.48241715 1.15453237 1.19919428.900500171 1.02417154 1.21452552 1.02417154 1.31154505.740948668zM3.08892086.740948668L3.18594039 1.02417154 3.49993834 1.02417154 3.24590613 1.19919428 3.34292566 1.48241715 3.08892086 1.30739441 2.83486125 1.48241715 2.93190819 1.19919428 2.67784858 1.02417154 2.99187393 1.02417154 3.08892086.740948668zM4.8663789.740948668L4.96339842 1.02417154 5.27742378 1.02417154 5.02336417 1.19919428 5.1204111 1.48241715 4.86635149 1.30739441 4.61234669 1.48241715 4.70936622 1.19919428 4.45533402 1.02417154 4.76933196 1.02417154 4.8663789.740948668zM6.64383693.740948668L6.74085646 1.02417154 7.05488181 1.02417154 6.8008222 1.19919428 6.89786913 1.48241715 6.64383693 1.30739441 6.38977732 1.48241715 6.48685166 1.19919428 6.23279205 1.02417154 6.5468174 1.02417154 6.64383693.740948668zM8.42121274.740948668L8.51823227 1.02417154 8.83223022 1.02417154 8.57819801 1.19919428 8.67521754 1.48241715 8.42121274 1.30739441 8.16715313 1.48241715 8.26420007 1.19919428 8.01014046 1.02417154 8.32416581 1.02417154 8.42121274.740948668z"/>
          </g>
          <g transform="translate(0 2.885)">
            <path d="M.42280233.00202729045L.519821857.285224172.833847208.285224172.579787598.460272904.676834532.743469786.422774923.568447044.168770127.743469786.265789654.460272904.0117574512.285224172.325755396.285224172.42280233.00202729045zM2.20020555.00202729045L2.29725248.285224172 2.61127783.285224172 2.35721823.460272904 2.45426516.743469786 2.20020555.568447044 1.94620075.743469786 2.04322028.460272904 1.78918808.285224172 2.10318602.285224172 2.20020555.00202729045zM3.97769099.00202729045L4.07471052.285224172 4.38873587.285224172 4.13467626.460272904 4.23172319.743469786 3.97769099.568447044 3.72365879.743469786 3.82067831.460272904 3.56664611.285224172 3.88067146.285224172 3.97769099.00202729045zM5.7550668.00202729045L5.85208633.285224172 6.16608428.285224172 5.91205207.460272904 6.0090716.743469786 5.7550668.568447044 5.50100719.743469786 5.59805413.460272904 5.34399452.285224172 5.65801987.285224172 5.7550668.00202729045zM7.53252484.00202729045L7.62954436.285224172 7.94356972.285224172 7.68951011.460272904 7.78655704.743469786 7.53249743.568447044 7.27849263.743469786 7.37551216.460272904 7.12147996.285224172 7.4354779.285224172 7.53252484.00202729045zM9.30998287.00202729045L9.4070024.285224172 9.72102775.285224172 9.46696814.460272904 9.56401507.743469786 9.30998287.568447044 9.05592326.743469786 9.1529976.460272904 8.89893799.285224172 9.21296334.285224172 9.30998287.00202729045zM1.31154505.7185705L1.40856458 1.00179337 1.72258993 1.00179337 1.46853032 1.17681611 1.56560466 1.46003899 1.31154505 1.28501624 1.05751285 1.46003899 1.15453237 1.17681611.900500171 1.00179337 1.21452552 1.00179337 1.31154505.7185705zM3.08892086.7185705L3.18594039 1.00179337 3.49993834 1.00179337 3.24590613 1.17681611 3.34292566 1.46003899 3.08892086 1.28501624 2.83486125 1.46003899 2.93190819 1.17681611 2.67784858 1.00179337 2.99187393 1.00179337 3.08892086.7185705zM4.8663789.7185705L4.96339842 1.00179337 5.27742378 1.00179337 5.02336417 1.17681611 5.1204111 1.46003899 4.86635149 1.28501624 4.61234669 1.46003899 4.70936622 1.17681611 4.45533402 1.00179337 4.76933196 1.00179337 4.8663789.7185705zM6.64383693.7185705L6.74085646 1.00179337 7.05488181 1.00179337 6.8008222 1.17681611 6.89786913 1.46003899 6.64383693 1.28501624 6.38977732 1.46003899 6.48685166 1.17681611 6.23279205 1.00179337 6.5468174 1.00179337 6.64383693.7185705zM8.42121274.7185705L8.51823227 1.00179337 8.83223022 1.00179337 8.57819801 1.17681611 8.67521754 1.46003899 8.42121274 1.28501624 8.16715313 1.46003899 8.26420007 1.17681611 8.01014046 1.00179337 8.32416581 1.00179337 8.42121274.7185705z"/>
          </g>
          <g transform="translate(0 4.314)">
            <path d="M.42280233.00564002599L.519821857.288836907.833847208.288836907.579787598.46388564.676834532.747082521.422774923.572059779.168770127.747082521.265789654.46388564.0117574512.288836907.325755396.288836907.42280233.00564002599zM2.20020555.00564002599L2.29725248.288836907 2.61127783.288836907 2.35721823.46388564 2.45426516.747082521 2.20020555.572059779 1.94620075.747082521 2.04322028.46388564 1.78918808.288836907 2.10318602.288836907 2.20020555.00564002599zM3.97769099.00564002599L4.07471052.288836907 4.38873587.288836907 4.13467626.46388564 4.23172319.747082521 3.97769099.572059779 3.72365879.747082521 3.82067831.46388564 3.56664611.288836907 3.88067146.288836907 3.97769099.00564002599zM5.7550668.00564002599L5.85208633.288836907 6.16608428.288836907 5.91205207.46388564 6.0090716.747082521 5.7550668.572059779 5.50100719.747082521 5.59805413.46388564 5.34399452.288836907 5.65801987.288836907 5.7550668.00564002599zM7.53252484.00564002599L7.62954436.288836907 7.94356972.288836907 7.68951011.46388564 7.78655704.747082521 7.53249743.572059779 7.27849263.747082521 7.37551216.46388564 7.12147996.288836907 7.4354779.288836907 7.53252484.00564002599zM9.30998287.00564002599L9.4070024.288836907 9.72102775.288836907 9.46696814.46388564 9.56401507.747082521 9.30998287.572059779 9.05592326.747082521 9.1529976.46388564 8.89893799.288836907 9.21296334.288836907 9.30998287.00564002599zM1.31154505.722183236L1.40856458 1.00540611 1.72258993 1.00540611 1.46853032 1.18042885 1.56560466 1.46365172 1.31154505 1.28862898 1.05751285 1.46365172 1.15453237 1.18042885.900500171 1.00540611 1.21452552 1.00540611 1.31154505.722183236zM3.08892086.722183236L3.18594039 1.00540611 3.49993834 1.00540611 3.24590613 1.18042885 3.34292566 1.46365172 3.08892086 1.28862898 2.83486125 1.46365172 2.93190819 1.18042885 2.67784858 1.00540611 2.99187393 1.00540611 3.08892086.722183236zM4.8663789.722183236L4.96339842 1.00540611 5.27742378 1.00540611 5.02336417 1.18042885 5.1204111 1.46365172 4.86635149 1.28862898 4.61234669 1.46365172 4.70936622 1.18042885 4.45533402 1.00540611 4.76933196 1.00540611 4.8663789.722183236zM6.64383693.722183236L6.74085646 1.00540611 7.05488181 1.00540611 6.8008222 1.18042885 6.89786913 1.46365172 6.64383693 1.28862898 6.38977732 1.46365172 6.48685166 1.18042885 6.23279205 1.00540611 6.5468174 1.00540611 6.64383693.722183236zM8.42121274.722183236L8.51823227 1.00540611 8.83223022 1.00540611 8.57819801 1.18042885 8.67521754 1.46365172 8.42121274 1.28862898 8.16715313 1.46365172 8.26420007 1.18042885 8.01014046 1.00540611 8.32416581 1.00540611 8.42121274.722183236z"/>
          </g>
          <path d="M0.42280233,5.75324237 L0.519821857,6.03643925 L0.833847208,6.03643925 L0.579787598,6.21148798 L0.676834532,6.49468486 L0.422774923,6.31966212 L0.168770127,6.49468486 L0.265789654,6.21148798 L0.0117574512,6.03643925 L0.325755396,6.03643925 L0.42280233,5.75324237 Z M2.20020555,5.75324237 L2.29725248,6.03643925 L2.61127783,6.03643925 L2.35721823,6.21148798 L2.45426516,6.49468486 L2.20020555,6.31966212 L1.94620075,6.49468486 L2.04322028,6.21148798 L1.78918808,6.03643925 L2.10318602,6.03643925 L2.20020555,5.75324237 Z M3.97769099,5.75324237 L4.07471052,6.03643925 L4.38873587,6.03643925 L4.13467626,6.21148798 L4.23172319,6.49468486 L3.97769099,6.31966212 L3.72365879,6.49468486 L3.82067831,6.21148798 L3.56664611,6.03643925 L3.88067146,6.03643925 L3.97769099,5.75324237 Z M5.7550668,5.75324237 L5.85208633,6.03643925 L6.16608428,6.03643925 L5.91205207,6.21148798 L6.0090716,6.49468486 L5.7550668,6.31966212 L5.50100719,6.49468486 L5.59805413,6.21148798 L5.34399452,6.03643925 L5.65801987,6.03643925 L5.7550668,5.75324237 Z M7.53252484,5.75324237 L7.62954436,6.03643925 L7.94356972,6.03643925 L7.68951011,6.21148798 L7.78655704,6.49468486 L7.53249743,6.31966212 L7.27849263,6.49468486 L7.37551216,6.21148798 L7.12147996,6.03643925 L7.4354779,6.03643925 L7.53252484,5.75324237 Z M9.30998287,5.75324237 L9.4070024,6.03643925 L9.72102775,6.03643925 L9.46696814,6.21148798 L9.56401507,6.49468486 L9.30998287,6.31966212 L9.05592326,6.49468486 L9.1529976,6.21148798 L8.89893799,6.03643925 L9.21296334,6.03643925 L9.30998287,5.75324237 Z"/>
        </g>
      </g>
    </g>
  </g>
</svg>
