<svg xmlns="http://www.w3.org/2000/svg" xmlns:xlink="http://www.w3.org/1999/xlink" width="20" height="15" viewBox="0 0 20 15">
  <defs>
    <rect id="flag-middle2-a" width="20" height="15"/>
  </defs>
  <g fill="none" fill-rule="evenodd">
    <mask id="flag-middle2-b" fill="#fff">
      <use xlink:href="#flag-middle2-a"/>
    </mask>
    <use fill="#FFF" xlink:href="#flag-middle2-a"/>
    <path fill="#F00" fill-rule="nonzero" d="M-1.47789337,11.4936106 L21.4986996,11.4936106 L21.4986996,15.3205545 L-1.47789337,15.3205545 L-1.47789337,11.4936106 Z M-1.47789337,0.0127788607 L21.4986996,0.0127788607 L21.4986996,3.83972276 L-1.47789337,3.83972276 L-1.47789337,0.0127788607 Z" mask="url(#flag-middle2-b)"/>
    <polygon fill="#FFF" fill-rule="nonzero" points=".023 4.34 19.997 4.34 19.997 10.994 .023 10.994" mask="url(#flag-middle2-b)"/>
    <path fill="#007900" fill-rule="nonzero" d="M12.6299546,8.82574568 C13.1780876,8.48560963 13.0410543,8.9618001 13.7973724,8.75771847 L13.7973724,8.62166405 C13.2492394,8.21350078 13.0436896,7.87336473 12.2873716,7.87336473 L13.4547893,7.73731031 L13.4547893,7.60125589 C13.4547893,7.60125589 12.3058183,7.3003663 12.2768306,7.28990058 C12.2847363,7.25588697 12.3137241,7.20094192 12.3901465,7.17216117 C12.6088726,7.31344846 13.2703215,7.29513344 13.307215,7.29251701 C13.2887683,7.12506541 12.975173,6.98639456 12.7011065,6.85034014 C12.7011065,6.85034014 11.525783,6.13082156 11.5205125,6.06802721 C11.5442298,5.88487703 12.0027641,6.09680795 12.4955567,6.23809524 C12.3585234,5.96598639 12.084457,5.82993197 11.8103905,5.76190476 L12.2214902,5.69387755 C11.9474237,5.08163265 11.2622576,5.14965986 10.8485226,4.87755102 C10.5744562,4.67346939 10.5744562,4.53741497 10.1633565,4.33333333 L10.1633565,4.33333333 C9.95780665,4.7414966 9.82077342,4.7414966 9.47819034,5.01360544 C9.34115711,5.14965986 9.13560727,5.21768707 9.40967373,5.3537415 C9.13560727,5.48979592 8.99857403,5.55782313 8.8615408,5.82993197 L8.93005742,5.89795918 C8.93005742,5.89795918 9.19094761,5.76975406 9.20412388,5.82993197 C9.24892321,5.88487703 8.8615408,6.09419152 8.81147097,6.1255887 C8.76140114,6.15698587 8.51895773,6.30612245 8.51895773,6.30612245 C8.17637465,6.57823129 7.97082481,6.51020408 7.76527496,6.91836735 L8.45044111,6.85034014 C8.58747434,7.32653061 8.10785804,7.39455782 7.76527496,7.59863946 L7.21714204,7.93877551 C7.35417527,8.41496599 7.76527496,8.14285714 8.10785804,8.00680272 L8.17637465,8.07482993 L8.17637465,8.21088435 L7.4912085,8.55102041 C7.4912085,8.55102041 6.68218539,9.0115123 6.66900912,9.02721088 C6.66373861,9.05075877 6.66900912,9.16326531 6.66900912,9.16326531 C6.94307558,9.23129252 7.35417527,9.29931973 7.62824173,9.16326531 C7.97082481,9.02721088 8.03934142,8.89115646 8.45044111,8.89115646 C7.97082481,9.23129252 7.62824173,9.36734694 7.07747355,9.43537415 L7.07747355,9.70748299 C7.48857324,9.70748299 7.76263971,9.70748299 8.10785804,9.63945578 L8.99857403,9.36734694 C9.20412388,9.36734694 9.40967373,9.57142857 9.34115711,9.7755102 C9.13560727,10.5238095 8.31077263,10.3877551 8.03670617,11 L9.13560727,10.5918367 C9.40967373,10.4557823 9.68374019,10.3197279 10.0263233,10.3877551 C10.437423,10.5238095 10.437423,10.7959184 10.9855559,10.9319728 L10.8485226,10.5918367 C10.9855559,10.6598639 11.1225891,10.6598639 11.2596223,10.7278912 C11.6022054,10.8639456 11.670722,11 12.0818217,10.9319728 C11.7392386,10.5238095 11.670722,10.5918367 11.3966556,10.3197279 C11.1225891,9.91156463 10.9855559,9.29931973 11.3966556,9.23129252 L11.8762719,9.36734694 C12.3558882,9.43537415 12.3558882,9.29931973 13.0436896,9.57142857 C13.4547893,9.70748299 13.5918225,9.91156463 14.0740741,9.7755102 C13.8632537,9.29931973 13.109571,8.95918367 12.6299546,8.82574568 Z M11.7919437,6.99162742 C11.794579,6.97854526 11.80512,6.96807954 11.815661,6.96284668 C11.939518,6.90528519 12.11608,6.99686028 12.1793261,7.06750392 C12.2109492,7.10151753 12.2109492,7.13029827 12.2030434,7.14861329 C12.1977729,7.16169545 12.1872319,7.17216117 12.1740556,7.17739403 C12.1635146,7.1826269 12.1450678,7.1826269 12.1239858,7.1826269 C12.0396577,7.1826269 11.8868129,7.15122972 11.826202,7.09628467 C11.7814027,7.0570382 11.784038,7.01255887 11.7919437,6.99162742 Z M10.8854162,5.85086342 C10.8880515,5.84563056 10.893322,5.84301413 10.8985925,5.8403977 C10.9196745,5.82993197 11.1067776,5.75143904 11.1779295,5.85609628 C11.2174583,5.91889063 11.1832,5.95290424 11.1700237,5.96075353 C11.1568474,5.97121926 11.1331301,5.97645212 11.1094128,5.97645212 C11.0250847,5.97645212 10.8985925,5.92935636 10.882781,5.91104134 C10.8696047,5.89534275 10.8696047,5.86917844 10.8854162,5.85086342 Z M10.5085748,5.82469911 C10.5112101,5.77237049 10.5454684,5.73312402 10.603444,5.71742543 C10.6772311,5.69911041 10.780006,5.72004186 10.8142643,5.78806907 C10.8142643,5.7906855 10.8168996,5.79330194 10.8168996,5.79591837 C10.8274406,5.8325484 10.8142643,5.86917844 10.7773708,5.89534275 C10.7457477,5.9162742 10.6904074,5.92935636 10.6403375,5.92935636 C10.5981735,5.92935636 10.5586447,5.92150706 10.5349274,5.90057561 C10.5112101,5.8822606 10.5006691,5.85347985 10.5085748,5.82469911 Z M10.4664108,6.4447933 C10.4769518,6.47095761 10.490128,6.54160126 10.3715416,6.59916274 C10.3082955,6.63055992 10.1712623,6.66718995 10.0737578,6.66718995 C10.0210528,6.66718995 9.97888868,6.65672423 9.96307716,6.63055992 C9.94990089,6.60701204 9.94726563,6.56776557 10.013147,6.52590267 C10.1738975,6.42124542 10.3293775,6.37153323 10.4084352,6.39508111 C10.4453287,6.40554683 10.4611402,6.42909471 10.4664108,6.4447933 Z M9.91037207,5.95028781 C9.97888868,5.81161695 10.168627,5.74620617 10.2740372,5.74882261 C10.3188365,5.74882261 10.3478243,5.76190476 10.3610006,5.78806907 C10.3847179,5.82993197 10.3768121,5.87702773 10.3372833,5.91889063 C10.2766724,5.98168498 10.147545,6.03139717 10.0394995,6.03139717 C9.99997072,6.03139717 9.96307716,6.02616431 9.93408936,6.01046572 C9.92354834,6.00523286 9.91564258,5.99476714 9.91037207,5.98430141 C9.90510156,5.97383569 9.90510156,5.96075353 9.91037207,5.95028781 Z M9.73117477,5.92935636 C9.7812446,5.91889063 9.8102324,5.93458922 9.82604393,5.95028781 C9.87347851,5.99738357 9.85239647,6.09157509 9.84976122,6.10989011 C9.84712596,6.1177394 9.84185545,6.1255887 9.83658494,6.13343799 C9.68637544,6.26949241 9.49136661,6.42124542 9.39122695,6.42124542 C9.38068593,6.42124542 9.37278016,6.41862899 9.3648744,6.41601256 C9.33852186,6.40554683 9.32271033,6.38199895 9.32007508,6.35060178 C9.32007508,6.34798535 9.32007508,6.34536892 9.32007508,6.34013605 C9.34379237,6.16483516 9.68110493,5.95552067 9.71799849,5.93458922 C9.723269,5.93197279 9.72590426,5.92935636 9.73117477,5.92935636 Z M9.79442087,7.53061224 C9.79442087,7.55154369 9.77860935,7.56724228 9.76016257,7.57247514 C9.76016257,7.57247514 9.75752731,7.57247514 9.75489206,7.57247514 C9.71536324,7.57247514 9.52562492,7.55939299 9.4808256,7.48090005 C9.47291983,7.46520147 9.45710831,7.4181057 9.50981339,7.36839351 C9.5150839,7.36316065 9.52035441,7.36054422 9.52562492,7.35792779 C9.64421137,7.31344846 9.76806833,7.47566719 9.78651511,7.49921507 C9.79178562,7.50706436 9.79705613,7.51753009 9.79442087,7.53061224 Z M9.30426355,5.76713762 C9.32007508,5.69911041 9.47555509,5.61538462 9.49927238,5.60491889 C9.51244865,5.59968603 9.53880119,5.58660387 9.56251848,5.59968603 C9.5730595,5.60491889 9.58096526,5.61538462 9.58360052,5.62585034 C9.59677679,5.6729461 9.55461272,5.72265829 9.5150839,5.7566719 C9.49400187,5.77498692 9.42812051,5.82469911 9.37014491,5.82469911 C9.35696864,5.82469911 9.34379237,5.82208268 9.33325135,5.81684982 C9.30953406,5.80900052 9.29899304,5.78806907 9.30426355,5.76713762 Z M9.13824252,6.59654631 C9.19885337,6.51282051 9.37805067,6.50758765 9.4518378,6.53636839 C9.4860961,6.54945055 9.49927238,6.570382 9.50190763,6.58869702 C9.50981339,6.6043956 9.50981339,6.62532705 9.50190763,6.65149137 C9.48346085,6.71690215 9.41230898,6.81894296 9.32007508,6.83725798 C9.31216931,6.83987441 9.30162829,6.83987441 9.29108728,6.83987441 C9.25419371,6.83987441 9.20675913,6.82417582 9.16195981,6.7718472 C9.09607845,6.68550497 9.11979574,6.62532705 9.13824252,6.59654631 Z M8.58220383,6.79801151 C8.58220383,6.79539508 8.58220383,6.79539508 8.58483909,6.79277865 C8.62173265,6.71428571 8.9195164,6.66980638 8.95640996,6.67242282 C8.95904522,6.67242282 8.95904522,6.67242282 8.96168047,6.67242282 C9.03283234,6.68550497 9.06709065,6.76923077 9.09344319,6.82940869 C9.0987137,6.84249084 9.10398421,6.855573 9.10925472,6.86342229 C9.11452523,6.87388802 9.11716048,6.88697017 9.11188998,6.90005233 C9.09607845,6.94191523 8.91161064,7.06227106 8.84309402,7.09366824 C8.81937673,7.10413396 8.80092995,7.10936682 8.78248317,7.10936682 C8.77457741,7.10936682 8.7693069,7.10936682 8.76403639,7.10675039 C8.74295435,7.10151753 8.71660181,7.08581894 8.66653198,7.00994244 C8.65072045,6.98377813 8.56639231,6.85034014 8.58220383,6.79801151 Z M9.02756183,7.8707483 C8.8905286,8.02250131 8.52159298,8.09052852 8.4451706,8.09052852 C8.44253535,8.09052852 8.43990009,8.09052852 8.43726484,8.09052852 C8.43199433,8.09052852 8.42935908,8.09052852 8.42672382,8.08791209 C8.37928924,8.06959707 8.28705534,7.93615908 8.28705534,7.9047619 C8.28705534,7.89167975 8.29232585,7.86813187 8.32658415,7.86028257 C8.35820721,7.85243328 8.51368722,7.81057038 8.67443774,7.77917321 C8.98012725,7.71899529 9.02492658,7.74777603 9.04600861,7.78178964 C9.05391438,7.79748823 9.0644554,7.8288854 9.02756183,7.8707483 Z M9.47028458,8.85190999 L9.46237881,8.87807431 C9.46237881,8.87807431 9.46237881,8.87807431 9.46237881,8.87807431 C9.45447305,8.90423862 9.43339102,8.91993721 9.40967373,8.91993721 C9.40967373,8.91993721 9.40703847,8.91993721 9.40703847,8.91993721 C9.31480457,8.91993721 9.16195981,8.66875981 9.11716048,8.57195186 C9.07499641,8.4751439 9.07236116,8.41496599 9.10661947,8.38095238 C9.15141879,8.33647305 9.22520592,8.37048666 9.25155846,8.38095238 C9.5730595,8.52747253 9.51771916,8.70015699 9.47028458,8.85190999 Z M9.89456054,8.8440607 C9.88401952,8.85714286 9.86030223,8.88069074 9.82077342,8.88069074 C9.81550291,8.88069074 9.80759715,8.88069074 9.79969138,8.87807431 C9.79442087,8.87807431 9.79178562,8.87545788 9.78651511,8.87284144 C9.69164595,8.82574568 9.66529341,8.71062271 9.68110493,8.61643119 C9.69428121,8.54578755 9.72590426,8.50130822 9.77070358,8.49607535 C9.77333884,8.49607535 9.77597409,8.49607535 9.77860935,8.49607535 C9.81286765,8.49869178 9.84449071,8.52747253 9.87347851,8.59026688 C9.90510156,8.65567766 9.94463038,8.78126635 9.89456054,8.8440607 Z M9.91827783,7.33437991 C9.92091309,7.30559916 9.93935987,7.26373626 10.0105117,7.24280481 C10.1211924,7.20879121 10.1818033,7.26111983 10.2028853,7.32129775 C10.2239673,7.38147567 10.2055206,7.46258503 10.1501802,7.48874935 C10.1370039,7.49659864 10.1238277,7.5018315 10.1053809,7.5018315 C10.0842989,7.5018315 10.0579463,7.49398221 10.0289585,7.48090005 C9.97625343,7.45211931 9.91300732,7.39717425 9.91827783,7.33437991 Z M10.3056602,8.83882784 C10.2845782,8.8440607 10.2634962,8.84667713 10.2450494,8.84667713 C10.158086,8.84667713 10.0895694,8.79434851 10.0632168,8.69754055 C10.0394995,8.60858189 10.0579463,8.49345892 10.1238277,8.4751439 C10.1264629,8.4751439 10.1264629,8.4751439 10.1290982,8.4751439 C10.2582257,8.45421245 10.4084352,8.56933543 10.4321524,8.67660911 C10.437423,8.70538985 10.4453287,8.8021978 10.3056602,8.83882784 Z M10.5902677,7.73731031 C10.5849972,7.7451596 10.5770914,7.7530089 10.5665504,7.75562533 C10.5560094,7.75824176 10.5454684,7.76085819 10.5322921,7.76085819 C10.4400582,7.76085819 10.2977545,7.66666667 10.2661314,7.60125589 C10.2503199,7.56985871 10.2239673,7.48874935 10.3293775,7.41548927 C10.437423,7.33961277 10.5112101,7.38932496 10.5375626,7.41548927 C10.6166203,7.48874935 10.635067,7.66405024 10.5902677,7.73731031 Z M10.9012277,6.53375196 C10.893322,6.58084772 10.8511579,6.61486133 10.769465,6.63840921 C10.7668298,6.63840921 10.6693253,6.66718995 10.6008087,6.66718995 C10.5770914,6.66718995 10.5586447,6.66457352 10.5481036,6.6541078 C10.5349274,6.64102564 10.5322921,6.62532705 10.5375626,6.60962847 C10.5639152,6.52066981 10.6587843,6.36368394 10.8195348,6.40554683 C10.8248054,6.40816327 10.8300759,6.4107797 10.8353464,6.41339613 C10.8880515,6.4526426 10.9091335,6.49188906 10.9012277,6.53375196 Z M11.0988718,6.80847724 C11.0040027,6.77708006 10.9539328,6.73260073 10.9486623,6.68027211 C10.9460271,6.63317635 10.9776501,6.59392988 11.0461667,6.55991627 C11.2622576,6.4526426 11.3913851,6.56776557 11.4230081,6.60701204 C11.4783485,6.66980638 11.49416,6.74568289 11.4651722,6.79016222 C11.4651722,6.79277865 11.4625369,6.79277865 11.4625369,6.79277865 C11.4335491,6.82679226 11.3729383,6.83987441 11.3044217,6.83987441 C11.235905,6.84249084 11.1594827,6.82679226 11.0988718,6.80847724 Z M12.0528339,8.3992674 C12.0133051,8.44897959 11.9158007,8.46729461 11.8103905,8.46729461 C11.660181,8.46729461 11.4888895,8.43066457 11.4203729,8.40188383 C11.4019261,8.39403454 11.3439505,8.37048666 11.3518562,8.31815803 C11.3518562,8.3155416 11.3518562,8.31292517 11.3544915,8.31030874 C11.370303,8.25798012 11.4967952,8.21873365 11.5705824,8.1978022 C11.670722,8.17163789 11.9158007,8.12192569 12.0370224,8.2396651 C12.0396577,8.24228153 12.0396577,8.24228153 12.0422929,8.24489796 C12.094998,8.32600733 12.0712807,8.37571952 12.0528339,8.3992674 Z M12.4665689,8.72370487 C12.4507573,8.72370487 12.4349458,8.72370487 12.4191343,8.72108844 C12.2926421,8.70277342 12.1397973,8.61381476 12.1002685,8.45682889 C12.0976332,8.4411303 12.1002685,8.42804814 12.1108095,8.41496599 C12.2267607,8.28414443 12.4402163,8.30769231 12.571979,8.40188383 C12.664213,8.46991104 12.6932008,8.5588697 12.6484014,8.63736264 C12.6141431,8.69230769 12.5482618,8.72370487 12.4665689,8.72370487 Z" mask="url(#flag-middle2-b)"/>
  </g>
</svg>
