<svg xmlns="http://www.w3.org/2000/svg" width="60" height="60" viewBox="0 0 67 67">
  <g fill="none" fill-rule="evenodd">
    <circle cx="33.5" cy="33.5" r="33.5" fill="#EEE"/>
    <path fill="#F00" stroke="#F00" d="M29.942208,21.2601856 C27.782435,23.3046918 24.6940301,24.1458279 20.74922,23.7713624 L29.1003421,15.3948141 C29.3751796,15.1191397 29.3751796,14.6726978 29.1003421,14.3970235 C28.8255045,14.1213492 28.3799488,14.1213492 28.1051112,14.3970235 L19.7544581,22.7735718 C19.3806603,18.8181625 20.2192431,15.7208249 22.2566055,13.5540057 C25.7216224,9.86815511 31.6817515,9.8154665 33.577474,9.90626026 C33.6642401,11.8044616 33.6168705,17.7808555 29.942208,21.2601856 M5.05815295,12.7801417 C1.38302139,9.3012821 1.33612078,3.3248882 1.4228869,1.4266869 C3.31720242,1.33589313 9.27780056,1.38905217 12.7437554,5.07443235 C14.7811178,7.24078106 15.6197006,10.3381187 15.2459028,14.293528 L6.89524972,5.91745013 C6.62041217,5.64177579 6.17532541,5.64177579 5.90048785,5.91745013 C5.62565029,6.19312448 5.62565029,6.63956637 5.90048785,6.91524071 L14.2511409,15.2913186 C10.3058619,15.6657841 7.2179259,14.824648 5.05815295,12.7801417 M34.9465027,9.2735265 C34.9502548,9.18555533 34.9375916,9.0966433 34.9075752,9.01102431 C34.8419144,8.8228507 34.7012126,8.67466398 34.5248663,8.5975128 C34.506106,8.58857455 34.4868768,8.58151804 34.4671785,8.57446153 C34.3930756,8.54858766 34.3166276,8.5354155 34.2401796,8.53494507 C33.4114459,8.46296866 25.6212551,7.91961736 21.2332343,12.5858525 C18.7066986,15.2720308 17.7879157,19.1262968 18.4909558,24.0404507 L16.345722,26.1926863 L16.345722,16.2058423 C16.3635443,16.1785572 16.3827735,16.1522129 16.3968437,16.1225755 C16.4043478,16.1079921 16.4109139,16.0934086 16.4174799,16.0774139 C16.4465583,16.0068488 16.4634425,15.9329906 16.4686016,15.8591325 C17.2532488,10.8005554 16.344784,6.84608691 13.7671267,4.10580869 C9.3973971,-0.540197779 1.65645193,-0.0208386112 0.771437474,0.0544308334 C0.696865509,0.0577238716 0.611975411,0.0666621181 0.534589409,0.0934768578 C0.432815092,0.128288976 0.341827915,0.186152361 0.267724956,0.260010504 C0.191745972,0.335750383 0.132182202,0.42889632 0.0951307221,0.533803109 C0.0693353883,0.608131685 0.0566722244,0.684812432 0.0562032183,0.761493179 C-0.0164927224,1.59180924 -0.561477775,9.40101412 4.09246945,13.8061584 C6.1903336,15.7928013 9.00249399,16.7915327 12.478767,16.7915327 C13.2648212,16.7915327 14.0851128,16.7402554 14.9387038,16.6377008 L14.9387038,33.3969131 C14.9387038,33.7864324 15.2534069,34.1025641 15.6422129,34.1025641 C16.0305499,34.1025641 16.345722,33.7864324 16.345722,33.3969131 L16.345722,28.1882675 L19.4857177,25.0387117 C20.5466094,25.1916027 21.5606005,25.2715765 22.5211249,25.2715765 C25.9973979,25.2715765 28.8095583,24.2723746 30.9078915,22.2866726 C35.506965,17.9328057 35.0285788,10.2543814 34.9465027,9.2735265" transform="translate(16 16)"/>
  </g>
</svg>
