<svg xmlns="http://www.w3.org/2000/svg" width="67" height="67" viewBox="0 0 67 67">
  <g fill="none" fill-rule="evenodd">
    <circle cx="33.5" cy="33.5" r="33.5" fill="#EEE"/>
    <path fill="#F00" stroke="#F00" d="M26.9142931,21.5795823 C22.4890918,21.5675602 20.1275209,19.1479692 19.3455576,18.1558795 C20.12543,17.1758118 22.5079091,14.7379263 26.9148158,14.7259041 C31.3400171,14.7379263 33.7015881,17.1575172 34.4835514,18.149607 C33.7042016,19.1296746 31.3217225,21.5680829 26.9142931,21.5795823 M18.1511818,34.4872036 C17.1611829,33.7078538 14.7363649,31.3457602 14.7248654,26.9163772 C14.7363649,22.4911759 17.1559558,20.1290823 18.1480456,19.347119 C19.1286359,20.1264688 21.5665215,22.5089478 21.5780209,26.9163772 C21.5659988,31.3473283 19.1411808,33.7083765 18.1511818,34.4872036 M1.81724419,18.1527432 C2.59607126,17.1627443 4.9581649,14.7379263 9.38807055,14.7259041 C13.8132719,14.7379263 16.1753655,17.1575172 16.9573288,18.149607 C16.1774563,19.1296746 13.7949773,21.5680829 9.38754784,21.5795823 C4.9571195,21.5675602 2.59607126,19.1427422 1.81724419,18.1527432 M18.1485683,1.82037371 C19.1286359,2.60024619 21.5665215,4.98272523 21.5780209,9.39015466 C21.5659988,13.815356 19.1464078,16.1769269 18.154318,16.9583675 C17.1742504,16.1790177 14.7363649,13.7965387 14.7248654,9.38910926 C14.7363649,4.96390794 17.1564785,2.602337 18.1485683,1.82037371 M36.1969709,18.37646 C36.203766,18.3524157 36.2100385,18.3283714 36.2147428,18.3038043 C36.2199698,18.2781919 36.2236288,18.2531022 36.2262423,18.2274897 C36.2283331,18.2024 36.2293785,18.177833 36.2293785,18.1527432 C36.2293785,18.1276535 36.2283331,18.1030865 36.2262423,18.0785195 C36.2236288,18.052907 36.2199698,18.0278173 36.2147428,18.0022049 C36.2100385,17.9776378 36.203766,17.9535935 36.1969709,17.9295492 C36.1896531,17.9055049 36.1818125,17.8819832 36.1718812,17.8584616 C36.1614271,17.8328492 36.149405,17.8082821 36.1363374,17.7837151 C36.130065,17.771693 36.1258833,17.7586254 36.1190882,17.7471259 C36.0061844,17.560521 33.2954481,13.212157 26.9921758,13.1614549 C26.9764947,13.1604095 26.9618591,13.1567505 26.9456553,13.1567505 C26.9352012,13.1567505 26.9252699,13.1577959 26.9148158,13.1577959 C26.9038391,13.1577959 26.8944304,13.1567505 26.8834537,13.1567505 C26.8677726,13.1567505 26.8531369,13.1604095 26.8374558,13.1614549 C24.9917925,13.1760905 23.4587054,13.5597543 22.2042188,14.0997063 C22.7441707,12.8457424 23.1278345,11.3121326 23.1429929,9.46699196 C23.1440383,9.45131088 23.1476972,9.4366752 23.1476972,9.42047142 C23.1476972,9.41001737 23.1461291,9.40008601 23.1461291,9.38963196 C23.1461291,9.3786552 23.1476972,9.36924655 23.1476972,9.3582698 C23.1476972,9.34258871 23.1440383,9.32795304 23.1429929,9.31227195 C23.091768,3.00899972 18.7439267,0.29826336 18.5573219,0.18535957 C18.5452997,0.178041732 18.5322321,0.17386011 18.5196873,0.167587677 C18.4956429,0.154520109 18.4715986,0.142497946 18.4465089,0.132566594 C18.4224645,0.122635242 18.3984202,0.114271998 18.3738532,0.10695416 C18.3503316,0.100159025 18.3268099,0.0944092947 18.3027656,0.0891822674 C18.2771532,0.0844779428 18.2515408,0.0802963209 18.2259283,0.07820551 C18.2008386,0.0755919964 18.1762716,0.0745465909 18.1517045,0.0745465909 C18.1266148,0.0745465909 18.1020478,0.0755919964 18.0774807,0.07820551 C18.0513456,0.0802963209 18.0257332,0.0844779428 18.0001207,0.0891822674 C17.9760764,0.093886592 17.9520321,0.100159025 17.9285105,0.10695416 C17.9044661,0.114271998 17.8804218,0.122635242 17.8569002,0.132043891 C17.8312878,0.142497946 17.8067207,0.154520109 17.7821537,0.167587677 C17.7701315,0.174382813 17.757064,0.178041732 17.7455645,0.18535957 C17.5589596,0.29826336 13.2111183,3.00899972 13.1598935,9.31227195 C13.158848,9.32795304 13.1551891,9.34258871 13.1551891,9.3582698 C13.1551891,9.36924655 13.1567572,9.3786552 13.1567572,9.38963196 C13.1567572,9.40008601 13.1551891,9.41001737 13.1551891,9.42047142 C13.1551891,9.4366752 13.158848,9.45131088 13.1598935,9.46699196 C13.1750518,11.3121326 13.5587156,12.8457424 14.0981449,14.0997063 C12.844181,13.5597543 11.3105712,13.1760905 9.46543055,13.1614549 C9.44974947,13.1604095 9.43511379,13.1567505 9.41943271,13.1567505 C9.40845595,13.1567505 9.3990473,13.1577959 9.38807055,13.1577959 C9.37709379,13.1577959 9.36768514,13.1567505 9.35670838,13.1567505 C9.3410273,13.1567505 9.32639162,13.1604095 9.31071054,13.1614549 C3.00743831,13.212157 0.296701947,17.560521 0.18432086,17.7471259 C0.177003022,17.7586254 0.1728214,17.771693 0.166548967,17.7837151 C0.153481399,17.8082821 0.141459236,17.8328492 0.131005181,17.8589843 C0.121596532,17.8819832 0.113755991,17.9049821 0.106438153,17.9285038 C0.0991203147,17.9530708 0.092847882,17.9776378 0.0881435574,18.0032503 C0.0834392328,18.0272946 0.0797803137,18.0513389 0.0771668,18.0759059 C0.0745532864,18.1020411 0.0735078809,18.1286989 0.0735078809,18.1553568 C0.0735078809,18.177833 0.0745532864,18.2003092 0.0766440973,18.2227854 C0.079257611,18.2515341 0.0834392328,18.2792373 0.0891889628,18.3074633 C0.0933705847,18.3283714 0.098597612,18.3487568 0.104347342,18.3691422 C0.112187883,18.3973681 0.122119235,18.4250714 0.133618695,18.4522519 C0.141981939,18.4726373 0.151390588,18.4919773 0.16132194,18.5113173 C0.169685183,18.5269984 0.174912211,18.5437249 0.18432086,18.5588833 C0.29722465,18.7454881 3.00743831,23.0933295 9.31071054,23.1445543 C9.32639162,23.145077 9.3410273,23.1492586 9.35670838,23.1492586 C9.36768514,23.1492586 9.37709379,23.1476905 9.38807055,23.1476905 C9.3990473,23.1476905 9.40845595,23.1492586 9.41943271,23.1492586 C9.43511379,23.1492586 9.44974947,23.145077 9.46543055,23.1445543 C11.3105712,23.1293959 12.844181,22.7457321 14.0981449,22.2057802 C13.5581929,23.4602668 13.1750518,24.9933539 13.1598935,26.8390172 C13.158848,26.8541756 13.1551891,26.869334 13.1551891,26.8850151 C13.1551891,26.8959918 13.1567572,26.9054005 13.1567572,26.9163772 C13.1567572,26.9268313 13.1551891,26.9367626 13.1551891,26.9472167 C13.1551891,26.9628978 13.158848,26.9780562 13.1598935,26.9932145 C13.2111183,33.2964868 17.5589596,36.0072231 17.7455645,36.1201269 C17.7497461,36.1227404 17.7549732,36.1237858 17.7596775,36.1263993 C17.7994029,36.1493983 17.8427872,36.1650794 17.8856488,36.1807604 C17.9076024,36.188601 17.9285105,36.2006231 17.9509867,36.2063729 C18.0037797,36.2204858 18.0581407,36.2257129 18.1125018,36.2283264 C18.1250467,36.2288491 18.1370689,36.2335534 18.1496137,36.2335534 C18.1501364,36.2335534 18.1506591,36.2330307 18.1511818,36.2330307 C18.1511818,36.2330307 18.1517045,36.2335534 18.1522272,36.2335534 C18.1668629,36.2335534 18.1814986,36.2283264 18.1961343,36.227281 C18.2478818,36.2241448 18.2991067,36.2199631 18.3492862,36.2068956 C18.3785575,36.1995777 18.4057381,36.1844194 18.4344867,36.1734426 C18.4700305,36.1593296 18.5055743,36.1473075 18.5390273,36.1279675 C18.5452997,36.1248312 18.5515721,36.1237858 18.5573219,36.1201269 C18.7439267,36.0072231 23.091768,33.2964868 23.1429929,26.9932145 C23.1440383,26.9780562 23.1476972,26.9628978 23.1476972,26.9472167 C23.1476972,26.9367626 23.1461291,26.9268313 23.1461291,26.9163772 C23.1461291,26.9054005 23.1476972,26.8959918 23.1476972,26.8850151 C23.1476972,26.869334 23.1440383,26.8541756 23.1429929,26.8390172 C23.1278345,24.9933539 22.7441707,23.4597441 22.2047415,22.2057802 C23.4587054,22.7457321 24.9917925,23.1293959 26.8374558,23.1445543 C26.8531369,23.145077 26.8677726,23.1492586 26.8834537,23.1492586 C26.8944304,23.1492586 26.9038391,23.1476905 26.9148158,23.1476905 C26.9252699,23.1476905 26.9352012,23.1492586 26.9456553,23.1492586 C26.9618591,23.1492586 26.9764947,23.145077 26.9921758,23.1445543 C33.2954481,23.0933295 36.0061844,18.7454881 36.1190882,18.5588833 C36.1258833,18.5468611 36.130065,18.5343162 36.1363374,18.5222941 C36.149405,18.497727 36.1614271,18.47316 36.1718812,18.4470249 C36.1818125,18.424026 36.1896531,18.4005043 36.1969709,18.37646" transform="translate(15 15)"/>
  </g>
</svg>
