<svg xmlns="http://www.w3.org/2000/svg" width="67" height="67" viewBox="0 0 67 67">
  <g fill="none" fill-rule="evenodd">
    <circle cx="33.5" cy="33.5" r="33.5" fill="#EEE"/>
    <path fill="#F00" stroke="#F00" d="M26.1001207,13.0262941 C23.7035019,13.0196911 22.34436,11.8137012 21.798145,11.1840585 C22.34436,10.5577173 23.7091867,9.34701097 26.1001207,9.34040797 C28.4976868,9.34701097 29.8573025,10.5539441 30.4030437,11.1831152 C29.8568288,11.8127579 28.4976868,13.0196911 26.1001207,13.0262941 L26.1001207,13.0262941 Z M21.529538,17.5767009 C19.2058743,17.5705695 17.8595232,16.4376842 17.2815681,15.7948355 L18.2015589,14.8789058 C18.9453208,14.3700035 20.0349083,13.8950595 21.529538,13.8908148 C23.9271042,13.8974178 25.2862462,15.1043509 25.8319874,15.7339936 C25.2862462,16.3636364 23.9271042,17.5705695 21.529538,17.5767009 L21.529538,17.5767009 Z M16.9584817,22.1275793 C14.6352917,22.1209763 13.2889405,20.988091 12.7109854,20.3452423 L13.6423459,19.4179932 C14.3846866,18.9133357 15.4695367,18.4454663 16.9584817,18.4412216 C19.3555741,18.4478245 20.7142424,19.6542861 21.2604573,20.2834571 C20.7147161,20.9097984 19.3494156,22.1209763 16.9584817,22.1275793 L16.9584817,22.1275793 Z M12.3878991,26.6779861 C10.0647091,26.6713831 8.71835792,25.5389695 8.13992909,24.8961207 L9.07176325,23.9684 C9.81363021,23.4637425 10.8984804,22.9958731 12.3878991,22.9921 C14.785939,22.998703 16.1446072,24.2056361 16.6903484,24.8348072 C16.1446072,25.4644499 14.7854653,26.6713831 12.3878991,26.6779861 L12.3878991,26.6779861 Z M5.20372769,19.525056 C5.21035996,17.1390166 6.421697,15.7863459 7.05365774,15.2425422 C7.68277608,15.7858743 8.89932419,17.145148 8.90595646,19.5255277 C8.89932419,21.911567 7.68798715,23.2642377 7.05555268,23.8080415 C6.42643434,23.2647094 5.20988623,21.9054357 5.20372769,19.525056 L5.20372769,19.525056 Z M11.6251878,10.6911921 C12.2576223,11.2345242 13.4699068,12.5876665 13.4765391,14.9751209 C13.4699068,17.3606886 12.2585698,18.7138309 11.6261353,19.2576347 C10.9974907,18.7143026 9.78094258,17.3550289 9.77431031,14.9746492 C9.78094258,12.5876665 10.9932271,11.2345242 11.6251878,10.6911921 L11.6251878,10.6911921 Z M16.1962442,6.14078528 C16.8286787,6.68411744 18.0409632,8.03725976 18.0475954,10.4242424 C18.0409632,12.8116967 16.8286787,14.1648391 16.1962442,14.7076996 C15.5642834,14.1643674 14.3515252,12.8112251 14.3453667,10.4242424 C14.3519989,8.03678811 15.5642834,6.68411744 16.1962442,6.14078528 L16.1962442,6.14078528 Z M20.7668268,1.58990685 C21.3992613,2.13371065 22.6115458,3.48638132 22.618178,5.87383563 C22.6115458,8.26128994 21.3992613,9.61396062 20.7673005,10.1572928 C20.1348661,9.61396062 18.9225816,8.2608183 18.9159493,5.87383563 C18.9225816,3.48638132 20.1348661,2.133239 20.7668268,1.58990685 L20.7668268,1.58990685 Z M25.9096797,3.45666785 C27.6099099,1.77196085 29.429521,1.66867115 30.2628186,1.72951303 C30.3239302,2.55913218 30.2197088,4.36929607 28.529427,6.06154935 C26.8291968,7.74531305 25.0110069,7.84860276 24.1777093,7.78728923 C24.1165977,6.95814173 24.2208191,5.14892112 25.9096797,3.45666785 L25.9096797,3.45666785 Z M20.8478353,12.2443108 C20.9217377,12.3240184 21.0032199,12.4074991 21.0932293,12.494753 C20.9061045,12.5046575 20.7246645,12.5202217 20.5484356,12.5419172 L20.8478353,12.2443108 Z M16.2772526,16.7947176 C16.3511551,16.8748968 16.4326373,16.9583775 16.522173,17.0451598 C16.3355219,17.0555359 16.1540819,17.0711001 15.977853,17.0927957 L16.2772526,16.7947176 Z M19.4498471,10.8586252 C19.5938622,11.0062493 19.7288763,11.1302912 19.8515733,11.2354675 L19.3588903,11.7255041 C19.4053162,11.4514798 19.4332665,11.1604764 19.4498471,10.8586252 L19.4498471,10.8586252 Z M14.8787908,15.409032 C15.0228058,15.5566561 15.1582937,15.6811697 15.280517,15.7863459 L14.7883077,16.2763825 C14.8342598,16.0023582 14.8622101,15.7108832 14.8787908,15.409032 L14.8787908,15.409032 Z M10.3082082,19.9594387 C10.4522232,20.1070628 10.5872373,20.2315765 10.7099343,20.3367527 L10.217725,20.8267893 C10.2636772,20.552765 10.2916275,20.2612899 10.3082082,19.9594387 L10.3082082,19.9594387 Z M11.9515903,21.5960382 C11.7649393,21.6059427 11.5834993,21.6215069 11.4072703,21.6432025 L11.7061963,21.3451244 C11.7805725,21.4253036 11.8615809,21.5087843 11.9515903,21.5960382 L11.9515903,21.5960382 Z M31.9474156,11.4505365 C31.9564165,11.4283693 31.9639962,11.4066737 31.9706285,11.3840349 C31.976787,11.3632826 31.9819981,11.3420587 31.9862617,11.3208348 C31.9909991,11.2977243 31.9947889,11.2746138 31.9966839,11.2510317 C31.9990525,11.2283929 32,11.2062257 32,11.1835868 C32,11.1618913 31.9990525,11.1406674 31.9971576,11.1194435 C31.9947889,11.0944464 31.9909991,11.0694494 31.985788,11.0444523 C31.9819981,11.0260582 31.9777345,11.0076642 31.9725234,10.9892701 C31.9649437,10.9633298 31.9559428,10.9373895 31.9450469,10.9119208 C31.9384146,10.8954133 31.9303611,10.8798491 31.9223077,10.8638132 C31.9142542,10.848249 31.9090431,10.8322132 31.8995685,10.8171206 C31.8417729,10.7209056 30.6891789,8.8767834 28.1125414,8.18441222 C28.5801165,7.89859686 29.052429,7.53637543 29.5162143,7.07935385 C29.5176355,7.07793892 29.5200041,7.07746728 29.5214253,7.07605235 C29.5252152,7.07227921 29.5280576,7.06850607 29.5313738,7.06520457 C29.5370586,7.05954486 29.5427434,7.05482844 29.5484282,7.04916873 C29.5507968,7.04681052 29.5517443,7.04303738 29.554113,7.04067917 C32.3510367,4.22403019 31.6143808,1.06827025 31.5816932,0.934795425 C31.578377,0.922061078 31.5722185,0.910741658 31.5684286,0.89800731 C31.5613226,0.875368471 31.5542166,0.853672916 31.5452157,0.831977361 C31.5352673,0.809338521 31.5248451,0.787171324 31.5130018,0.765947412 C31.5030534,0.748024997 31.4926312,0.730574225 31.4812616,0.713595095 C31.4675233,0.692842825 31.4528376,0.67303384 31.4367306,0.653696498 C31.4229924,0.637189011 31.4087804,0.621624808 31.3936209,0.606532249 C31.3775139,0.590968046 31.361407,0.575875486 31.3443526,0.561726212 C31.3249295,0.545690367 31.3045589,0.531069449 31.2837147,0.516920175 C31.2680815,0.50654404 31.252922,0.497582832 31.236815,0.488621625 C31.2112334,0.47447235 31.1856518,0.462209645 31.1581752,0.450890225 C31.1439632,0.445230515 31.1292775,0.44051409 31.1145917,0.435797665 C31.0965899,0.429666313 31.0800092,0.421176748 31.0610598,0.416460323 C30.9269932,0.383445348 27.7572411,-0.349015446 24.9285772,2.43461856 C24.9257348,2.43744841 24.921945,2.43792006 24.9191026,2.44074991 C24.9138915,2.44593798 24.9101016,2.45112605 24.9048906,2.45631411 C24.9011007,2.46008725 24.8968371,2.46338875 24.8925735,2.46763353 C24.8902048,2.46999175 24.8897311,2.47329324 24.8873624,2.47565146 C24.4278407,2.93833274 24.0682769,3.4095036 23.7807205,3.87595802 C23.0867007,1.30644971 21.2315595,0.157528593 21.1349179,0.0995165664 C21.124022,0.0929135715 21.1117049,0.089612074 21.1003353,0.0834807216 C21.0790173,0.0721613017 21.0572255,0.0613135243 21.0344863,0.0523523169 C21.0131683,0.0433911095 20.9918503,0.0363164721 20.9695848,0.0297134772 C20.9477931,0.0231104823 20.9260013,0.0174507723 20.9037358,0.0132059899 C20.8814704,0.0089612074 20.8596786,0.00565970994 20.8374131,0.00330149746 C20.812779,0.00094328499 20.7886185,0 20.7639844,0 C20.7445613,0 20.725612,0.00094328499 20.7061889,0.00282985497 C20.6787123,0.00518806744 20.6512358,0.0089612074 20.624233,0.0146209173 C20.608126,0.0179224148 20.5920191,0.0221671973 20.5763859,0.0264119797 C20.5474881,0.0344299021 20.5195378,0.0443343945 20.4915875,0.0561254569 C20.4773755,0.0622568093 20.4636372,0.0688598043 20.449899,0.0759344417 C20.4328445,0.0839523641 20.4153164,0.0900837165 20.3992095,0.0995165664 C20.2850396,0.168376371 17.7155081,1.77007428 17.5136976,5.43945289 C17.0167509,4.93055064 16.6079188,4.67680698 16.5643353,4.650395 C16.5529656,4.64379201 16.5411223,4.64001887 16.5297527,4.63388751 C16.5084347,4.62256809 16.4866429,4.61219196 16.4643774,4.60323075 C16.4425857,4.5937979 16.4203202,4.58625162 16.3980547,4.57964863 C16.3767367,4.57351727 16.3558924,4.56832921 16.3341007,4.56408442 C16.3108877,4.559368 16.2881485,4.5560665 16.2649356,4.55370829 C16.2417226,4.55182172 16.2185097,4.55040679 16.194823,4.55040679 C16.1744524,4.55087843 16.1540819,4.55182172 16.1337113,4.55370829 C16.1071822,4.55559486 16.0811269,4.55983964 16.0550715,4.56502771 C16.0380171,4.56832921 16.0209627,4.57257399 16.0039083,4.57776206 C15.975958,4.58530834 15.9489552,4.59474119 15.9219524,4.60606061 C15.9067929,4.61219196 15.8921072,4.61973824 15.8778951,4.62681288 C15.8613145,4.63530244 15.8442601,4.64049051 15.8281531,4.650395 C15.714457,4.71878316 13.1444518,6.32048108 12.9426412,9.98985969 C12.4456946,9.48095743 12.0373361,9.22721377 11.9932789,9.20080179 C11.9828568,9.19467044 11.9714872,9.19136894 11.961065,9.18570923 C11.9378521,9.17344653 11.9151128,9.16212711 11.8909524,9.15269426 C11.8710556,9.14467634 11.8511588,9.1376017 11.8307882,9.13147035 C11.8071016,9.12439571 11.7834149,9.118736 11.7592545,9.11401957 C11.7388839,9.10977479 11.7185134,9.10694494 11.6981428,9.10505837 C11.6720875,9.10222851 11.6465058,9.10128523 11.6204505,9.10128523 C11.6024486,9.10128523 11.5844467,9.10222851 11.5659711,9.10364344 C11.5375471,9.10600165 11.5095968,9.11024643 11.4816465,9.11590614 C11.4660133,9.11920764 11.4503801,9.12345242 11.4352206,9.12769721 C11.4063229,9.13571513 11.3778988,9.14514798 11.3499486,9.15693904 C11.3352628,9.16307039 11.3215245,9.17014503 11.3073125,9.17721967 C11.2907318,9.18570923 11.2736774,9.19136894 11.2575705,9.20080179 C11.1434007,9.2696616 8.57386915,10.8713595 8.37205859,14.5407381 C7.87511196,14.0318359 7.46675352,13.7780922 7.42269628,13.7516802 C7.41227414,13.7450772 7.40090454,13.7417757 7.39000866,13.736116 C7.36726944,13.7238533 7.34453023,13.7130055 7.32084354,13.703101 C7.29999926,13.6950831 7.27915498,13.6875368 7.25783696,13.6814055 C7.23557148,13.6748025 7.21377973,13.6691428 7.19104051,13.664898 C7.16830129,13.6601816 7.14556208,13.6568801 7.12234913,13.6549935 C7.09960991,13.6526353 7.07734443,13.651692 7.05460521,13.651692 C7.03186599,13.651692 7.00960051,13.6526353 6.98686129,13.6549935 C6.96412208,13.6568801 6.94138286,13.6601816 6.91864364,13.664898 C6.89590442,13.6691428 6.87363894,13.6748025 6.85137346,13.6814055 C6.83005544,13.6875368 6.80968489,13.6946115 6.78884061,13.703101 C6.76468019,13.7130055 6.74146724,13.724325 6.71872803,13.7365877 C6.70830588,13.7422474 6.69693628,13.7455489 6.68651413,13.7516802 C6.56855445,13.8224266 3.81568799,15.5311874 3.78442156,19.4783634 C3.78394783,19.4882679 3.78157916,19.4967575 3.78157916,19.506662 C3.78157916,19.5132649 3.78252663,19.5189247 3.78252663,19.5255277 C3.78252663,19.531659 3.78157916,19.5377904 3.78157916,19.5443933 C3.78157916,19.5538262 3.78394783,19.5627874 3.78442156,19.5722203 C3.80763451,22.4784813 5.3022643,24.168848 6.13887799,24.8871595 L0.208205956,30.7921236 C-0.0694019852,31.0685061 -0.0694019852,31.5165664 0.208205956,31.7924773 C0.347009926,31.9306686 0.528449929,32 0.710363665,32 C0.892277401,32 1.07419114,31.9306686 1.21299511,31.7924773 L7.13561367,25.8960028 C7.92248533,26.7459026 9.58955417,28.0688598 12.3405257,28.0905554 C12.3500004,28.091027 12.3590013,28.0933852 12.3689497,28.0933852 C12.375582,28.0933852 12.3812668,28.0929136 12.3878991,28.0929136 C12.3945313,28.0929136 12.4002161,28.0933852 12.4068484,28.0933852 C12.4167968,28.0933852 12.4257978,28.091027 12.4352724,28.0905554 C16.4004234,28.059427 18.1162868,25.3187124 18.1873469,25.2012734 C18.1939791,25.1904257 18.1972953,25.1791062 18.2034538,25.1682585 C18.2152972,25.1460913 18.226193,25.1239241 18.2356677,25.1008136 C18.2441949,25.0795897 18.2513009,25.0588374 18.2579332,25.0376135 C18.2645655,25.0154463 18.2697765,24.9932791 18.2745139,24.9706403 C18.2787775,24.9484731 18.2820936,24.9267775 18.2839885,24.9046103 C18.2868309,24.8810282 18.2877784,24.8569744 18.2877784,24.8329206 C18.2873047,24.81264 18.2868309,24.7933027 18.284936,24.7734937 C18.2825673,24.7466101 18.2787775,24.7206697 18.2730927,24.6942578 C18.2697765,24.676807 18.2655129,24.6602995 18.2607756,24.6433204 C18.2527221,24.6159651 18.2432474,24.5890815 18.2323516,24.5621979 C18.2257193,24.5466337 18.2181396,24.5315411 18.2105598,24.5169202 C18.2025063,24.5008843 18.1968215,24.4839052 18.1873469,24.468341 C18.1608178,24.4249499 17.9059491,24.0183941 17.3952641,23.5236411 C21.0804385,23.3227214 22.6892381,20.7640608 22.7584032,20.6508666 C22.7645618,20.6400189 22.7683516,20.6282278 22.7740364,20.61738 C22.7858798,20.5952128 22.7967757,20.5730456 22.8062503,20.5499351 C22.8152513,20.5287112 22.8223573,20.5074873 22.8289895,20.4862634 C22.8351481,20.4640962 22.8408329,20.4424007 22.8450965,20.4202335 C22.8498338,20.397123 22.85315,20.3744841 22.8555186,20.3513737 C22.8574136,20.3292065 22.858361,20.3070393 22.858361,20.2844004 C22.858361,20.2617616 22.8574136,20.2395944 22.8555186,20.2169555 C22.85315,20.1938451 22.8498338,20.1712062 22.8450965,20.1485674 C22.8408329,20.1259285 22.8351481,20.104233 22.8289895,20.0825374 C22.8223573,20.0608419 22.8152513,20.0400896 22.8067241,20.0188657 C22.7972494,19.9957552 22.7858798,19.9731164 22.7740364,19.9504775 C22.7678779,19.9396298 22.7645618,19.9283103 22.7584032,19.9179342 C22.7318741,19.8740715 22.4770054,19.4675156 21.9658468,18.9732343 C25.6510211,18.7718429 27.2602945,16.2136541 27.3289858,16.1004599 C27.3360918,16.0891404 27.339408,16.0768777 27.3455665,16.0655583 C27.3569361,16.0443344 27.3673583,16.0231105 27.3763592,16.0014149 C27.3858339,15.9792477 27.3934136,15.9570805 27.4000459,15.9344417 C27.4062044,15.9136894 27.4114155,15.8929372 27.4156791,15.8717132 C27.4204164,15.8486028 27.4237326,15.8250206 27.4261012,15.8014385 C27.4279962,15.7787997 27.4294174,15.7566325 27.4294174,15.7339936 C27.4289436,15.7127697 27.4279962,15.6915458 27.4261012,15.6703219 C27.4237326,15.6448532 27.4204164,15.6198561 27.4152054,15.5948591 C27.4114155,15.576465 27.4066782,15.5585426 27.4014671,15.5406202 C27.3938874,15.5142082 27.3848864,15.4882679 27.3739905,15.4623276 C27.3673583,15.4458201 27.3597785,15.4302559 27.3517251,15.4146917 C27.3436716,15.3991275 27.3384605,15.38262 27.3289858,15.3675274 C27.3024568,15.3241363 27.047588,14.9171088 26.5364294,14.4223559 C30.2220775,14.2214362 31.8308771,11.6632473 31.8995685,11.5495814 C31.9066745,11.5387336 31.9099906,11.5264709 31.9161491,11.5151515 C31.9275187,11.4939276 31.9384146,11.4727037 31.9474156,11.4505365 L31.9474156,11.4505365 Z" transform="translate(17 18)"/>
  </g>
</svg>
