<svg xmlns="http://www.w3.org/2000/svg" width="67" height="67" viewBox="0 0 67 67">
  <g fill="none" fill-rule="evenodd">
    <circle cx="33.5" cy="33.5" r="33.5" fill="#EEE"/>
    <path fill="#F00" stroke="#F00" d="M17.8675922,35.3313182 C17.6706027,33.8021723 17.4663748,28.975381 21.7489567,24.6215483 C26.0573902,20.2870521 30.8363235,20.4934815 32.3501953,20.6925945 C32.5466677,22.2227856 32.7514127,27.0532352 28.4631434,31.4081131 C24.1557439,35.7363381 19.3809469,35.5309538 17.8675922,35.3313182 L17.8675922,35.3313182 Z M5.53687916,31.4081131 C1.24654177,27.0511448 1.45335485,22.217037 1.65034431,20.6899815 C3.15852872,20.4851198 7.92039993,20.26458 12.2510659,24.6215483 C15.2912182,27.7122417 16.0703865,31.0428113 16.1955084,33.2623201 L16.1955084,33.3313041 C16.1955084,33.3506405 16.1996446,33.3689318 16.2011957,33.3877456 C16.2404902,34.2364581 16.1862018,34.9111428 16.1319134,35.3339313 C14.624763,35.5387929 9.86651104,35.7593328 5.53687916,31.4081131 L5.53687916,31.4081131 Z M8.39348486,20.0069351 C8.39348486,19.5198661 8.41054694,19.0463848 8.43484748,18.5796975 L16.1955084,18.5796975 L16.1955084,27.406517 C15.541979,26.1365839 14.6325185,24.82641 13.3792312,23.5460247 C13.3771631,23.5439342 13.376129,23.5407986 13.3740609,23.5387082 C13.3652714,23.5298239 13.3564818,23.5219848 13.3476922,23.5131005 C13.3368346,23.5021257 13.327528,23.491151 13.3166703,23.4801763 C13.3140851,23.4775632 13.3104659,23.4770406 13.3073637,23.4744276 C11.6657849,21.8318762 9.97353681,20.7751663 8.38366124,20.1062303 C8.3877975,20.0733061 8.39348486,20.0409045 8.39348486,20.0069351 L8.39348486,20.0069351 Z M16.1955084,2.34284383 L16.1955084,9.61177418 L10.6482645,9.61177418 C12.411863,5.89447591 14.7896965,3.5192305 16.1955084,2.34284383 L16.1955084,2.34284383 Z M23.303157,9.61177418 L17.7466065,9.61177418 L17.7466065,2.33761776 C19.1544866,3.51034619 21.5385244,5.88297857 23.303157,9.61177418 L23.303157,9.61177418 Z M17.7466065,11.1795929 L23.9721973,11.1795929 C24.6246926,12.8811989 25.1298335,14.8216359 25.3774922,17.0118787 L17.7466065,17.0118787 L17.7466065,11.1795929 Z M9.97715604,11.1795929 L16.1955084,11.1795929 L16.1955084,17.0118787 L8.56617378,17.0118787 C8.81486651,14.8226811 9.32259263,12.8822441 9.97715604,11.1795929 L9.97715604,11.1795929 Z M20.6921418,23.4744276 C20.6895567,23.4770406 20.6859374,23.4775632 20.6828352,23.4801763 C20.6724946,23.491151 20.662671,23.5021257 20.6518133,23.5131005 C20.6430237,23.5219848 20.6342342,23.5298239 20.6254446,23.5387082 C20.6233765,23.5407986 20.6228594,23.5439342 20.6207913,23.5460247 C19.3287266,24.8656054 18.4042721,26.2165426 17.7466065,27.5230582 L17.7466065,18.5796975 L25.5077844,18.5796975 C25.532602,19.0463848 25.5491471,19.5198661 25.5491471,20.0069351 C25.5491471,20.0487436 25.5548344,20.0884617 25.5610388,20.1281798 C23.9871913,20.798161 22.3151075,21.85069 20.6921418,23.4744276 L20.6921418,23.4744276 Z M29.5980302,32.4763203 C35.3407124,26.6111103 33.8423517,20.1010043 33.7756544,19.8261134 C33.7720352,19.8125256 33.7663479,19.8010283 33.7622116,19.7879631 C33.7544561,19.7613102 33.7451495,19.7346573 33.7342918,19.7090496 C33.7249852,19.6860549 33.7141275,19.6641054 33.7027528,19.642156 C33.6908611,19.6202065 33.6784523,19.5987796 33.6644924,19.5778754 C33.6500155,19.5564485 33.6350215,19.5360669 33.6189935,19.5156852 C33.6029655,19.4968714 33.5869375,19.4785802 33.5693584,19.4613342 C33.5522963,19.4435656 33.5342002,19.4268422 33.51507,19.411164 C33.4954227,19.3944406 33.4747414,19.3787624 33.453026,19.3641294 C33.4333788,19.3510643 33.4132145,19.3390443 33.3925332,19.327547 C33.3692667,19.3144818 33.3454832,19.3029845 33.3206657,19.2925324 C33.2984333,19.2831255 33.2751668,19.2747638 33.2519003,19.2674473 C33.2363893,19.2627438 33.2229465,19.2554273 33.2074355,19.2517691 C33.0362977,19.2089154 30.4371743,18.5958982 27.0909386,19.5789206 C26.8986024,6.10560884 17.7657367,0.353804432 17.3727919,0.113405557 C17.3609001,0.106089069 17.3479743,0.101908219 17.3355655,0.095636944 C17.3190205,0.0867526377 17.3029924,0.0763005127 17.2859304,0.0689840252 C17.2740386,0.0632353564 17.2621469,0.0590545064 17.2497381,0.0543510502 C17.2306079,0.0470345626 17.2114777,0.0412858939 17.1918304,0.0355372251 C17.1758024,0.0303111626 17.1597744,0.0245624938 17.1432293,0.0209042501 C17.1308206,0.0177686126 17.1178947,0.0162007938 17.1049689,0.0135877625 C17.0848046,0.00992951878 17.0651574,0.00836170002 17.0449931,0.00627127502 C17.0263799,0.00470345626 17.0082838,0.00209042501 16.9891536,0.00209042501 C16.9829492,0.00156781875 16.9772618,0 16.9710574,0 C16.9648531,0 16.9591657,0.00156781875 16.9529613,0.00209042501 C16.9343481,0.00261303126 16.9157349,0.00470345626 16.8971218,0.00627127502 C16.8769575,0.00836170002 16.8567932,0.00992951878 16.8366289,0.0135877625 C16.8242202,0.0156781875 16.8118114,0.0177686126 16.7994026,0.0209042501 C16.7828575,0.0245624938 16.7663125,0.0303111626 16.7497674,0.0355372251 C16.7301202,0.0412858939 16.71099,0.0470345626 16.6918598,0.0548736564 C16.679968,0.0590545064 16.6685933,0.0632353564 16.6572186,0.0684614189 C16.6391224,0.0763005127 16.6225774,0.0867526377 16.6055153,0.0961595503 C16.5936236,0.102430825 16.5812148,0.106089069 16.569323,0.113405557 C16.1768952,0.353804432 7.05126796,6.10142799 6.85221036,19.563765 C3.53337743,18.6042599 0.962173782,19.209438 0.792587055,19.2517691 C0.781729368,19.2543821 0.77242278,19.2596082 0.762082125,19.2627438 C0.731060163,19.2716281 0.701072266,19.2820803 0.671601402,19.2951454 C0.652471192,19.3035071 0.633858014,19.312914 0.61576187,19.3223209 C0.590427267,19.3359087 0.56612673,19.3505417 0.542343226,19.3667425 C0.523730048,19.3798076 0.506150936,19.3933954 0.488571824,19.4075058 C0.467890516,19.4247518 0.44772624,19.443043 0.42859603,19.462902 C0.412568016,19.4791028 0.397057035,19.4963488 0.38258012,19.5141174 C0.36551804,19.5344991 0.350007059,19.5559259 0.335013111,19.578398 C0.32157026,19.5987796 0.309161475,19.6196839 0.297786756,19.6416334 C0.285895004,19.6635828 0.275037317,19.6855323 0.265730728,19.7090496 C0.254873041,19.7346573 0.245566453,19.7613102 0.237810962,19.7879631 C0.2336747,19.8010283 0.227470308,19.8125256 0.224368112,19.8261134 C0.157670893,20.1010043 -1.34068989,26.6111103 4.40147534,32.4763203 C4.4040605,32.4789333 4.40509457,32.4825916 4.40767973,32.4852046 C4.41698632,32.4951341 4.42680994,32.5029732 4.43611653,32.5123801 C4.44645719,32.5228322 4.45524674,32.5332844 4.4655874,32.5437365 C4.46868959,32.5463495 4.47282585,32.5473947 4.47592805,32.5505304 C8.23372175,36.3085919 12.2583043,37 14.7023179,37 C16.031609,37 16.8935025,36.795661 16.9896706,36.7721437 C16.9932899,36.7716211 16.996392,36.7695306 17.0000113,36.7684854 C17.0036305,36.7695306 17.0067327,36.7716211 17.0098349,36.7721437 C17.106003,36.795661 17.9678965,37 19.2977046,37 C21.7417182,37 25.7663008,36.3085919 29.5240945,32.5505304 C29.5271967,32.5473947 29.531333,32.5463495 29.5344352,32.5437365 C29.5442588,32.5332844 29.5535654,32.5228322 29.563389,32.5123801 C29.5732126,32.5029732 29.5825192,32.4951341 29.5918258,32.4852046 C29.594928,32.4825916 29.595445,32.4789333 29.5980302,32.4763203 L29.5980302,32.4763203 Z" transform="translate(17 15)"/>
  </g>
</svg>
