<svg xmlns="http://www.w3.org/2000/svg" width="67" height="67" viewBox="0 0 67 67">
  <g fill="none" fill-rule="evenodd">
    <circle cx="33.5" cy="33.5" r="33.5" fill="#EEE"/>
    <path fill="#F00" stroke="#F00" d="M26.1717008,13.0078806 C25.7888815,13.5068363 25.2109086,13.7927654 24.5866043,13.7927654 L17.5395469,13.7927654 L10.4606659,13.7927654 L3.41314045,13.7927654 C2.78883612,13.7927654 2.21133122,13.5068363 1.82804393,13.0078806 C1.44428864,12.5079781 1.31325025,11.8688981 1.46815635,11.254908 C2.24081485,8.1948985 4.05054862,5.63147782 6.4527631,3.88560608 C7.70698769,6.92762663 10.6834311,8.98404389 14.0001064,8.98404389 C17.3167816,8.98404389 20.292757,6.92762663 21.5474496,3.88560608 C23.9496641,5.63100443 25.7593979,8.1948985 26.5320564,11.2553814 C26.6869625,11.8688981 26.5554561,12.5079781 26.1717008,13.0078806 L26.1717008,13.0078806 Z M17.9902253,29.7536688 C17.9715056,31.6292501 16.6288301,32.5798223 14.0001064,32.5798223 C11.3709147,32.5798223 10.0287072,31.6292501 10.0099874,29.7536688 L11.7083385,15.2129431 L16.2918742,15.2129431 L17.9902253,29.7536688 Z M20.3484484,3.10734872 C19.3698724,5.75598006 16.8328756,7.56386622 14.0001064,7.56386622 C11.1678052,7.56386622 8.63034034,5.75598006 7.65129637,3.10734872 C9.54199314,2.03085406 11.7120825,1.42017766 14.0001064,1.42017766 C16.2881302,1.42017766 18.4582196,2.03085406 20.3484484,3.10734872 L20.3484484,3.10734872 Z M27.8920477,10.9036507 C26.9546552,7.19130628 24.6446356,4.13413717 21.598929,2.20932305 C21.5657014,2.18518003 21.5310698,2.16387736 21.4936303,2.14588845 C19.2949933,0.782517891 16.7233649,0 14.0001064,0 C11.2735719,0 8.6991355,0.783938069 6.49862654,2.15062237 C6.47382284,2.16293058 6.45182711,2.17760575 6.42936339,2.19275431 C3.36961698,4.11614826 1.04789751,7.18041826 0.10816506,10.9036507 C-0.155315703,11.9455877 0.0679175543,13.0296567 0.71936555,13.8789229 C1.37034555,14.726769 2.35219749,15.2129431 3.41314045,15.2129431 L10.2945279,15.2129431 L8.61115258,29.6301133 L8.60600464,29.7134304 C8.60600464,32.4373312 10.5720485,34 14.0001064,34 C17.4276962,34 19.3942081,32.4373312 19.3942081,29.7134304 L17.7047488,15.2129431 L24.5866043,15.2129431 C25.6480152,15.2129431 26.6298672,14.726769 27.2803792,13.8789229 C27.9322952,13.0296567 28.1550604,11.9455877 27.8920477,10.9036507 L27.8920477,10.9036507 Z" transform="translate(20 17)"/>
  </g>
</svg>
