<svg xmlns="http://www.w3.org/2000/svg" width="67" height="67" viewBox="0 0 67 67">
  <g fill="none" fill-rule="evenodd">
    <circle cx="33.5" cy="33.5" r="33.5" fill="#EEE"/>
    <path fill="#F00" stroke="#F00" d="M34.2678043,32.5214177 L23.2985372,32.5214177 C23.3473503,29.9161557 23.9604421,20.8381532 30.0342491,17.6562441 C30.393025,17.4679713 30.5336065,17.0219323 30.3471407,16.6591868 C30.1606749,16.2964413 29.7184287,16.1564688 29.360141,16.3437559 C26.0608673,18.0722186 23.7139362,21.5675872 22.5721991,26.4523302 C21.9644767,29.0536493 21.8473254,31.3700949 21.8312171,32.5214177 L16.8425241,32.5214177 L16.8425241,29.3099369 C17.186656,23.2349351 19.0059182,11.752265 27.6136103,7.24258897 C27.9728743,7.05431616 28.1129677,6.60827716 27.9265019,6.24553164 C27.740036,5.88327897 27.2977899,5.74330652 26.9395021,5.93010075 C22.1660746,8.43087628 18.7066942,13.2633761 16.8425241,19.968254 L16.8425241,0.73929115 C16.8425241,0.331202435 16.5145004,0 16.1103284,0 C15.7061564,0 15.3781328,0.331202435 15.3781328,0.73929115 L15.3781328,24.6839458 C11.4520997,14.3797057 0.978773065,12.5383779 0.848442239,12.5176778 C0.452568456,12.4506487 0.0732911084,12.7266507 0.00934602138,13.1298108 C-0.0545990656,13.5329709 0.216313326,13.9124737 0.616092152,13.9775313 C0.652701935,13.9834457 4.33027663,14.605436 7.9912549,17.2856128 C12.4171336,20.5256795 14.8651077,25.2260926 15.30052,31.2690585 C15.2951506,31.7707908 15.2995438,32.1936653 15.3068657,32.5214177 L9.13738516,32.5214177 C8.80496833,23.6770312 2.55494624,22.5350728 2.49002489,22.5242299 C2.0907342,22.4606509 1.71926694,22.7302457 1.65239307,23.1309415 C1.58503107,23.5321302 1.85301467,23.9131115 2.24986472,23.9830978 C2.46513024,24.0210481 7.3723055,24.9767051 7.67445824,32.5214177 L1.47520172,32.5214177 C1.07102972,32.5214177 0.743006065,32.8521273 0.743006065,33.2607088 C0.743006065,33.6687976 1.07102972,34 1.47520172,34 L34.2678043,34 C34.6719763,34 35,33.6687976 35,33.2607088 C35,32.8521273 34.6719763,32.5214177 34.2678043,32.5214177" transform="translate(16 17)"/>
  </g>
</svg>
