<svg xmlns="http://www.w3.org/2000/svg" width="67" height="67" viewBox="0 0 67 67">
  <g fill="none" fill-rule="evenodd">
    <circle cx="33.5" cy="33.5" r="33.5" fill="#EEE"/>
    <path fill="#F00" stroke="#F00" d="M35.5410933,25.7615532 C35.4839399,26.389334 35.0334937,26.9641172 34.3059989,27.3375094 L25.4089605,31.9078304 C25.2345943,31.9955174 25.0142147,31.9280659 24.9841849,31.9068668 L22.4737952,21.3902141 C22.9993157,20.2310119 23.2894418,18.8525923 23.2894418,17.3884129 C23.2894418,16.6339196 23.2143674,15.9102614 23.07439,15.2328556 L34.7516016,24.2029417 C35.3129641,24.6341496 35.5929188,25.1877337 35.5410933,25.7615532 L35.5410933,25.7615532 Z M12.0292562,31.8755501 C11.986149,31.9275841 11.765285,31.9959992 11.5923718,31.9078304 L2.69436473,27.3375094 C1.96686995,26.9641172 1.51690812,26.3898158 1.45975474,25.7615532 C1.40696051,25.1882155 1.68739958,24.6346314 2.24924642,24.2029417 L13.9254893,15.2333374 C13.7859963,15.9107432 13.7109219,16.6339196 13.7109219,17.3884129 C13.7109219,18.8540376 14.0015323,20.2339027 14.5280216,21.3940685 L12.0292562,31.8755501 Z M16.3714604,8.14081197 C16.3714604,6.97341919 17.3266,6.02331661 18.5001818,6.02331661 C19.6737636,6.02331661 20.6289033,6.97341919 20.6289033,8.14081197 C20.6289033,9.30868655 19.6737636,10.2583073 18.5001818,10.2583073 C17.3266,10.2583073 16.3714604,9.30868655 16.3714604,8.14081197 L16.3714604,8.14081197 Z M18.5001818,33.5546107 C16.6916162,33.5546107 15.1639741,30.9509827 15.1639741,27.8694127 C15.1639741,25.9629441 15.7413201,24.1846335 16.7080842,23.1116728 L17.1435155,22.6293946 L16.7085685,22.1466345 C16.4673619,21.8787557 16.2503727,21.5670334 16.0605072,21.2206218 C15.6328256,20.4401115 15.3494804,19.4794094 15.2308145,18.4469197 C15.1906133,18.100508 15.1639741,17.7483148 15.1639741,17.3884129 C15.1639741,15.9733767 15.488489,14.6628904 16.0125565,13.6549722 C16.2828242,13.1351139 16.6049175,12.6961973 16.9652744,12.368094 C17.4283137,11.9470039 17.9509281,11.7036967 18.5001818,11.7036967 C19.0499199,11.7036967 19.5725343,11.9470039 20.0350893,12.368094 C20.3959306,12.6961973 20.7175394,13.1351139 20.9878071,13.6549722 C21.5113903,14.6624086 21.8363896,15.9728949 21.8363896,17.3884129 C21.8363896,17.7463876 21.8097503,18.0971354 21.7705179,18.4421017 C21.6523363,19.4765187 21.3685068,20.4391479 20.9403408,21.2206218 C20.7504753,21.5675152 20.5334862,21.8792375 20.2922795,22.1466345 L19.8573326,22.6293946 L20.2927639,23.1116728 C21.2595279,24.1841517 21.8363896,25.9624623 21.8363896,27.8694127 C21.8363896,30.9509827 20.3087474,33.5546107 18.5001818,33.5546107 L18.5001818,33.5546107 Z M35.6399008,23.059157 L22.1100478,12.6658442 C21.7022245,11.9720573 21.2038276,11.4030557 20.6390746,10.9920833 C21.5128433,10.3416581 22.0819554,9.30772295 22.0819554,8.14081197 C22.0819554,6.92475775 21.4648926,5.84986989 20.5271896,5.20667164 L21.8993552,0.942291338 C22.0214116,0.562635742 21.810719,0.155517749 21.4285663,0.0341050455 C21.0478666,-0.0863440649 20.6376216,0.122273794 20.5155652,0.50192939 L19.1821476,4.6444152 C18.9612837,4.60201711 18.7336389,4.57792729 18.5001818,4.57792729 C18.2667248,4.57792729 18.0390799,4.60201711 17.8177317,4.64489699 L16.4847985,0.50192939 C16.3622577,0.122273794 15.9534657,-0.0858622685 15.5717974,0.0341050455 C15.1891603,0.155517749 14.9789521,0.562635742 15.1010085,0.942291338 L16.4731741,5.20667164 C15.5349867,5.84986989 14.9184082,6.92475775 14.9184082,8.14081197 C14.9184082,9.30772295 15.4875203,10.3421399 16.3617734,10.9920833 C15.7965361,11.4030557 15.2986236,11.9720573 14.8903159,12.6658442 L1.36094719,23.059157 C0.40677627,23.7924512 -0.0848397123,24.8249409 0.0120304321,25.8921201 C0.115197136,27.0224145 0.849957181,28.0173242 2.02741379,28.6219787 L10.9259052,33.1922998 C11.1922981,33.3291299 11.4887208,33.3980268 11.7856278,33.3980268 C12.0563798,33.3980268 12.3276162,33.3406931 12.5785099,33.2260255 C13.017816,33.0255982 13.3282848,32.666178 13.4295141,32.2407518 L13.9419572,30.0929032 C14.5565983,32.969228 16.3390089,35 18.5001818,35 C20.6618391,35 22.4442498,32.969228 23.0584065,30.0929032 L23.5708495,32.2407518 C23.6720788,32.666178 23.9825477,33.0251164 24.4218538,33.2260255 C24.6722631,33.3402113 24.9434995,33.3980268 25.2147359,33.3980268 C25.5116429,33.3980268 25.8080655,33.3291299 26.0754271,33.1922998 L34.9729499,28.6219787 C36.1504065,28.0173242 36.8846822,27.0219327 36.9878489,25.8921201 C37.0852034,24.8244592 36.5940717,23.7919694 35.6399008,23.059157 L35.6399008,23.059157 Z" transform="translate(15 16)"/>
  </g>
</svg>
