<?xml version="1.0" encoding="UTF-8"?>
<svg width="16px" height="16px" viewBox="0 0 16 16" version="1.1" xmlns="http://www.w3.org/2000/svg" xmlns:xlink="http://www.w3.org/1999/xlink">
    <!-- Generator: Sketch 51 (57462) - http://www.bohemiancoding.com/sketch -->
    <title>Icon / LinkedIn</title>
    <desc>Created with Sketch.</desc>
    <defs></defs>
    <g id="Icon-/-LinkedIn" stroke="none" stroke-width="1" fill="none" fill-rule="evenodd">
        <g fill="#0072CE">
            <path d="M12.2283546,4.61538462 C15.4113617,4.61538462 16,6.71330459 16,9.44231097 L16,15 L12.8564711,15 L12.8564711,10.0728076 C12.8564711,8.89792521 12.8340805,7.38626683 11.2219539,7.38626683 C9.58449061,7.38626683 9.33465813,8.66613366 9.33465813,9.98787633 L9.33465813,15 L6.19230769,15 L6.19230769,4.86781918 L9.20797421,4.86781918 L9.20797421,6.25208068 L9.25098782,6.25208068 C9.67051783,5.45526036 10.6975414,4.61538462 12.2283546,4.61538462 Z" id="Fill-1"></path>
            <polygon id="Fill-6" points="1 15 3.88461538 15 3.88461538 5.19230769 1 5.19230769"></polygon>
            <path d="M0.5,1.94728846 C0.5,2.93325 1.29730769,3.73344231 2.28730769,3.73344231 C3.27269231,3.73344231 4.07288462,2.93325 4.07288462,1.94728846 C4.07288462,0.962480769 3.27269231,0.161711538 2.28730769,0.161711538 C1.29730769,0.161711538 0.5,0.962480769 0.5,1.94728846 Z" id="Fill-3"></path>
        </g>
    </g>
</svg>