<svg xmlns="http://www.w3.org/2000/svg" width="70" height="33" viewBox="0 0 70 33">
  <g fill="none" fill-rule="evenodd">
    <rect width="67" height="30" x="1.5" y="1.5" stroke="#F00" stroke-width="3"/>
    <path fill="#F00" d="M11.486,22 L15.788,9.13 L18.92,9.13 L23.168,22 L20.684,22 L19.658,18.814 L14.744,18.814 L13.736,22 L11.486,22 Z M17.21,11.092 L15.302,17.068 L19.1,17.068 L17.21,11.092 Z M28.964,25.456 C27.559993,25.456 26.4860037,25.1740028 25.742,24.61 C24.9979963,24.0459972 24.5600007,23.2840048 24.428,22.324 L26.624,22.324 C26.816001,23.3080049 27.5899932,23.8 28.946,23.8 C30.6980088,23.8 31.574,22.9540085 31.574,21.262 L31.574,19.876 C31.2979986,20.3560024 30.8810028,20.7669983 30.323,21.109 C29.7649972,21.4510017 29.1560033,21.622 28.496,21.622 C27.295994,21.622 26.300004,21.2080041 25.508,20.38 C24.715996,19.5519959 24.32,18.4720067 24.32,17.14 L24.32,17.014 C24.32,15.6939934 24.721996,14.5930044 25.526,13.711 C26.330004,12.8289956 27.3379939,12.388 28.55,12.388 C29.942007,12.388 30.9499969,12.9339945 31.574,14.026 L31.574,12.586 L33.752,12.586 L33.752,21.298 C33.7399999,22.6540068 33.3110042,23.6859965 32.465,24.394 C31.6189958,25.1020035 30.4520074,25.456 28.964,25.456 Z M29.036,19.948 C29.8040038,19.948 30.4309976,19.6900026 30.917,19.174 C31.4030024,18.6579974 31.646,17.9560044 31.646,17.068 L31.646,16.942 C31.646,16.0539956 31.4180023,15.3580025 30.962,14.854 C30.5059977,14.3499975 29.8880039,14.098 29.108,14.098 C28.315996,14.098 27.6920023,14.3619974 27.236,14.89 C26.7799977,15.4180026 26.552,16.1139957 26.552,16.978 L26.552,17.122 C26.552,17.9740043 26.7859977,18.6579974 27.254,19.174 C27.7220023,19.6900026 28.3159964,19.948 29.036,19.948 Z M42.158,22.18 C40.16599,22.18 38.6210055,21.5920059 37.523,20.416 C36.4249945,19.2399941 35.876,17.65001 35.876,15.646 L35.876,15.502 C35.876,13.5819904 36.4669941,12.0070061 37.649,10.777 C38.8310059,9.54699385 40.321991,8.932 42.122,8.932 C43.6580077,8.932 44.926995,9.31599616 45.929,10.084 C46.931005,10.8520038 47.5039993,11.9679927 47.648,13.432 L45.218,13.432 C44.9419986,11.7039914 43.9160089,10.84 42.14,10.84 C40.9999943,10.84 40.0910034,11.2569958 39.413,12.091 C38.7349966,12.9250042 38.396,14.0559929 38.396,15.484 L38.396,15.628 C38.396,17.0800073 38.7259967,18.2109959 39.386,19.021 C40.0460033,19.8310041 40.9699941,20.236 42.158,20.236 C43.0700046,20.236 43.8169971,20.0050023 44.399,19.543 C44.9810029,19.0809977 45.3319994,18.4060044 45.452,17.518 L47.792,17.518 C47.6119991,19.0300076 47.021005,20.184996 46.019,20.983 C45.016995,21.781004 43.7300079,22.18 42.158,22.18 Z M53.894,20.488 C54.698004,20.488 55.3309977,20.2090028 55.793,19.651 C56.2550023,19.0929972 56.486,18.3280049 56.486,17.356 L56.486,17.23 C56.486,16.2579951 56.2550023,15.4930028 55.793,14.935 C55.3309977,14.3769972 54.698004,14.098 53.894,14.098 C53.0779959,14.098 52.4390023,14.3739972 51.977,14.926 C51.5149977,15.4780028 51.284,16.2399951 51.284,17.212 L51.284,17.356 C51.284,18.3280049 51.5149977,19.0929972 51.977,19.651 C52.4390023,20.2090028 53.0779959,20.488 53.894,20.488 Z M53.876,22.18 C52.471993,22.18 51.3170045,21.7360044 50.411,20.848 C49.5049955,19.9599956 49.052,18.8080071 49.052,17.392 L49.052,17.248 C49.052,15.8079928 49.5079954,14.6380045 50.42,13.738 C51.3320046,12.8379955 52.489993,12.388 53.894,12.388 C55.286007,12.388 56.4379954,12.8319956 57.35,13.72 C58.2620046,14.6080044 58.718,15.7659929 58.718,17.194 L58.718,17.338 C58.718,18.7900073 58.2620046,19.9599956 57.35,20.848 C56.4379954,21.7360044 55.280007,22.18 53.876,22.18 Z"/>
  </g>
</svg>
