<svg xmlns="http://www.w3.org/2000/svg" width="24" height="16" viewBox="0 0 24 16">
  <path fill="#304051" fill-rule="evenodd" d="M4.554,51.05 L5.472,51.05 L5.472,52.508 C6.282,52.526 9.288,52.634 9.36,55.46 L7.47,55.46 C7.434,54.308 6.516,54.002 5.454,53.966 L5.454,57.728 C7.29,58.232 9.54,58.916 9.54,61.436 C9.54,63.2 8.388,64.1 7.92,64.406 C7.092,64.946 6.048,65.036 5.418,65.09 L5.418,66.872 L4.5,66.872 L4.5,65.09 C3.708,65.072 2.592,65.054 1.512,64.082 C0.576,63.236 0.504,62.354 0.504,61.58 L2.34,61.58 C2.304,62.372 2.772,63.524 4.5,63.56 L4.5,59.348 C1.548,58.466 0.738,57.71 0.738,55.784 C0.738,54.29 1.638,53.48 2.268,53.084 C3.096,52.58 4.068,52.544 4.554,52.526 L4.554,51.05 Z M4.536,57.458 L4.536,53.966 C2.592,54.164 2.52,55.334 2.52,55.658 C2.52,56.864 3.654,57.206 4.536,57.458 Z M5.454,59.582 L5.454,63.56 C7.02,63.542 7.668,62.534 7.668,61.652 C7.668,60.302 6.372,59.87 5.454,59.582 Z M10.8,58.916 C10.8,57.062 11.016,52.292 14.976,52.292 C18.702,52.292 19.152,56.288 19.152,58.628 C19.152,61.58 18.558,63.236 17.424,64.298 C16.542,65.126 15.498,65.252 14.94,65.252 C13.284,65.252 12.15,64.28 11.61,63.182 C11.196,62.354 10.8,61.148 10.8,58.916 Z M12.528,58.826 C12.528,61.598 13.068,63.758 14.958,63.758 C17.046,63.758 17.406,61.022 17.406,58.79 C17.406,55.802 16.884,53.732 14.994,53.732 C12.816,53.732 12.528,56.594 12.528,58.826 Z M21.474,65 L23.472,65 L23.472,62.84 L21.474,62.84 L21.474,65 Z" transform="translate(0 -51)"/>
</svg>
