
<svg width="67px" height="67px" viewBox="0 0 67 67" version="1.1" xmlns="http://www.w3.org/2000/svg" xmlns:xlink="http://www.w3.org/1999/xlink">
    <!-- Generator: Sketch 49.1 (51147) - http://www.bohemiancoding.com/sketch -->
    <desc>Created with Sketch.</desc>
    <defs></defs>
    <g id="_Components-Library" stroke="none" stroke-width="1" fill="none" fill-rule="evenodd">
        <g id="DET_01-|-Accordion-List---Icon---Green" transform="translate(-296.000000, -257.000000)">
            <g id="List" transform="translate(295.000000, 93.000000)">
                <g id="1" transform="translate(1.000000, 162.000000)">
                    <circle id="Oval-3" fill="#65FCA2" cx="33.5" cy="35.5" r="33.5"></circle>
                    <g id="Icon---Alfalfa" transform="translate(19.000000, 21.000000)" fill="#000000">
                        <path d="M25.6765214,16.9705785 C24.1466011,18.4134777 21.9835204,19.05088 19.2420871,18.8848735 L25.3534164,12.7729112 C25.6592961,12.4669999 25.6592961,11.9715905 25.3534164,11.6656792 C25.0475367,11.3597679 24.5521787,11.3597679 24.2462991,11.6656792 L18.1349698,17.7776415 C17.9689805,15.0343581 18.6068387,12.8720975 20.0501105,11.3430628 C22.5556093,8.68800301 26.799298,8.53817954 28.4310042,8.58725064 C28.4811141,10.2191258 28.3307842,14.4648201 25.6765214,16.9705785 M4.32392929,9.95132286 C1.66966643,7.44608652 1.5193365,3.20039217 1.56840252,1.567995 C3.19958668,1.51996797 7.44640725,1.66874737 9.95086215,4.32328515 C11.3936119,5.85284182 12.0314702,8.01510248 11.8649589,10.7583859 L5.75362958,4.64642357 C5.44774993,4.34051223 4.95239192,4.34051223 4.64651227,4.64642357 C4.34063262,4.9523349 4.34063262,5.44774421 4.64651227,5.75365555 L10.7578416,11.8650958 C8.01588626,12.0311023 5.85280557,11.3942221 4.32392929,9.95132286 M29.9598805,7.86736714 C29.9624903,7.75930631 29.9431771,7.65072345 29.9003749,7.54736092 C29.8179022,7.34794431 29.6586986,7.19551068 29.4655664,7.11929386 C29.4467752,7.11146337 29.4279839,7.10467694 29.4081487,7.09841254 C29.3355937,7.07492106 29.2604287,7.0629143 29.1863077,7.06187023 C28.4758944,7.00027034 22.3760486,6.59569477 18.9106305,10.2676749 C16.9187589,12.3787763 16.1791147,15.3877745 16.7042255,19.209056 L13.1558128,22.7578363 L13.1558128,12.8423416 C13.1892194,12.7807417 13.2153184,12.7149655 13.2314997,12.6450131 C13.2408953,12.6079488 13.2471591,12.5693183 13.249769,12.5317319 C13.868314,8.54601004 13.1411974,5.42320866 11.0898202,3.24894124 C7.66877027,-0.377099935 1.67384226,-0.0257717298 0.842851809,0.0394823945 C0.757769243,0.0384383285 0.672686678,0.0504450873 0.589170049,0.0770687701 C0.371504836,0.146499158 0.197685852,0.307807354 0.109993392,0.51296632 C0.0985098554,0.537501871 0.0885922558,0.564125554 0.079718614,0.590749236 C0.0562295621,0.663833856 0.0447460257,0.738484574 0.0431800889,0.813135292 C-0.0178914458,1.52101203 -0.422947095,7.62514383 3.24917467,11.0898768 C4.92263912,12.6700707 7.15827488,13.4640829 9.91693352,13.4640829 C10.4519619,13.4640829 11.0146552,13.4228423 11.589876,13.3628085 L11.589876,24.6481177 L11.589876,29.2169505 C11.589876,29.6491938 11.9406458,30 12.3728444,30 C12.8050429,30 13.1558128,29.6491938 13.1558128,29.2169505 L13.1558128,24.9723002 L17.8160407,20.3110676 C18.6052728,20.4191285 19.3652741,20.4833385 20.0835171,20.4833385 C22.8416538,20.4833385 25.0778115,19.6888043 26.751276,18.1096545 C30.3706779,14.6934706 30.0282597,8.71567076 29.9598805,7.86736714" id="Fill-1"></path>
                    </g>
                </g>
            </g>
        </g>
    </g>
</svg>