
<svg width="19px" height="15px" viewBox="0 0 19 15" version="1.1" xmlns="http://www.w3.org/2000/svg" xmlns:xlink="http://www.w3.org/1999/xlink">
    <!-- Generator: Sketch 48.2 (47327) - http://www.bohemiancoding.com/sketch -->
    <desc>Created with Sketch.</desc>
    <defs></defs>
    <g id="Symbols" stroke="none" stroke-width="1" fill="none" fill-rule="evenodd">
        <g id="Utility-Icons" transform="translate(-90.000000, -1.000000)" fill="#FFFFFF">
            <g transform="translate(63.000000, 1.000000)" id="Twitter">
                <g transform="translate(27.000000, 0.000000)">
                    <path d="M5.975348,15 C13.145416,15 17.066484,9.2296164 17.066484,4.22599888 C17.066484,4.06202935 17.063064,3.89887193 17.055312,3.73645277 C17.816376,3.2020199 18.478032,2.5351416 19,1.77583203 C18.301484,2.0771934 17.549844,2.280365 16.761344,2.37198417 C17.566108,1.90325724 18.184064,1.16144464 18.475448,0.277293801 C17.722136,0.711026784 16.888188,1.02656292 16.00028,1.19643859 C15.28892,0.46038449 14.275916,0 13.15484,0 C11.001988,0 9.256116,1.69595133 9.256116,3.78643357 C9.256116,4.08366063 9.290392,4.37254526 9.357272,4.64983906 C6.11762,4.49162803 3.244744,2.98474736 1.3224,0.693529811 C0.987316,1.25298999 0.794428,1.90325724 0.794428,2.59678705 C0.794428,3.91053657 1.482684,5.0702832 2.529128,5.74875233 C1.88974,5.72963116 1.28896,5.55894339 0.763572,5.27507899 C0.762736,5.29087795 0.762736,5.3066769 0.762736,5.32328795 C0.762736,7.15744323 2.106644,8.68846529 3.890136,9.03567315 C3.562728,9.12219827 3.21822,9.16885686 2.86254,9.16885686 C2.611436,9.16885686 2.367172,9.14471547 2.129748,9.10056699 C2.625952,10.6050114 4.064936,11.6997903 5.771364,11.73065 C4.436956,12.7462865 2.756216,13.3515932 0.92986,13.3515932 C0.615296,13.3515932 0.305064,13.3340962 0,13.2991023 C1.7252,14.373062 3.773552,15 5.975348,15" id="Fill-1"></path>
                </g>
            </g>
        </g>
    </g>
</svg>