<?xml version="1.0" encoding="UTF-8"?>
<svg width="19px" height="15px" viewBox="0 0 19 15" version="1.1" xmlns="http://www.w3.org/2000/svg" xmlns:xlink="http://www.w3.org/1999/xlink">
    <!-- Generator: Sketch 51 (57462) - http://www.bohemiancoding.com/sketch -->
    <title>Icon / Twitter</title>
    <desc>Created with Sketch.</desc>
    <defs></defs>
    <g id="Icon-/-Twitter" stroke="none" stroke-width="1" fill="none" fill-rule="evenodd">
        <g fill="#0072CE" id="Fill-1">
            <path d="M5.84256249,15 C12.8532956,15 16.6872288,9.2296164 16.6872288,4.22599888 C16.6872288,4.06202935 16.6838848,3.89887193 16.6763051,3.73645277 C17.4204565,3.2020199 18.0674091,2.5351416 18.5777778,1.77583203 C17.8947844,2.0771934 17.1598475,2.280365 16.3888697,2.37198417 C17.17575,1.90325724 17.7799737,1.16144464 18.0648825,0.277293801 C17.3283108,0.711026784 16.5128949,1.02656292 15.6447182,1.19643859 C14.9491662,0.46038449 13.9586734,0 12.8625102,0 C10.7574994,0 9.05042453,1.69595133 9.05042453,3.78643357 C9.05042453,4.08366063 9.08393884,4.37254526 9.14933262,4.64983906 C5.98167289,4.49162803 3.17263858,2.98474736 1.29301333,0.693529811 C0.965375644,1.25298999 0.776774044,1.90325724 0.776774044,2.59678705 C0.776774044,3.91053657 1.44973547,5.0702832 2.47292516,5.74875233 C1.84774578,5.72963116 1.26031644,5.55894339 0.746603733,5.27507899 C0.745786311,5.29087795 0.745786311,5.3066769 0.745786311,5.32328795 C0.745786311,7.15744323 2.05982969,8.68846529 3.80368853,9.03567315 C3.48355627,9.12219827 3.146704,9.16885686 2.798928,9.16885686 C2.55340409,9.16885686 2.31456818,9.14471547 2.08242027,9.10056699 C2.56759751,10.6050114 3.97460409,11.6997903 5.64311147,11.73065 C4.33835698,12.7462865 2.69496676,13.3515932 0.909196444,13.3515932 C0.601622756,13.3515932 0.2982848,13.3340962 0,13.2991023 C1.68686222,14.373062 3.68969529,15 5.84256249,15"></path>
        </g>
    </g>
</svg>