<?xml version="1.0" encoding="UTF-8"?>
<svg width="16px" height="10px" viewBox="0 0 16 10" version="1.1" xmlns="http://www.w3.org/2000/svg" xmlns:xlink="http://www.w3.org/1999/xlink">
    <!-- Generator: Sketch 51 (57462) - http://www.bohemiancoding.com/sketch -->
    <title>Functional UI / View</title>
    <desc>Created with Sketch.</desc>
    <defs></defs>
    <g id="Functional-UI-/-View" stroke="none" stroke-width="1" fill="none" fill-rule="evenodd">
        <g id="Icon-/-View" fill="#0072CE">
            <path d="M7.7287619,8.27131429 C5.74019048,8.27131429 4.1287619,6.65912381 4.1287619,4.67131429 C4.1287619,2.68274286 5.74019048,1.07055238 7.7287619,1.07055238 C9.71733333,1.07055238 11.3287619,2.68274286 11.3287619,4.67131429 C11.3287619,6.65912381 9.71733333,8.27131429 7.7287619,8.27131429 M7.7287619,7.61904763e-05 C1.63504762,7.61904763e-05 0,4.67131429 0,4.67131429 C0,4.67131429 1.63504762,9.34255238 7.7287619,9.34255238 C13.8224762,9.34255238 15.4575238,4.67131429 15.4575238,4.67131429 C15.4575238,4.67131429 13.8224762,7.61904763e-05 7.7287619,7.61904763e-05" id="Fill-1"></path>
            <path d="M9.09721905,4.4376381 C9.07055238,4.4376381 9.04617143,4.43154286 9.02026667,4.43001905 C8.47093333,4.3904 8.03588571,3.94468571 8.0183619,3.38925714 C8.0176,3.37782857 8.01455238,3.3671619 8.01455238,3.35497143 C8.01455238,3.12487619 8.08769524,2.91154286 8.21112381,2.73630476 C8.05569524,2.69744762 7.89569524,2.67078095 7.7288381,2.67078095 C6.62407619,2.67078095 5.7288381,3.56678095 5.7288381,4.67078095 C5.7288381,5.77554286 6.62407619,6.67154286 7.7288381,6.67154286 C8.8336,6.67154286 9.7288381,5.77554286 9.7288381,4.67078095 C9.7288381,4.53059048 9.7136,4.39420952 9.68617143,4.2616381 C9.51626667,4.37211429 9.31512381,4.4376381 9.09721905,4.4376381" id="Fill-4"></path>
        </g>
    </g>
</svg>